<svg width="170" height="60" viewBox="0 0 170 60" fill="none" xmlns="http://www.w3.org/2000/svg">
<rect width="170" height="60" fill="#000616"/>
<g clip-path="url(#clip0_1358_8090)">
<path d="M75.4162 27.8946C74.8303 26.8146 74.026 25.9706 73.0159 25.382C72.0069 24.7935 70.8561 24.4963 69.6054 24.4963C68.5395 24.4963 67.5654 24.7103 66.7041 25.1392C65.8439 25.5693 65.1511 26.122 64.6571 26.7869L64.3386 27.2228V21.3063C64.3386 21.1536 64.2119 21.0288 64.0573 21.0288H61.9534C61.879 21.0284 61.8075 21.0575 61.7545 21.1095C61.7016 21.1615 61.6715 21.2322 61.6709 21.3063V38.4257C61.6709 38.5772 61.7976 38.702 61.9522 38.702H64.0561C64.1305 38.7023 64.202 38.6733 64.255 38.6213C64.3079 38.5693 64.338 38.4985 64.3386 38.4245V36.2751L64.6571 36.689C65.1511 37.3469 65.8288 37.8869 66.6762 38.302C67.5235 38.724 68.5127 38.9379 69.6054 38.9379C70.841 38.9379 71.9848 38.6269 73.0019 38.0106C74.019 37.4024 74.8303 36.5306 75.4162 35.4299C76.002 34.3233 76.2996 33.0491 76.2996 31.6512C76.2996 30.2464 76.002 28.9872 75.4162 27.8934V27.8946ZM72.931 34.3303C72.5009 35.1049 71.922 35.6993 71.2223 36.1016C70.5294 36.5002 69.7432 36.71 68.9428 36.7098C68.1582 36.7098 67.3968 36.5098 66.6971 36.1155C65.9915 35.7212 65.4126 35.1327 64.9814 34.3707C64.5583 33.6168 64.3386 32.7173 64.3386 31.6998C64.3386 30.6892 64.5583 29.7966 64.9814 29.0427C65.4115 28.2958 65.9915 27.713 66.6971 27.313C67.3866 26.928 68.1636 26.7247 68.9544 26.7222C69.7451 26.7198 70.5234 26.9184 71.2153 27.2991C71.9355 27.6994 72.5296 28.2911 72.931 29.008C73.3553 29.748 73.5738 30.6407 73.5738 31.6512C73.5738 32.6618 73.3553 33.5614 72.931 34.3303ZM92.0512 31.3113C92.0512 29.9446 91.7583 28.7317 91.1794 27.6853C90.6209 26.6625 89.7816 25.8188 88.7593 25.2525C87.7271 24.6802 86.5275 24.3877 85.2024 24.3877C83.8296 24.3877 82.5951 24.6883 81.5281 25.2803C80.4756 25.8709 79.618 26.7525 79.0591 27.8183C78.4733 28.9132 78.1734 30.2024 78.1734 31.6454C78.1734 33.0965 78.4803 34.3858 79.087 35.4807C79.662 36.5476 80.5273 37.4319 81.5839 38.0326C82.644 38.6327 83.8645 38.9391 85.2035 38.9391C86.8495 38.9391 88.2513 38.5205 89.3603 37.6984C90.2605 37.0419 90.9719 36.162 91.4235 35.1466C91.5072 34.965 91.3607 34.7558 91.1655 34.7558H88.8779C88.8299 34.7567 88.7829 34.77 88.7416 34.7943C88.7002 34.8186 88.6659 34.8531 88.6419 34.8945C87.9305 36.1433 86.7798 36.7711 85.2035 36.7711C84.0458 36.7711 83.0554 36.4011 82.2604 35.6761C81.4583 34.9512 81.012 33.9822 80.9213 32.789L80.9073 32.6017H91.7176C91.7861 32.6022 91.8524 32.5776 91.9038 32.5326C91.9553 32.4876 91.9883 32.4253 91.9966 32.3577C92.037 32.0104 92.0552 31.6609 92.0512 31.3113ZM89.2824 30.5366H80.9225L80.9504 30.3423C81.0898 29.1919 81.5501 28.2576 82.3103 27.5743C83.0775 26.8979 84.0051 26.5487 85.0722 26.5487C86.2509 26.5487 87.247 26.8979 88.0433 27.5882C88.8453 28.2854 89.2638 29.2196 89.2847 30.3632V30.5366H89.2824ZM97.919 26.7823V35.0518C97.919 35.653 98.0654 36.0901 98.3514 36.3664C98.6443 36.6347 99.1046 36.7688 99.7672 36.7688H101.149C101.303 36.7688 101.428 36.896 101.428 37.0509V38.6558C101.429 38.7299 101.399 38.8011 101.347 38.854C101.295 38.9068 101.224 38.937 101.149 38.9379H99.2441C97.9469 38.9379 96.9484 38.635 96.2649 38.0268C95.5953 37.4255 95.2536 36.43 95.2536 35.0518V26.7823H93.8297C93.755 26.7813 93.6836 26.751 93.6314 26.6979C93.5791 26.6448 93.5501 26.5733 93.5507 26.499V24.9519C93.5507 24.7958 93.6762 24.6686 93.8297 24.6686H95.2536V21.3132C95.2536 21.1571 95.3791 21.0299 95.5326 21.0299H97.64C97.7934 21.0299 97.919 21.1571 97.919 21.3132V24.6698H101.149C101.303 24.6698 101.428 24.797 101.428 24.9531V26.5001C101.429 26.5745 101.4 26.646 101.348 26.6991C101.295 26.7522 101.224 26.7825 101.149 26.7834H97.9178L97.919 26.7823ZM114.557 34.8459C114.557 35.6206 114.325 36.3317 113.882 36.9445C113.431 37.5585 112.778 38.0464 111.949 38.4014C111.113 38.7575 110.111 38.9391 108.978 38.9391C107.831 38.9391 106.785 38.7367 105.876 38.3401C104.975 37.9424 104.248 37.3978 103.725 36.7156C103.315 36.2009 103.043 35.5916 102.934 34.9442C102.904 34.7766 103.05 34.6228 103.224 34.6228H105.527C105.593 34.6226 105.656 34.6446 105.708 34.6851C105.759 34.7257 105.795 34.7823 105.81 34.8459C105.941 35.3408 106.246 35.7733 106.725 36.1224C107.315 36.5549 108.055 36.7699 108.927 36.7699C109.836 36.7699 110.554 36.5965 111.063 36.2554C111.593 35.8993 111.862 35.4322 111.862 34.8679C111.862 34.2609 111.557 33.8007 110.961 33.5082C110.417 33.2422 109.545 32.9497 108.375 32.6294C107.256 32.3357 106.341 32.0513 105.636 31.7784C104.958 31.5043 104.352 31.08 103.863 30.5378C103.376 30.0001 103.13 29.2682 103.13 28.3756C103.13 27.6506 103.362 26.9742 103.812 26.3683C104.263 25.7613 104.917 25.2733 105.766 24.9242C106.617 24.5692 107.619 24.3877 108.739 24.3877C110.395 24.3877 111.746 24.7923 112.756 25.5867C113.628 26.2839 114.151 27.2112 114.318 28.3548C114.322 28.3949 114.318 28.4356 114.305 28.474C114.293 28.5124 114.272 28.5476 114.244 28.5774C114.217 28.6071 114.183 28.6307 114.146 28.6466C114.108 28.6624 114.068 28.6701 114.027 28.6693H111.84C111.773 28.6687 111.709 28.6455 111.657 28.6034C111.606 28.5613 111.571 28.5029 111.557 28.438C111.44 27.933 111.149 27.4844 110.736 27.1696C110.212 26.758 109.501 26.5487 108.629 26.5487C107.773 26.5487 107.103 26.7106 106.639 27.0308C106.151 27.3581 105.905 27.8044 105.905 28.3409C105.905 28.7594 106.079 29.1503 106.399 29.4428C106.704 29.7214 107.089 29.9377 107.525 30.0984C108.144 30.307 108.769 30.4951 109.4 30.6626C110.475 30.9424 111.368 31.2211 112.058 31.5067C112.727 31.7801 113.325 32.1993 113.809 32.7335C114.289 33.2573 114.535 33.9683 114.557 34.8459ZM116.979 38.4558C116.805 38.3087 116.666 38.1252 116.572 37.9185C116.478 37.7119 116.431 37.487 116.435 37.2602C116.435 36.7884 116.614 36.3849 116.979 36.0658C117.343 35.742 117.79 35.5813 118.32 35.5813C118.836 35.5813 119.277 35.7409 119.642 36.0658C120.007 36.3895 120.186 36.7884 120.186 37.2602C120.186 37.7331 120.007 38.1366 119.642 38.4558C119.277 38.7795 118.836 38.9391 118.32 38.9391C117.783 38.9391 117.336 38.7807 116.979 38.4558ZM125.436 20.8438C125.436 21.3294 125.279 21.7202 124.952 22.0439C124.797 22.1998 124.612 22.3227 124.408 22.405C124.205 22.4873 123.986 22.5274 123.766 22.5226C123.274 22.5226 122.879 22.3677 122.551 22.0439C122.39 21.8885 122.264 21.7016 122.179 21.495C122.095 21.2884 122.055 21.0667 122.061 20.8438C122.061 20.3651 122.223 19.9731 122.551 19.6493C122.709 19.4899 122.898 19.3644 123.107 19.2809C123.316 19.1973 123.54 19.1575 123.765 19.1637C124.236 19.1637 124.618 19.3256 124.952 19.6493C125.279 19.9731 125.436 20.3651 125.436 20.8438ZM125.059 24.6756V38.6512C125.059 38.8096 124.934 38.9402 124.782 38.9402H122.71C122.635 38.9384 122.564 38.907 122.512 38.8528C122.459 38.7986 122.431 38.7261 122.433 38.6512V24.6756C122.433 24.5172 122.558 24.3877 122.71 24.3877H124.78C124.933 24.3877 125.059 24.5172 125.059 24.6767V24.6756ZM140.6 27.8321C139.986 26.7523 139.078 25.8676 137.98 25.2803C136.873 24.6871 135.617 24.3877 134.254 24.3877C132.884 24.3877 131.627 24.6883 130.528 25.2803C129.427 25.867 128.516 26.7518 127.901 27.8321C127.261 28.934 126.936 30.2163 126.936 31.6454C126.936 33.0965 127.255 34.3858 127.873 35.4807C128.48 36.5508 129.371 37.4337 130.45 38.0326C131.535 38.6327 132.77 38.9391 134.118 38.9391C135.489 38.9391 136.752 38.6327 137.888 38.0256C139.005 37.4339 139.936 36.5458 140.578 35.4599C141.231 34.358 141.565 33.0757 141.565 31.6454C141.565 30.2163 141.238 28.934 140.6 27.8321ZM138.135 34.4077C137.696 35.1674 137.114 35.7386 136.403 36.1224C135.694 36.4982 134.927 36.6936 134.118 36.6936C132.848 36.6936 131.777 36.2473 130.939 35.3697C130.102 34.491 129.676 33.2422 129.676 31.6466C129.676 30.5794 129.881 29.6579 130.286 28.9063C130.69 28.1605 131.245 27.5812 131.94 27.2043C132.63 26.8227 133.408 26.6258 134.197 26.6331C135.006 26.6331 135.772 26.8216 136.469 27.2043C137.171 27.5812 137.739 28.1524 138.166 28.9063C138.584 29.6521 138.804 30.5794 138.804 31.6466C138.804 32.7196 138.576 33.6469 138.137 34.4077H138.135Z" fill="white"/>
<path d="M49.6242 32.3668L47.2587 31.0186L43.9761 29.1525L43.9692 29.1594L34.1586 23.5886V23.5747L30.876 21.7178V43.0159C30.876 44.3444 31.5734 45.5388 32.7591 46.2176C33.3344 46.539 33.9807 46.7136 34.634 46.7136C35.2803 46.7136 35.9277 46.539 36.5171 46.2164L49.6312 38.7609C50.2029 38.4426 50.6783 37.9778 51.0081 37.4147C51.3378 36.8516 51.5098 36.2109 51.5061 35.5592C51.5057 34.9085 51.331 34.2697 51.0001 33.7084C50.6691 33.1471 50.1938 32.6836 49.6231 32.3657L49.6242 32.3668ZM47.9829 35.9593L34.8618 43.409C34.7924 43.4513 34.7125 43.4737 34.6311 43.4737C34.5496 43.4737 34.4698 43.4513 34.4004 43.409C34.3303 43.37 34.2717 43.3134 34.2305 43.2448C34.1893 43.1762 34.1669 43.0981 34.1655 43.0182V27.3279L40.6796 31.0244L43.9761 32.8837L47.9829 35.1615C48.054 35.2013 48.1132 35.2593 48.1544 35.3294C48.1956 35.3995 48.2173 35.4792 48.2173 35.5604C48.2173 35.6416 48.1956 35.7213 48.1544 35.7914C48.1132 35.8615 48.054 35.9195 47.9829 35.9593Z" fill="#35C31E"/>
<path d="M43.8929 32.8257L30.9705 40.0441L29.8535 40.672L28.6155 41.368C28.0439 41.6902 27.3988 41.8614 26.7417 41.8652C26.1048 41.8652 25.4538 41.6918 24.8738 41.368C23.6998 40.7067 23 39.5261 23 38.2092V23.5063C23 22.1882 23.6928 21.0088 24.8738 20.3474C25.4417 20.0219 26.0857 19.8506 26.7412 19.8506C27.3966 19.8506 28.0406 20.0219 28.6085 20.3474L30.974 21.6794V25.3713L26.9754 23.127C26.9062 23.0816 26.8252 23.0574 26.7423 23.0574C26.6595 23.0574 26.5784 23.0816 26.5093 23.127C26.4384 23.1617 26.2768 23.2727 26.2768 23.5132V38.2149C26.2768 38.4566 26.4384 38.5664 26.5093 38.6011C26.5792 38.6444 26.66 38.6673 26.7423 38.6673C26.8247 38.6673 26.9054 38.6444 26.9754 38.6011L29.8465 36.987L30.9647 36.3592L40.5824 30.9676L43.8952 32.8257H43.8929Z" fill="#35C31E"/>
<path d="M51.5061 26.1576C51.5061 27.4931 50.8099 28.6887 49.63 29.3605L47.0053 30.8566L43.6298 28.9916L47.9818 26.5635C48.0528 26.5235 48.1119 26.4655 48.1532 26.3955C48.1944 26.3254 48.2163 26.2458 48.2166 26.1646C48.2148 26.0839 48.1923 26.0049 48.1512 25.9353C48.1101 25.8657 48.0518 25.8077 47.9818 25.7668L34.856 18.3206C34.7868 18.2819 34.709 18.261 34.6296 18.2597C34.5503 18.2585 34.4719 18.2771 34.4015 18.3136C34.3284 18.3518 34.2673 18.4092 34.2247 18.4795C34.182 18.5499 34.1596 18.6304 34.1597 18.7125V34.5566L30.876 36.402V18.7056C30.876 17.3759 31.5734 16.1734 32.7591 15.5028C33.3288 15.1732 33.9761 14.9995 34.6352 14.9995C35.2942 14.9995 35.9416 15.1732 36.5113 15.5028L49.63 22.956C50.2003 23.2763 50.6746 23.7417 51.0043 24.3046C51.334 24.8674 51.5072 25.5074 51.5061 26.1588V26.1576Z" fill="#35C31E"/>
</g>
<defs>
<clipPath id="clip0_1358_8090">
<rect width="136" height="37" fill="white" transform="translate(23 15)"/>
</clipPath>
</defs>
</svg>
