<svg width="75" height="32" viewBox="0 0 75 32" fill="none" xmlns="http://www.w3.org/2000/svg">
<rect width="75" height="32" fill="#000616"/>
<g clip-path="url(#clip0_1358_8093)">
<path d="M33.4371 14.2731C33.1528 13.7478 32.7624 13.3371 32.2722 13.0508C31.7826 12.7645 31.2241 12.62 30.6172 12.62C30.0999 12.62 29.6272 12.724 29.2092 12.9327C28.7917 13.142 28.4555 13.4108 28.2158 13.7343L28.0612 13.9463V11.068C28.0612 10.9938 27.9997 10.933 27.9247 10.933H26.9037C26.8676 10.9329 26.8329 10.947 26.8072 10.9723C26.7815 10.9976 26.7669 11.032 26.7666 11.068V19.3964C26.7666 19.4701 26.8281 19.5308 26.9031 19.5308H27.9241C27.9602 19.531 27.9949 19.5169 28.0206 19.4916C28.0463 19.4663 28.0609 19.4318 28.0612 19.3958V18.3501L28.2158 18.5515C28.4555 18.8716 28.7844 19.1343 29.1956 19.3362C29.6069 19.5415 30.0869 19.6456 30.6172 19.6456C31.2168 19.6456 31.7719 19.4943 32.2655 19.1945C32.7591 18.8986 33.1528 18.4745 33.4371 17.939C33.7214 17.4006 33.8658 16.7808 33.8658 16.1007C33.8658 15.4173 33.7214 14.8047 33.4371 14.2726V14.2731ZM32.2311 17.404C32.0223 17.7809 31.7414 18.07 31.4018 18.2658C31.0656 18.4596 30.684 18.5617 30.2956 18.5616C29.9149 18.5616 29.5454 18.4643 29.2058 18.2725C28.8634 18.0807 28.5824 17.7944 28.3732 17.4237C28.1678 17.057 28.0612 16.6193 28.0612 16.1243C28.0612 15.6327 28.1678 15.1985 28.3732 14.8317C28.5819 14.4683 28.8634 14.1848 29.2058 13.9902C29.5404 13.8029 29.9175 13.704 30.3012 13.7028C30.685 13.7016 31.0627 13.7982 31.3984 13.9835C31.748 14.1782 32.0363 14.466 32.2311 14.8148C32.437 15.1748 32.543 15.6091 32.543 16.1007C32.543 16.5923 32.437 17.03 32.2311 17.404ZM41.51 15.9353C41.51 15.2705 41.3678 14.6804 41.0869 14.1713C40.8159 13.6738 40.4086 13.2633 39.9124 12.9878C39.4115 12.7094 38.8294 12.5671 38.1863 12.5671C37.5201 12.5671 36.921 12.7133 36.4032 13.0013C35.8924 13.2887 35.4762 13.7176 35.205 14.236C34.9207 14.7687 34.7752 15.3959 34.7752 16.0979C34.7752 16.8038 34.9241 17.431 35.2185 17.9637C35.4976 18.4827 35.9175 18.9129 36.4302 19.2051C36.9447 19.4971 37.537 19.6461 38.1869 19.6461C38.9856 19.6461 39.6659 19.4425 40.2041 19.0426C40.641 18.7232 40.9862 18.2951 41.2054 17.8011C41.246 17.7128 41.1749 17.611 41.0801 17.611H39.97C39.9467 17.6115 39.9239 17.6179 39.9038 17.6298C39.8838 17.6416 39.8671 17.6584 39.8555 17.6785C39.5102 18.286 38.9518 18.5915 38.1869 18.5915C37.625 18.5915 37.1444 18.4115 36.7585 18.0588C36.3693 17.7061 36.1527 17.2347 36.1087 16.6542L36.1019 16.5631H41.3481C41.3813 16.5633 41.4135 16.5514 41.4385 16.5295C41.4634 16.5076 41.4795 16.4773 41.4835 16.4444C41.5031 16.2754 41.5119 16.1054 41.51 15.9353ZM40.1663 15.5585H36.1093L36.1228 15.464C36.1905 14.9043 36.4139 14.4498 36.7828 14.1173C37.1551 13.7883 37.6053 13.6184 38.1231 13.6184C38.6951 13.6184 39.1785 13.7883 39.565 14.1241C39.9542 14.4633 40.1573 14.9178 40.1674 15.4741V15.5585H40.1663ZM44.3576 13.732V17.755C44.3576 18.0475 44.4286 18.2601 44.5674 18.3946C44.7096 18.5251 44.933 18.5903 45.2545 18.5903H45.9252C45.9997 18.5903 46.0606 18.6522 46.0606 18.7276V19.5083C46.0608 19.5444 46.0466 19.579 46.0213 19.6047C45.9959 19.6305 45.9614 19.6451 45.9252 19.6456H45.0007C44.3711 19.6456 43.8865 19.4982 43.5549 19.2023C43.2299 18.9098 43.0641 18.4255 43.0641 17.755V13.732H42.3731C42.3368 13.7316 42.3022 13.7168 42.2768 13.691C42.2515 13.6652 42.2374 13.6304 42.2377 13.5942V12.8416C42.2377 12.7656 42.2986 12.7038 42.3731 12.7038H43.0641V11.0714C43.0641 10.9955 43.125 10.9336 43.1995 10.9336H44.2222C44.2966 10.9336 44.3576 10.9955 44.3576 11.0714V12.7043H45.9252C45.9997 12.7043 46.0606 12.7662 46.0606 12.8421V13.5948C46.0609 13.6309 46.0468 13.6657 46.0214 13.6916C45.9961 13.7174 45.9615 13.7321 45.9252 13.7326H44.357L44.3576 13.732ZM52.4321 17.6549C52.4321 18.0318 52.3193 18.3777 52.1044 18.6758C51.8855 18.9745 51.5685 19.2119 51.1663 19.3846C50.7607 19.5578 50.2744 19.6461 49.7244 19.6461C49.1677 19.6461 48.66 19.5477 48.2189 19.3548C47.7817 19.1613 47.4291 18.8963 47.1753 18.5645C46.9765 18.3141 46.8443 18.0176 46.7911 17.7027C46.777 17.6211 46.8475 17.5463 46.9321 17.5463H48.0496C48.0815 17.5463 48.1124 17.5569 48.1374 17.5767C48.1624 17.5964 48.18 17.6239 48.1873 17.6549C48.2504 17.8956 48.3988 18.106 48.6312 18.2759C48.9172 18.4863 49.2765 18.5909 49.6996 18.5909C50.1408 18.5909 50.4894 18.5065 50.7364 18.3406C50.9937 18.1673 51.124 17.9401 51.124 17.6656C51.124 17.3703 50.9762 17.1464 50.6868 17.0041C50.4228 16.8747 49.9997 16.7324 49.4317 16.5766C48.889 16.4337 48.4445 16.2953 48.1027 16.1626C47.7736 16.0292 47.4794 15.8228 47.2424 15.559C47.006 15.2975 46.8864 14.9414 46.8864 14.5071C46.8864 14.1545 46.9993 13.8254 47.2176 13.5306C47.4364 13.2353 47.7535 12.998 48.1658 12.8281C48.5788 12.6554 49.065 12.5671 49.6082 12.5671C50.4121 12.5671 51.0676 12.764 51.5578 13.1504C51.9809 13.4896 52.2347 13.9407 52.3159 14.497C52.318 14.5166 52.3159 14.5363 52.3097 14.555C52.3036 14.5737 52.2935 14.5908 52.2801 14.6053C52.2668 14.6198 52.2505 14.6313 52.2323 14.639C52.2142 14.6467 52.1946 14.6504 52.1749 14.65H51.1133C51.0809 14.6498 51.0497 14.6385 51.0247 14.618C50.9998 14.5975 50.9827 14.5691 50.9762 14.5375C50.9193 14.2918 50.7782 14.0736 50.5774 13.9205C50.3235 13.7202 49.9783 13.6184 49.5552 13.6184C49.1395 13.6184 48.8145 13.6971 48.5895 13.853C48.3525 14.0121 48.233 14.2293 48.233 14.4903C48.233 14.6939 48.3176 14.884 48.4727 15.0263C48.6211 15.1619 48.8078 15.2671 49.0193 15.3453C49.3195 15.4467 49.623 15.5383 49.9292 15.6198C50.451 15.7559 50.8842 15.8915 51.2193 16.0304C51.5437 16.1634 51.8341 16.3673 52.0689 16.6272C52.3018 16.882 52.4214 17.228 52.4321 17.6549ZM53.6072 19.411C53.5229 19.3395 53.4555 19.2502 53.4099 19.1497C53.3642 19.0491 53.3415 18.9397 53.3432 18.8294C53.3432 18.5999 53.43 18.4036 53.6072 18.2483C53.7837 18.0908 54.0009 18.0126 54.2581 18.0126C54.5086 18.0126 54.7224 18.0903 54.8995 18.2483C55.0766 18.4058 55.1635 18.5999 55.1635 18.8294C55.1635 19.0595 55.0766 19.2558 54.8995 19.411C54.7224 19.5685 54.5086 19.6461 54.2581 19.6461C53.9975 19.6461 53.7803 19.5691 53.6072 19.411ZM57.7116 10.843C57.7116 11.0793 57.6354 11.2694 57.4763 11.4269C57.4014 11.5027 57.3117 11.5625 57.2128 11.6025C57.1138 11.6426 57.0077 11.6621 56.901 11.6598C56.6623 11.6598 56.4705 11.5844 56.3115 11.4269C56.2334 11.3513 56.172 11.2604 56.131 11.1599C56.09 11.0593 56.0704 10.9515 56.0734 10.843C56.0734 10.6101 56.1524 10.4195 56.3115 10.262C56.3881 10.1844 56.48 10.1233 56.5813 10.0827C56.6826 10.0421 56.7912 10.0227 56.9004 10.0257C57.1289 10.0257 57.3144 10.1045 57.4763 10.262C57.6354 10.4195 57.7116 10.6101 57.7116 10.843ZM57.5282 12.7071V19.5061C57.5282 19.5831 57.4679 19.6467 57.394 19.6467H56.3888C56.3522 19.6458 56.3175 19.6305 56.2922 19.6042C56.2669 19.5778 56.2532 19.5425 56.2539 19.5061V12.7071C56.2539 12.6301 56.3149 12.5671 56.3888 12.5671H57.3929C57.4673 12.5671 57.5282 12.6301 57.5282 12.7077V12.7071ZM65.0703 14.2428C64.7726 13.7175 64.3318 13.287 63.7988 13.0013C63.2618 12.7128 62.652 12.5671 61.9909 12.5671C61.3258 12.5671 60.716 12.7133 60.1823 13.0013C59.6483 13.2868 59.2063 13.7172 58.9075 14.2428C58.5972 14.7788 58.4393 15.4026 58.4393 16.0979C58.4393 16.8038 58.5944 17.431 58.8939 17.9637C59.1885 18.4843 59.6212 18.9138 60.1445 19.2051C60.6714 19.4971 61.2705 19.6461 61.9249 19.6461C62.5899 19.6461 63.2031 19.4971 63.7542 19.2018C64.2966 18.9139 64.7484 18.4819 65.0596 17.9536C65.3766 17.4175 65.5385 16.7937 65.5385 16.0979C65.5385 15.4026 65.38 14.7788 65.0703 14.2428ZM63.8744 17.4417C63.6612 17.8113 63.3785 18.0891 63.0339 18.2759C62.6898 18.4587 62.3175 18.5538 61.9249 18.5538C61.3083 18.5538 60.7888 18.3366 60.382 17.9097C59.9759 17.4822 59.7689 16.8747 59.7689 16.0985C59.7689 15.5793 59.8687 15.131 60.065 14.7653C60.2613 14.4025 60.5304 14.1207 60.8677 13.9373C61.2026 13.7517 61.5801 13.6559 61.9632 13.6595C62.3558 13.6595 62.7276 13.7511 63.0655 13.9373C63.4062 14.1207 63.682 14.3986 63.8891 14.7653C64.0921 15.1281 64.1988 15.5793 64.1988 16.0985C64.1988 16.6205 64.0882 17.0716 63.875 17.4417H63.8744Z" fill="white"/>
<path d="M20.9207 16.4487L19.7727 15.7928L18.1797 14.8849L18.1763 14.8883L13.4153 12.1782V12.1714L11.8223 11.2681V21.6293C11.8223 22.2756 12.1607 22.8567 12.7361 23.1869C13.0153 23.3433 13.329 23.4282 13.646 23.4282C13.9596 23.4282 14.2739 23.3433 14.5599 23.1863L20.9241 19.5593C21.2015 19.4045 21.4322 19.1783 21.5922 18.9044C21.7523 18.6305 21.8357 18.3188 21.834 18.0018C21.8338 17.6852 21.749 17.3744 21.5884 17.1013C21.4278 16.8283 21.1971 16.6028 20.9201 16.4481L20.9207 16.4487ZM20.1242 18.1964L13.7566 21.8206C13.7229 21.8412 13.6841 21.852 13.6446 21.852C13.6051 21.852 13.5663 21.8412 13.5326 21.8206C13.4986 21.8016 13.4702 21.774 13.4502 21.7407C13.4302 21.7073 13.4193 21.6693 13.4187 21.6304V13.9973L16.5799 15.7956L18.1797 16.7001L20.1242 17.8083C20.1587 17.8276 20.1874 17.8558 20.2074 17.8899C20.2274 17.924 20.2379 17.9628 20.2379 18.0023C20.2379 18.0418 20.2274 18.0806 20.2074 18.1147C20.1874 18.1488 20.1587 18.177 20.1242 18.1964Z" fill="#35C31E"/>
<path d="M18.1392 16.6721L11.8681 20.1838L11.3259 20.4892L10.7252 20.8278C10.4478 20.9845 10.1347 21.0678 9.81585 21.0697C9.50672 21.0697 9.19082 20.9853 8.90933 20.8278C8.33959 20.5061 8 19.9318 8 19.2911V12.1383C8 11.4971 8.33621 10.9233 8.90933 10.6016C9.18496 10.4432 9.49747 10.3599 9.81556 10.3599C10.1337 10.3599 10.4462 10.4432 10.7218 10.6016L11.8697 11.2496V13.0456L9.92923 11.9538C9.89567 11.9317 9.85634 11.92 9.81613 11.92C9.77592 11.92 9.73659 11.9317 9.70303 11.9538C9.66862 11.9707 9.59021 12.0247 9.59021 12.1417V19.2939C9.59021 19.4114 9.66862 19.4649 9.70303 19.4818C9.73698 19.5028 9.77616 19.5139 9.81613 19.5139C9.8561 19.5139 9.89528 19.5028 9.92923 19.4818L11.3226 18.6965L11.8652 18.3911L16.5326 15.7681L18.1403 16.6721H18.1392Z" fill="#35C31E"/>
<path d="M21.834 13.4283C21.834 14.078 21.4961 14.6596 20.9235 14.9864L19.6498 15.7143L18.0116 14.807L20.1236 13.6257C20.1581 13.6063 20.1868 13.5781 20.2068 13.544C20.2268 13.5099 20.2374 13.4711 20.2375 13.4317C20.2367 13.3924 20.2258 13.354 20.2058 13.3201C20.1859 13.2862 20.1576 13.258 20.1236 13.2382L13.7538 9.61565C13.7202 9.59682 13.6824 9.58665 13.6439 9.58606C13.6054 9.58547 13.5673 9.59448 13.5332 9.61228C13.4977 9.63087 13.4681 9.65878 13.4474 9.69299C13.4267 9.72719 13.4158 9.7664 13.4159 9.80634V17.5143L11.8223 18.412V9.80297C11.8223 9.15609 12.1607 8.57109 12.7361 8.24484C13.0126 8.08448 13.3267 8 13.6466 8C13.9664 8 14.2806 8.08448 14.557 8.24484L20.9235 11.8707C21.2002 12.0265 21.4304 12.253 21.5904 12.5268C21.7504 12.8006 21.8345 13.1119 21.834 13.4288V13.4283Z" fill="#35C31E"/>
</g>
<defs>
<clipPath id="clip0_1358_8093">
<rect width="66" height="18" fill="white" transform="translate(8 8)"/>
</clipPath>
</defs>
</svg>
