<svg width="75" height="32" viewBox="0 0 75 32" fill="none" xmlns="http://www.w3.org/2000/svg">
<rect width="75" height="32" fill="#1A1C1E"/>
<g clip-path="url(#clip0_1355_7869)">
<path fill-rule="evenodd" clip-rule="evenodd" d="M69.2234 8L66.1045 11.3067H67.274L66.8004 14.6136L69.9193 11.3067H68.5454L69.2234 8Z" fill="#F4891A"/>
<path fill-rule="evenodd" clip-rule="evenodd" d="M15.187 19.078L13.839 18.0903C12.8968 19.3939 11.4886 19.3896 11.2842 19.3889C11.2803 19.3889 11.2768 19.3889 11.2737 19.3889C9.53556 19.3889 8.10323 17.8925 8.10323 16.1471C8.10323 14.4007 9.53658 12.9054 11.2737 12.9054C12.2915 12.8932 13.2459 13.4044 13.8089 14.2632L15.187 13.2163C14.2451 11.9984 12.7982 11.2929 11.271 11.3068C8.69571 11.3068 6.34679 13.2627 6.34679 16.1471C6.34231 16.7962 6.47166 17.439 6.72666 18.0345C7.76559 20.4436 10.0573 20.9876 11.271 20.9876C12.7982 21.0016 14.2451 20.296 15.187 19.078ZM16.7978 19.822C17.1363 20.1944 17.7287 20.5866 18.575 20.9986L19.2142 19.7927L18.4087 19.3265C18.2035 19.2162 18.0357 19.0461 17.9269 18.8383C17.8357 18.649 17.7902 18.3551 17.7902 17.9567V11.3068L16.2945 11.6472V18.2336C16.2941 18.9234 16.4618 19.4529 16.7978 19.822ZM24.855 18.8966C24.1166 19.6618 22.6078 19.903 21.6259 18.8966C20.7572 17.9922 20.7572 16.5515 21.6259 15.6471C22.5106 14.7409 24.0106 14.7726 24.855 15.6471C25.7139 16.5555 25.7139 17.9882 24.855 18.8966ZM21.6402 13.8621C20.7309 14.2383 20.0135 14.9755 19.6553 15.9021C19.3099 16.7817 19.3099 17.762 19.6553 18.6416C20.0134 19.5683 20.7309 20.3055 21.6402 20.6816C22.4435 21.0234 23.7263 21.1525 24.8334 20.6816C25.7428 20.3056 26.4603 19.5683 26.8185 18.6416C27.1638 17.762 27.1638 16.7817 26.8185 15.9021C26.4603 14.9755 25.7427 14.2383 24.8334 13.8621C23.7246 13.3904 22.4414 13.5212 21.6402 13.8621ZM28.076 13.7455H29.5718V17.6944C29.5718 18.7618 30.3402 19.4722 31.2548 19.4722C32.1692 19.4722 32.9377 18.7616 32.9377 17.6944V13.7455H34.4337V17.8255C34.4337 19.2007 33.6706 19.948 33.47 20.1351C32.6264 20.9208 31.633 20.9876 31.2548 20.9876L31.2434 20.9877C31.0706 20.9884 29.9608 20.9935 29.0396 20.1351C28.8394 19.9487 28.076 19.201 28.076 17.8255V13.7455ZM39.2453 19.5596C38.6571 19.5591 38.094 19.3173 37.6848 18.8892C36.8122 17.9921 36.8122 16.5515 37.6848 15.6544C38.0941 15.2265 38.6571 14.9845 39.2453 14.9841C39.827 14.9863 40.3827 15.2283 40.7844 15.6544C41.6473 16.5554 41.6473 17.9881 40.7844 18.8892C40.3828 19.3154 39.827 19.5575 39.2453 19.5596ZM41.3455 19.9384H41.3741V20.7981H42.8701V11.3069L41.3741 11.6472V14.6052H41.3455C40.9578 14.0069 40.1606 13.556 39.1303 13.556C38.1126 13.5495 37.14 13.9811 36.4549 14.7437C36.058 15.1873 35.4482 16.0883 35.4482 17.2719C35.4492 18.2151 35.7921 19.1251 36.4118 19.8291C37.4545 20.9982 38.8154 20.9893 39.0414 20.9878L39.0584 20.9877C40.5935 20.9877 41.3028 19.9978 41.3438 19.9406L41.3455 19.9384ZM49.3562 15.6326C48.4965 14.768 47.1093 14.768 46.2494 15.6326C45.837 16.0649 45.6309 16.6112 45.631 17.2719C45.631 17.9228 45.8372 18.4668 46.2494 18.9039C47.1002 19.773 48.4854 19.779 49.3434 18.9172L49.3562 18.9039C49.7683 18.4667 49.9748 17.9227 49.9748 17.2719C49.9748 16.6115 49.7688 16.065 49.3562 15.6326ZM44.1351 11.6473L45.631 11.3069V14.6053H45.6597C46.1069 13.8654 47.2083 13.5562 47.9324 13.5562C48.9547 13.5573 49.9313 13.9872 50.6298 14.7435C51.443 15.637 51.5569 16.6668 51.5569 17.2718C51.5569 18.6182 50.9587 19.4469 50.6166 19.8205C49.5166 21.0216 48.0456 20.99 47.9379 20.9877L47.9324 20.9876C47.1975 20.9876 46.1029 20.6724 45.6597 19.9384H45.631V20.7983H44.1351V11.6473ZM57.2068 15.3193C57.5759 15.6012 57.837 16.0092 57.9906 16.5433L53.9633 16.5433C54.0875 16.0284 54.3273 15.6254 54.6823 15.3338C55.0355 15.0429 55.4788 14.8882 55.9337 14.8967C56.3928 14.8901 56.8408 15.0387 57.2068 15.3193ZM56.1351 20.9876C57.7649 20.9616 58.864 19.9105 59.3713 19.2682L58.1058 18.554C57.5687 19.2827 56.8975 19.647 56.092 19.647C55.4571 19.6473 54.8521 19.3746 54.4275 18.8967C54.1528 18.5948 53.9889 18.2062 53.9633 17.7963H59.7455C59.7455 17.7739 59.7459 17.7462 59.7464 17.7137C59.7545 17.2594 59.7788 15.8657 58.7253 14.7379C58.0619 14.0276 57.0682 13.5561 56.1351 13.5561C54.4476 13.5561 53.5486 14.4542 53.3161 14.6999C51.9542 16.137 51.9542 18.4066 53.3161 19.8438C53.552 20.0935 54.4501 20.9876 56.1351 20.9876ZM63.4025 21.0001C62.5901 20.6117 61.9501 20.179 61.6254 19.822C61.2896 19.4528 61.1219 18.9234 61.1224 18.2336V15.1736H60.2737V13.7456H61.1224V11.6475L62.6178 11.3069V13.7456H63.8121V15.1736H62.6178C62.6178 15.8178 62.6178 16.3188 62.6178 16.7103C62.6174 17.9877 62.6174 18.0987 62.6238 18.2093C62.6242 18.2163 62.6247 18.2233 62.6255 18.2306C62.6259 18.2379 62.6264 18.2454 62.6268 18.2536L62.6276 18.2681C62.6477 18.5742 62.6746 18.9804 63.2365 19.3264L64.0442 19.7933L63.4025 21.0001Z" fill="white"/>
</g>
<defs>
<clipPath id="clip0_1355_7869">
<rect width="64" height="13" fill="white" transform="translate(6 8)"/>
</clipPath>
</defs>
</svg>
