<svg width="170" height="60" viewBox="0 0 170 60" fill="none" xmlns="http://www.w3.org/2000/svg">
<rect width="170" height="60" fill="#1A1C1E"/>
<g clip-path="url(#clip0_1355_7868)">
<path fill-rule="evenodd" clip-rule="evenodd" d="M158.181 11L150.871 18.6016H153.612L152.502 26.2036L159.812 18.6016H156.592L158.181 11Z" fill="#F4891A"/>
<path fill-rule="evenodd" clip-rule="evenodd" d="M31.5319 36.4663L28.3726 34.1956C26.1644 37.1925 22.8639 37.1825 22.3849 37.181C22.3756 37.181 22.3674 37.181 22.3603 37.181C18.2864 37.181 14.9294 33.7411 14.9294 29.7286C14.9294 25.7137 18.2888 22.2764 22.3603 22.2764C24.7456 22.2484 26.9825 23.4235 28.302 25.3979L31.5319 22.9911C29.3245 20.1914 25.9332 18.5695 22.3539 18.6015C16.318 18.6015 10.8128 23.0977 10.8128 29.7286C10.8023 31.2207 11.1054 32.6984 11.7031 34.0674C14.1381 39.6055 19.5092 40.8562 22.3539 40.8562C25.9333 40.8883 29.3245 39.2662 31.5319 36.4663ZM35.3072 38.1766C36.1006 39.0326 37.489 39.9344 39.4727 40.8814L40.9708 38.1094L39.0828 37.0376C38.6019 36.784 38.2087 36.393 37.9536 35.9152C37.74 35.48 37.6333 34.8044 37.6333 33.8886V18.6015L34.1276 19.384V34.5252C34.1267 36.111 34.5199 37.3282 35.3072 38.1766ZM54.1914 36.0493C52.4607 37.8083 48.9246 38.3629 46.6232 36.0493C44.5872 33.9702 44.5872 30.6583 46.6232 28.5791C48.6968 26.496 52.2123 26.5689 54.1914 28.5791C56.2044 30.6675 56.2044 33.961 54.1914 36.0493ZM46.6567 24.4758C44.5254 25.3405 42.844 27.0353 42.0045 29.1654C41.1951 31.1875 41.1951 33.4409 42.0045 35.4631C42.8438 37.5934 44.5254 39.2881 46.6567 40.1526C48.5394 40.9384 51.5459 41.2352 54.1407 40.1526C56.2722 39.2883 57.9539 37.5934 58.7933 35.4631C59.6027 33.4409 59.6027 31.1875 58.7933 29.1654C57.9537 27.0353 56.272 25.3405 54.1407 24.4758C51.5421 23.3914 48.5346 23.692 46.6567 24.4758ZM61.7407 24.2077H65.2464V33.2855C65.2464 35.7395 67.0473 37.3724 69.191 37.3724C71.3341 37.3724 73.1353 35.7389 73.1353 33.2855V24.2077H76.6414V33.5871C76.6414 36.7483 74.8529 38.4663 74.3828 38.8964C72.4055 40.7026 70.0774 40.8562 69.191 40.8562L69.1643 40.8563C68.7593 40.8581 66.158 40.8697 63.999 38.8964C63.5298 38.4678 61.7407 36.749 61.7407 33.5871V24.2077ZM87.9187 37.5733C86.54 37.5723 85.2203 37.0165 84.2611 36.0324C82.216 33.9699 82.216 30.6581 84.2611 28.5959C85.2205 27.6121 86.54 27.056 87.9187 27.0551C89.2821 27.0601 90.5844 27.6163 91.526 28.5959C93.5484 30.6673 93.5484 33.9607 91.526 36.0324C90.5846 37.012 89.2821 37.5686 87.9187 37.5733ZM92.8409 38.4442H92.9081V40.4206H96.4142V18.6016L92.9081 19.3839V26.184H92.8409C91.9323 24.8086 90.0638 23.7721 87.6491 23.7721C85.2638 23.757 82.9843 24.7493 81.3786 26.5023C80.4483 27.5221 79.0192 29.5933 79.0192 32.3143C79.0216 34.4826 79.8252 36.5746 81.2776 38.1929C83.7215 40.8804 86.911 40.86 87.4407 40.8566L87.4806 40.8564C91.0785 40.8564 92.741 38.5809 92.8371 38.4494L92.8409 38.4442ZM111.616 28.5458C109.601 26.5582 106.35 26.5582 104.335 28.5458C103.368 29.5395 102.885 30.7955 102.885 32.3144C102.885 33.8106 103.368 35.0613 104.335 36.066C106.329 38.064 109.575 38.0778 111.586 36.0965L111.616 36.066C112.582 35.0609 113.066 33.8104 113.066 32.3144C113.066 30.7961 112.583 29.5399 111.616 28.5458ZM99.3791 19.3841L102.885 18.6016V26.1842H102.953C104.001 24.4834 106.582 23.7724 108.279 23.7724C110.675 23.7751 112.964 24.7632 114.601 26.5019C116.507 28.556 116.774 30.9232 116.774 32.3142C116.774 35.4093 115.372 37.3142 114.57 38.1732C111.992 40.9343 108.544 40.8617 108.292 40.8563L108.279 40.8561C106.557 40.8561 103.991 40.1315 102.953 38.4443H102.885V40.4209H99.3791V19.3841ZM130.016 27.8256C130.881 28.4737 131.493 29.4116 131.853 30.6394L122.414 30.6393C122.705 29.4558 123.267 28.5292 124.099 27.859C124.927 27.1902 125.966 26.8344 127.032 26.8542C128.108 26.8388 129.158 27.1805 130.016 27.8256ZM127.504 40.8562C131.324 40.7963 133.9 38.3801 135.089 36.9036L132.123 35.2617C130.864 36.9369 129.291 37.7744 127.403 37.7744C125.915 37.7751 124.497 37.1481 123.502 36.0495C122.858 35.3554 122.474 34.4622 122.414 33.5199H135.966C135.966 33.4683 135.967 33.4046 135.968 33.3299C135.987 32.2855 136.044 29.0817 133.575 26.4891C132.02 24.856 129.691 23.7723 127.504 23.7723C123.549 23.7723 121.442 25.8368 120.897 26.4017C117.705 29.7054 117.705 34.9229 120.897 38.2268C121.45 38.8007 123.555 40.8562 127.504 40.8562ZM144.537 40.885C142.633 39.9919 141.133 38.9973 140.372 38.1765C139.585 37.3279 139.192 36.1109 139.193 34.5251V27.4906H137.204V24.2078H139.193V19.3846L142.698 18.6016V24.2078H145.497V27.4906H142.698C142.698 28.9715 142.698 30.1234 142.698 31.0233C142.697 33.9598 142.697 34.215 142.712 34.4694C142.713 34.4854 142.714 34.5014 142.716 34.5182C142.717 34.5349 142.718 34.5523 142.719 34.5711L142.721 34.6044C142.768 35.308 142.831 36.242 144.148 37.0373L146.041 38.1106L144.537 40.885Z" fill="white"/>
</g>
<defs>
<clipPath id="clip0_1355_7868">
<rect width="150" height="29.8851" fill="white" transform="translate(10 11)"/>
</clipPath>
</defs>
</svg>
