<svg width="75" height="32" viewBox="0 0 75 32" fill="none" xmlns="http://www.w3.org/2000/svg">
<rect width="75" height="32" fill="#14171D"/>
<g clip-path="url(#clip0_1358_7893)">
<path fill-rule="evenodd" clip-rule="evenodd" d="M36.6018 22H32.5909L33.2858 18.1867H37.2967L36.6018 22ZM12.5709 14.5913L12.221 16.6295H14.5434L14.2648 18.1544C14.2211 18.3948 14.0519 19.2248 13.8229 19.4131C13.6173 19.5524 13.3677 19.6192 13.1165 19.6021H11.912C11.2377 19.6021 10.6472 19.4482 10.3264 18.7797C10.0118 18.0768 10.2532 16.6529 10.3717 16.0017C10.494 15.3333 10.7285 14.1413 11.2756 13.4729C11.5541 13.1436 11.9097 12.882 12.3135 12.7092C12.7173 12.5364 13.158 12.4574 13.5997 12.4786H18.1568L19.7575 10.0027H12.2437C11.9076 10.0027 10.2571 10.0197 8.97684 10.8251C7.15941 11.9563 6.59717 14.1672 6.25038 16.07C5.96299 17.6466 5.69134 19.8236 6.84217 20.9872C7.51424 21.6729 8.76524 21.9988 9.77478 21.9988H15.6371C16.1378 22.0026 16.6275 21.8591 17.0403 21.5876C17.5019 21.2481 17.8083 20.7505 17.8954 20.1991L18.546 16.6292L18.5864 16.4045L18.8244 15.1022L18.9171 14.5913H12.5709ZM26.0922 14.5913L25.7425 16.6295H28.0647L27.7869 18.1541C27.7433 18.3944 27.574 19.2244 27.3451 19.4128C27.1395 19.5521 26.8899 19.6189 26.6387 19.6017H25.4333C24.759 19.6017 24.1681 19.4479 23.8473 18.7794C23.5324 18.0765 23.7744 16.6526 23.893 16.0014C24.0146 15.333 24.2494 14.141 24.7965 13.4726C25.075 13.1433 25.4306 12.8817 25.8344 12.7089C26.2383 12.5361 26.679 12.4571 27.1207 12.4783H31.678L33.2791 10.0024H25.7653C25.4288 10.0024 23.7786 10.0194 22.4981 10.8247C20.6803 11.956 20.1184 14.1669 19.7716 16.0697C19.4842 17.6466 19.2116 19.8242 20.3631 20.9881C21.0351 21.6738 22.2862 21.9997 23.296 21.9997H29.1584C29.659 22.0036 30.1488 21.86 30.5616 21.5886C31.023 21.2489 31.3294 20.7513 31.4167 20.2L32.0675 16.6301L32.108 16.4055L32.3456 15.1028L32.4384 14.5919H26.0922V14.5913Z" fill="#FF7D02"/>
<path fill-rule="evenodd" clip-rule="evenodd" d="M48.0552 21.9994C47.5415 21.9994 47.0341 21.965 46.6247 21.5883C46.1431 21.1267 46.2298 20.6457 46.3332 20.0803L47.8317 11.8533C47.8962 11.3163 48.1765 10.8245 48.613 10.4822C49.0703 10.1509 49.6331 9.98131 50.206 10.0022H58.2521L56.6518 12.4752H52.5355C52.3054 12.467 52.0782 12.5267 51.8847 12.6463C51.7093 12.7957 51.6015 13.0046 51.5841 13.2289L51.3349 14.5907H56.2863L55.9158 16.6289H50.9644L50.5319 19.0014C50.5077 19.0774 50.5039 19.1579 50.5207 19.2358C50.5375 19.3136 50.5745 19.3861 50.6282 19.4466C50.843 19.5864 51.1056 19.6415 51.3616 19.6005H57.1093L56.6723 21.9988H48.0552V21.9994ZM59.8371 21.9994L61.5748 12.462H58.5841L59.032 10H69.5905L67.9924 12.462H65.5767L63.8393 21.9982H59.8371V21.9994ZM45.236 15.229C45.7812 14.7382 46.1223 14.0746 46.196 13.3612C46.3396 12.5725 46.451 11.4757 45.8849 10.7897C45.3262 10.0923 44.2913 10.0068 43.4221 10.0015H34.7809L34.43 11.9324C34.43 11.9345 34.43 11.9364 34.43 11.9388L33.5752 16.6289H40.7942C40.9572 16.605 41.124 16.6242 41.2764 16.6845C41.4289 16.7448 41.5613 16.8439 41.6592 16.9711C41.7369 17.1215 41.7612 17.2922 41.7283 17.457C41.7283 17.457 41.5115 18.6573 41.5109 18.6607C41.4574 18.9209 41.334 19.1633 41.1528 19.3638C41.0665 19.4494 40.808 19.6039 40.0464 19.6039H38.8788L37.3375 21.9991H41.3834C42.4456 21.9991 43.3668 21.9991 44.3163 21.1596C45.2215 20.3708 45.3792 19.4106 45.5195 18.6397C45.654 17.9026 45.7764 17.1318 45.2334 16.5163C44.8807 16.151 44.3947 15.9299 43.8764 15.8989L43.889 15.8306C44.4001 15.796 44.8802 15.5824 45.2376 15.2305L45.236 15.229ZM42.2574 13.2138C42.2574 13.2221 42.2526 13.2329 42.2507 13.2418L42.1666 13.6957L42.1553 13.7573C42.1534 13.7656 42.1518 13.7739 42.1492 13.7825C42.1119 13.9546 42.0412 14.1184 41.9408 14.2654C41.8105 14.3928 41.6506 14.4887 41.4741 14.5454C41.2976 14.602 41.1096 14.6178 40.9255 14.5913H37.9496L38.0411 14.0891L38.1281 13.6136C38.1364 13.5665 38.1438 13.5213 38.1531 13.4757L38.2196 13.1123C38.2212 13.0143 38.2445 12.9178 38.2881 12.8292C38.3317 12.7405 38.3944 12.6618 38.4723 12.5983C38.6271 12.4887 38.8196 12.4395 39.0108 12.4608H41.2954C41.5613 12.4608 41.9508 12.4608 42.1553 12.7011C42.2586 12.853 42.2948 13.0379 42.2562 13.2154L42.2574 13.2138Z" fill="white"/>
</g>
<defs>
<clipPath id="clip0_1358_7893">
<rect width="64" height="12" fill="white" transform="translate(6 10)"/>
</clipPath>
</defs>
</svg>
