<svg width="170" height="60" viewBox="0 0 170 60" fill="none" xmlns="http://www.w3.org/2000/svg">
<rect width="170" height="60" fill="#14171D"/>
<g clip-path="url(#clip0_1358_7890)">
<path fill-rule="evenodd" clip-rule="evenodd" d="M81.7691 42H73.9354L75.2925 34.3734H83.1263L81.7691 42ZM34.8338 27.1826L34.1503 31.259H38.6864L38.1421 34.3088C38.0568 34.7895 37.7263 36.4495 37.2791 36.8261C36.8775 37.1048 36.39 37.2383 35.8994 37.2041H33.5469C32.2299 37.2041 31.0766 36.8963 30.4501 35.5594C29.8355 34.1536 30.3071 31.3057 30.5385 30.0034C30.7774 28.6665 31.2353 26.2827 32.3039 24.9458C32.8478 24.2873 33.5423 23.7639 34.3311 23.4184C35.1198 23.0728 35.9805 22.9148 36.8432 22.9572H45.7437L48.8701 18.0055H34.1948C33.5382 18.0055 30.3146 18.0394 27.8141 19.6501C24.2645 21.9127 23.1664 26.3344 22.489 30.14C21.9277 33.2932 21.3972 37.6472 23.6449 39.9744C24.9575 41.3457 27.4009 41.9975 29.3726 41.9975H40.8225C41.8003 42.0052 42.7569 41.7182 43.5631 41.1752C44.4646 40.4961 45.0631 39.5009 45.2332 38.3981L46.5039 31.2584L46.5829 30.809L47.0476 28.2043L47.2288 27.1826H34.8338ZM61.2425 27.1826L60.5595 31.259H65.0951L64.5526 34.3081C64.4673 34.7888 64.1368 36.4488 63.6896 36.8255C63.288 37.1041 62.8005 37.2377 62.3099 37.2034H59.9556C58.6386 37.2034 57.4846 36.8957 56.8581 35.5588C56.2429 34.153 56.7157 31.3051 56.9472 30.0027C57.1848 28.6659 57.6433 26.2821 58.712 24.9452C59.2558 24.2867 59.9504 23.7633 60.7391 23.4178C61.5279 23.0722 62.3886 22.9142 63.2513 22.9566H72.1524L75.2794 18.0049H60.6041C59.9468 18.0049 56.7239 18.0387 54.2228 19.6495C50.6725 21.9121 49.575 26.3338 48.8977 30.1394C48.3364 33.2932 47.8039 37.6484 50.0529 39.9762C51.3655 41.3476 53.8089 41.9994 55.7813 41.9994H67.2312C68.2089 42.0071 69.1656 41.72 69.9718 41.1771C70.873 40.4978 71.4715 39.5026 71.6419 38.4L72.9131 31.2602L72.9922 30.8109L73.4563 28.2055L73.6375 27.1838H61.2425V27.1826Z" fill="#FF7D02"/>
<path fill-rule="evenodd" clip-rule="evenodd" d="M104.139 41.9988C103.135 41.9988 102.144 41.9299 101.345 41.1765C100.404 40.2533 100.573 39.2913 100.775 38.1606L103.702 21.7065C103.828 20.6326 104.376 19.649 105.228 18.9645C106.121 18.3018 107.221 17.9626 108.339 18.0043H124.055L120.929 22.9504H112.889C112.44 22.934 111.996 23.0535 111.618 23.2927C111.276 23.5914 111.065 24.0093 111.031 24.4578L110.544 27.1814H120.215L119.491 31.2578H109.821L108.976 36.0027C108.929 36.1547 108.921 36.3159 108.954 36.4716C108.987 36.6272 109.059 36.7722 109.164 36.8933C109.584 37.1728 110.097 37.283 110.597 37.201H121.823L120.969 41.9976H104.139V41.9988ZM127.15 41.9988L130.544 22.924H124.703L125.578 18H146.2L143.079 22.924H138.36L134.967 41.9964H127.15V41.9988ZM98.6324 28.4579C99.6972 27.4764 100.363 26.1492 100.508 24.7225C100.788 23.1449 101.006 20.9513 99.8998 19.5794C98.8086 18.1846 96.7873 18.0135 95.0896 18.0031H78.2124L77.5269 21.8647C77.5269 21.869 77.5269 21.8727 77.5269 21.8776L75.8574 31.2578H89.957C90.2754 31.21 90.6011 31.2485 90.8989 31.3691C91.1966 31.4897 91.4552 31.6879 91.6465 31.9422C91.7983 32.2431 91.8456 32.5844 91.7814 32.9141C91.7814 32.9141 91.358 35.3145 91.3568 35.3213C91.2523 35.8418 91.0113 36.3266 90.6575 36.7277C90.4888 36.8988 89.984 37.2078 88.4964 37.2078H86.216L83.2057 41.9982H91.1078C93.1824 41.9982 94.9817 41.9982 96.8362 40.3192C98.6041 38.7416 98.9121 36.8213 99.1861 35.2795C99.4489 33.8053 99.6878 32.2635 98.6273 31.0325C97.9384 30.302 96.9893 29.8598 95.977 29.7978L96.0015 29.6612C96.9998 29.592 97.9374 29.1648 98.6355 28.461L98.6324 28.4579ZM92.8149 24.4276C92.8149 24.4442 92.8055 24.4658 92.8017 24.4836L92.6374 25.3915L92.6155 25.5146C92.6117 25.5312 92.6086 25.5478 92.6036 25.5651C92.5307 25.9092 92.3926 26.2367 92.1965 26.5308C91.942 26.7855 91.6296 26.9774 91.2849 27.0907C90.9402 27.204 90.573 27.2355 90.2135 27.1826H84.4011L84.5798 26.1781L84.7498 25.2272C84.7661 25.133 84.7805 25.0425 84.7987 24.9514L84.9285 24.2245C84.9316 24.0286 84.9772 23.8356 85.0623 23.6583C85.1474 23.481 85.27 23.3237 85.4221 23.1966C85.7244 22.9773 86.1004 22.879 86.4738 22.9215H90.936C91.4552 22.9215 92.216 22.9215 92.6155 23.4022C92.8171 23.706 92.8879 24.0758 92.8124 24.4307L92.8149 24.4276Z" fill="white"/>
</g>
<defs>
<clipPath id="clip0_1358_7890">
<rect width="125" height="24" fill="white" transform="translate(22 18)"/>
</clipPath>
</defs>
</svg>
