<svg width="75" height="32" viewBox="0 0 75 32" fill="none" xmlns="http://www.w3.org/2000/svg">
<rect width="75" height="32" fill="#212121"/>
<g clip-path="url(#clip0_1358_8019)">
<mask id="mask0_1358_8019" style="mask-type:luminance" maskUnits="userSpaceOnUse" x="9" y="11" width="57" height="10">
<path d="M66 11H9V21H66V11Z" fill="white"/>
</mask>
<g mask="url(#mask0_1358_8019)">
<path d="M45.5476 17.9315C45.3823 18.7828 44.9392 19.5067 44.2184 20.1033C43.4978 20.6999 42.7114 20.9997 41.8594 21.0025H35.6123L37.566 11H43.8131C44.6687 11 45.3377 11.3001 45.8203 11.9002C46.303 12.5004 46.463 13.2243 46.3005 14.072C46.1822 14.6828 45.7791 15.3259 45.0911 16.0013C45.5146 16.6787 45.6668 17.3221 45.5476 17.9315ZM43.2497 17.9315C43.2733 17.8356 43.2748 17.7355 43.2538 17.6389C43.2329 17.5423 43.1901 17.4517 43.1288 17.3739C43.0668 17.2983 42.988 17.2383 42.8985 17.1985C42.809 17.1588 42.7113 17.1405 42.6134 17.1451H39.9228L40.403 14.8595H43.0593C43.2822 14.8585 43.4971 14.7772 43.6645 14.6307C43.8402 14.4905 43.9603 14.293 44.0035 14.0731C44.0272 13.9771 44.0286 13.8771 44.0078 13.7804C43.9868 13.6838 43.944 13.5932 43.8827 13.5155C43.8206 13.4401 43.7417 13.3803 43.6522 13.3407C43.5627 13.3012 43.465 13.283 43.3673 13.2878H39.4171L38.3573 18.7147H42.3064C42.529 18.7134 42.7435 18.6322 42.9107 18.4859C43.0856 18.3466 43.2057 18.1502 43.2497 17.9315Z" fill="#FFBC00"/>
<path d="M54.1375 21.0025H45.5205L47.4753 11H56.0911L55.6452 13.2878H49.3264L49.0184 14.8595H53.9011L53.4552 17.1451H48.5724L48.2656 18.7179H54.5844L54.1375 21.0025Z" fill="#FFBC00"/>
<path d="M65.5541 13.2878H62.0402L60.5282 21.0025H58.2301L59.7379 13.2867H56.2197L56.6657 11H65.9969L65.5541 13.2878Z" fill="#FFBC00"/>
<path d="M19.8369 21.0025H17.5389L18.4244 16.4716L15.1692 21.0025H13.7331L12.2488 16.4737L11.3645 21.0025H9.06641L11.0201 11H13.3203L15.2024 17.1451L19.4906 11H21.7907L19.8369 21.0025Z" fill="#F9F9F9"/>
<path d="M29.0281 21.0025H20.4111L22.367 11H30.9839L30.5369 13.2867H24.2159L23.909 14.8584H28.7917L28.3447 17.1451H23.4621L23.1552 18.7168H29.4739L29.0281 21.0025Z" fill="#F9F9F9"/>
<path d="M36.9416 21.0025H29.6025L31.5563 11H33.8543L32.3466 18.7168H37.3885L36.9416 21.0025Z" fill="#F9F9F9"/>
</g>
</g>
<defs>
<clipPath id="clip0_1358_8019">
<rect width="57" height="10" fill="white" transform="translate(9 11)"/>
</clipPath>
</defs>
</svg>
