<svg width="170" height="60" viewBox="0 0 170 60" fill="none" xmlns="http://www.w3.org/2000/svg">
<rect width="170" height="60" fill="#212121"/>
<g clip-path="url(#clip0_1358_8004)">
<mask id="mask0_1358_8004" style="mask-type:luminance" maskUnits="userSpaceOnUse" x="24" y="19" width="122" height="22">
<path d="M146 19H24V41H146V19Z" fill="white"/>
</mask>
<g mask="url(#mask0_1358_8004)">
<path d="M102.225 34.2493C101.871 36.1222 100.923 37.7148 99.3801 39.0273C97.8376 40.3399 96.1546 40.9992 94.331 41.0055H80.96L85.1416 19H98.5126C100.344 19 101.776 19.6602 102.809 20.9805C103.842 22.3008 104.184 23.8935 103.836 25.7585C103.583 27.1022 102.72 28.517 101.248 30.0028C102.154 31.4932 102.48 32.9087 102.225 34.2493ZM97.3066 34.2493C97.3572 34.0382 97.3604 33.818 97.3155 33.6055C97.2707 33.393 97.1791 33.1937 97.0479 33.0227C96.9152 32.8563 96.7465 32.7242 96.5549 32.6368C96.3633 32.5494 96.1543 32.5091 95.9447 32.5193H90.186L91.2137 27.4909H96.8992C97.3762 27.4886 97.8362 27.3098 98.1945 26.9875C98.5705 26.6792 98.8276 26.2446 98.9201 25.7608C98.9709 25.5497 98.9738 25.3295 98.9292 25.117C98.8843 24.9044 98.7928 24.7051 98.6614 24.5341C98.5286 24.3683 98.3597 24.2366 98.1681 24.1495C97.9766 24.0626 97.7676 24.0227 97.5584 24.0332H89.1035L86.8352 35.9723H95.2877C95.7641 35.9695 96.2232 35.7908 96.581 35.469C96.9555 35.1624 97.2125 34.7305 97.3066 34.2493Z" fill="#FFBC00"/>
<path d="M120.61 41.0055H102.167L106.351 19H124.792L123.837 24.0332H110.313L109.654 27.4909H120.104L119.15 32.5193H108.699L108.042 35.9793H121.567L120.61 41.0055Z" fill="#FFBC00"/>
<path d="M145.046 24.0332H137.525L134.289 41.0055H129.37L132.598 24.0308H125.067L126.022 19H145.994L145.046 24.0332Z" fill="#FFBC00"/>
<path d="M47.1953 41.0055H42.2768L44.1719 31.0375L37.2048 41.0055H34.1309L30.954 31.0422L29.0612 41.0055H24.1426L28.3242 19H33.2474L37.2757 32.5193L46.4539 19H51.3769L47.1953 41.0055Z" fill="#F9F9F9"/>
<path d="M66.8671 41.0055H48.4238L52.6101 19H71.0533L70.0966 24.0308H56.5674L55.9105 27.4885H66.3613L65.4045 32.5193H54.9539L54.297 35.977H67.8214L66.8671 41.0055Z" fill="#F9F9F9"/>
<path d="M83.8049 41.0055H68.0967L72.2783 19H77.197L73.9698 35.977H84.7615L83.8049 41.0055Z" fill="#F9F9F9"/>
</g>
</g>
<defs>
<clipPath id="clip0_1358_8004">
<rect width="122" height="22" fill="white" transform="translate(24 19)"/>
</clipPath>
</defs>
</svg>
