<svg width="75" height="32" viewBox="0 0 75 32" fill="none" xmlns="http://www.w3.org/2000/svg">
<rect width="75" height="32" fill="#222A33"/>
<g clip-path="url(#clip0_1358_7976)">
<path d="M51.082 17.2591L52.7725 17.2482L56.3059 13.0146H50.3463L48.8379 18.9699H50.6584L51.082 17.2591ZM51.9663 13.7722H53.8611L51.134 17.0453L51.9663 13.7722Z" fill="white"/>
<path d="M47.1472 16.1935L49.8111 13.0146H43.8293L42.3506 18.9699H44.1711L45.4827 13.7722H47.3552L45.3415 16.1826L46.419 18.9736H48.2395L47.1472 16.1935Z" fill="white"/>
<path d="M70.9997 13.0146H69.1792L66.6973 15.7368L67.4032 13.0146H65.5827L64.0742 18.9699H65.8948L66.5561 16.3711L68.1166 18.9699H69.9371L68.1983 16.0557L70.9997 13.0146Z" fill="white"/>
<path d="M36.8182 13L31.4271 13.0145L29.8555 18.9698H32.2705L37.3234 13.8228L36.8182 13ZM32.1144 17.2445L33.0396 13.772H35.5066V13.7974L32.1144 17.2445Z" fill="white"/>
<path d="M26.8275 17.5382L26.0993 13.0146H23.8143L22.291 18.9699H24.1116L25.1667 14.8632L25.7241 18.9699H28.2691L29.7776 13.0146H27.957L26.8275 17.5382Z" fill="white"/>
<path d="M12.8201 15.6751H11.0813L11.765 13.0146H9.94441L8.4248 18.9699H10.2454L10.8175 16.6864H12.5601L11.973 18.9699H13.7936L15.3318 13.0146H13.5112L12.8201 15.6751Z" fill="white"/>
<path d="M9.30189 13.0146H4.1932L4 13.649H5.77968L4.44213 18.9699H6.26269L7.59652 13.6526H9.10126L9.30189 13.0146Z" fill="white"/>
<path d="M61.9047 13.8988H64.1414L64.3606 13.0107H60.3108L58.8135 18.9697H62.867L63.0639 18.2085H60.8272L61.9047 13.8988Z" fill="white"/>
<path d="M19.0848 17.955H17.5243L18.7838 13.0146H16.9633L15.6777 18.0457L16.235 18.9446L16.2871 18.9699H20.6452V18.9446L22.176 13.0146H20.3554L19.0848 17.955Z" fill="white"/>
<path d="M58.6724 13.0145H56.8295V13C56.3094 14.9791 55.3359 18.9698 55.3359 18.9698H57.1565L58.6724 13.0145Z" fill="white"/>
<path d="M41.8605 16.4472L42.0017 15.9035H38.8064L42.7447 13.0146H40.3817L35.73 16.8423L35.8081 16.9945L38.7581 16.9836L35.2879 18.8068L35.3511 18.9337L38.3011 18.9446L33.3262 21.8479L33.4191 22.0001L41.266 18.7815L41.5112 17.8318H39.2523L41.8605 16.4472Z" fill="#16BDF9"/>
</g>
<defs>
<clipPath id="clip0_1358_7976">
<rect width="67" height="9" fill="white" transform="translate(4 13)"/>
</clipPath>
</defs>
</svg>
