<svg width="170" height="60" viewBox="0 0 170 60" fill="none" xmlns="http://www.w3.org/2000/svg">
<rect width="170" height="60" fill="#222A33"/>
<g clip-path="url(#clip0_1358_7965)">
<path d="M115.001 32.4644L118.735 32.4402L126.54 23.0322H113.376L110.044 36.2662H114.065L115.001 32.4644ZM116.954 24.7157H121.14L115.116 31.9891L116.954 24.7157Z" fill="white"/>
<path d="M106.31 30.0963L112.195 23.0322H98.9813L95.7148 36.2662H99.7364L102.633 24.7157H106.77L102.322 30.0721L104.702 36.2743H108.723L106.31 30.0963Z" fill="white"/>
<path d="M159 23.0322H154.979L149.496 29.0814L151.056 23.0322H147.034L143.702 36.2662H147.724L149.185 30.4909L152.632 36.2662H156.653L152.812 29.7902L159 23.0322Z" fill="white"/>
<path d="M83.4935 23L71.5849 23.0322L68.1133 36.2662H73.4479L84.6097 24.8284L83.4935 23ZM73.1032 32.4321L75.1468 24.7157H80.5964V24.7721L73.1032 32.4321Z" fill="white"/>
<path d="M61.4253 33.0846L59.8167 23.0322H54.7692L51.4043 36.2662H55.4258L57.7567 27.1402L58.9877 36.2662H64.6096L67.9418 23.0322H63.9202L61.4253 33.0846Z" fill="white"/>
<path d="M30.4835 28.9444H26.6425L28.1527 23.0322H24.1311L20.7744 36.2662H24.7959L26.0598 31.1917H29.909L28.6123 36.2662H32.6338L36.0316 23.0322H32.01L30.4835 28.9444Z" fill="white"/>
<path d="M22.7116 23.0322H11.4268L11 24.4418H14.9312L11.9767 36.2662H15.9982L18.9445 24.4499H22.2685L22.7116 23.0322Z" fill="white"/>
<path d="M138.908 24.9973H143.849L144.333 23.0239H135.388L132.08 36.266H141.034L141.469 34.5745H136.528L138.908 24.9973Z" fill="white"/>
<path d="M44.3209 34.0109H40.8739L43.6561 23.0322H39.6346L36.7949 34.2123L38.026 36.2098L38.1409 36.2662H47.7679V36.2098L51.1493 23.0322H47.1278L44.3209 34.0109Z" fill="white"/>
<path d="M131.768 23.0322H127.698V23C126.549 27.3979 124.398 36.2662 124.398 36.2662H128.42L131.768 23.0322Z" fill="white"/>
<path d="M94.6312 30.6601L94.9431 29.4519H87.8849L96.5845 23.0322H91.3647L81.0893 31.5381L81.2617 31.8764L87.7782 31.8522L80.1127 35.9038L80.2522 36.1857L86.7687 36.2098L75.7793 42.6617L75.9845 43L93.318 35.8474L93.8597 33.737H88.8697L94.6312 30.6601Z" fill="#16BDF9"/>
</g>
<defs>
<clipPath id="clip0_1358_7965">
<rect width="148" height="20" fill="white" transform="translate(11 23)"/>
</clipPath>
</defs>
</svg>
