<svg width="75" height="32" viewBox="0 0 75 32" fill="none" xmlns="http://www.w3.org/2000/svg">
<rect width="75" height="32" fill="#1A5684"/>
<g clip-path="url(#clip0_1358_7926)">
<path d="M42.2417 13.6C42.7243 11.6301 41.5474 10 38.6646 10H32.4162L30.0752 19.6344L31.4341 22.0043H35.8791C38.7916 22.0043 41.0479 20.6237 41.6279 18.2237C41.92 16.9935 41.5813 16.1333 40.8193 15.7032V15.6731C41.5419 15.1975 42.0525 14.4534 42.2417 13.6ZM38.4317 18.1462C38.3132 18.6495 37.9788 19.1656 36.5945 19.1656H33.7582L34.2535 17.1011H37.0771C38.4444 17.0968 38.546 17.6258 38.4148 18.1462H38.4317ZM38.999 13.6645C38.8974 14.0516 38.6053 14.5247 37.4115 14.5247H34.8715L35.2949 12.8473H37.8348C39.0413 12.8387 39.1006 13.2344 38.999 13.6645Z" fill="#14A0FF"/>
<path d="M46.1749 17.3548H51.8644L52.5121 14.5161H46.8607L47.3009 12.8387H52.8974L53.5451 10H44.3588L41.4463 22H51.8517L52.5333 19.1613H45.7558L46.1749 17.3548Z" fill="#14A0FF"/>
<path d="M54.3404 10L53.6885 12.8387H57.0878L54.8569 22H58.4255L60.6607 12.8387H64.3014L64.9999 10H54.3404Z" fill="#14A0FF"/>
<path d="M14.7338 22H11.1355L12.6933 15.5914L13.0532 14.6237L12.1007 15.5914L11.0423 16.6796L11 13.4796L14.7338 10H17.6421L14.7338 22Z" fill="white"/>
<path d="M27.7262 17.028L26.579 15.0538L32.1458 10H26.96L24.8434 12.0645L17.6637 18.7527L14.2178 22H19.1242L22.8114 18.6581L24.0517 20.8086C24.4751 21.3505 25.072 22.0086 27.6035 22.0086H30.5668L27.7305 17.0237L27.7262 17.028Z" fill="white"/>
<path d="M24.4448 11.402V11.3762C24.1272 10.926 23.7033 10.564 23.2122 10.3236C22.7211 10.0831 22.1784 9.97178 21.6339 9.99986H17.8027L20.6602 14.9375L24.4448 11.402Z" fill="white"/>
</g>
<defs>
<clipPath id="clip0_1358_7926">
<rect width="54" height="12" fill="white" transform="translate(11 10)"/>
</clipPath>
</defs>
</svg>
