<svg width="170" height="60" viewBox="0 0 170 60" fill="none" xmlns="http://www.w3.org/2000/svg">
<rect width="170" height="60" fill="#1A5684"/>
<g clip-path="url(#clip0_1358_7916)">
<path d="M94.8475 25.8C95.911 21.5319 93.3176 18 86.9646 18H73.195L68.0361 38.8746L71.0307 44.0093H80.8261C87.2444 44.0093 92.2168 41.0179 93.4948 35.8179C94.1385 33.1527 93.3922 31.2889 91.713 30.357V30.2918C93.3054 29.2613 94.4306 27.649 94.8475 25.8ZM86.4515 35.6502C86.1903 36.7405 85.4533 37.8588 82.4027 37.8588H76.1523L77.2438 33.3857H83.4662C86.4795 33.3763 86.7034 34.5226 86.4142 35.6502H86.4515ZM87.7015 25.9398C87.4777 26.7785 86.834 27.8036 84.2032 27.8036H78.6058L79.5387 24.1692H85.1361C87.7948 24.1505 87.9254 25.0079 87.7015 25.9398Z" fill="#14A0FF"/>
<path d="M103.514 33.9355H116.052L117.48 27.7849H105.025L105.996 24.1505H118.329L119.756 18H99.5121L93.0938 44H116.024L117.526 37.8495H102.591L103.514 33.9355Z" fill="#14A0FF"/>
<path d="M121.51 18L120.073 24.1505H127.564L122.648 44H130.512L135.438 24.1505H143.461L145 18H121.51Z" fill="#14A0FF"/>
<path d="M34.2281 44H26.2985L29.7316 30.1147L30.5245 28.0179L28.4255 30.1147L26.0933 32.4724L26 25.5391L34.2281 18H40.6371L34.2281 44Z" fill="white"/>
<path d="M62.8585 33.2272L60.3304 28.9498L72.5979 18H61.17L56.5055 22.4731L40.6836 36.9642L33.0898 44H43.9021L52.0276 36.7591L54.761 41.4186C55.6939 42.5928 57.0093 44.0186 62.588 44.0186H69.1182L62.8678 33.2179L62.8585 33.2272Z" fill="white"/>
<path d="M55.6283 21.0379V20.982C54.9284 20.0066 53.9944 19.2223 52.9121 18.7013C51.8298 18.1803 50.6338 17.9391 49.4339 17.9999H40.9912L47.2882 28.6981L55.6283 21.0379Z" fill="white"/>
</g>
<defs>
<clipPath id="clip0_1358_7916">
<rect width="119" height="26" fill="white" transform="translate(26 18)"/>
</clipPath>
</defs>
</svg>
