<svg xmlns="http://www.w3.org/2000/svg" width="19" height="16" viewBox="0 0 19 16" fill="none">
    <path fill-rule="evenodd" clip-rule="evenodd" d="M13.3851 10.8617L14.0617 9.71886H17.2891L18.2857 8L16.2926 4.57143H13.4857L12.5166 2.87086H11.4286V1.71886H13.2023L14.1714 3.42857H15.6251L13.6229 0H9.71886V4.57143H11.3006L11.968 5.71429H9.71886V8H11.7851L12.7451 6.29029H15.3143L15.9726 7.43314H13.4126L12.4526 9.14286H9.71886V13.1474H12.8274L12.1691 14.2903H9.71886V16H13.6229L16.6217 10.8617H14.7109L14.0434 12.0046H11.4286V10.8617H13.3851Z" fill="#8CECFE"/>
    <path fill-rule="evenodd" clip-rule="evenodd" d="M4.90057 10.8617L4.224 9.71886H0.996571L0 8L1.99314 4.57143H4.8L5.76914 2.87086H6.85714V1.71886H5.08343L4.11429 3.42857H2.66057L4.66286 0H8.576V4.57143H6.98514L6.31771 5.71429H8.576V8H6.50057L5.54057 6.29029H2.97143L2.31314 7.43314H4.87314L5.83314 9.14286H8.576V13.1474H5.45829L6.11657 14.2903H8.576V16H4.66286L1.664 10.8617H3.57486L4.24229 12.0046H6.85714V10.8617H4.90057Z" fill="#07B5C2"/>
</svg>