<svg width="22" height="9" viewBox="0 0 22 9" fill="none" xmlns="http://www.w3.org/2000/svg">
    <path d="M0.06 9L3.264 0.767999H5.232L8.448 9H6.756L6.096 7.248H2.328L1.668 9H0.06ZM2.82 5.928H5.592L4.764 3.696C4.732 3.616 4.692 3.516 4.644 3.396C4.604 3.268 4.56 3.132 4.512 2.988C4.464 2.836 4.416 2.684 4.368 2.532C4.32 2.38 4.276 2.244 4.236 2.124H4.176C4.128 2.284 4.068 2.468 3.996 2.676C3.932 2.884 3.868 3.08 3.804 3.264C3.74 3.448 3.688 3.592 3.648 3.696L2.82 5.928ZM9.41981 9V0.767999H10.9798V7.644H15.1078V9H9.41981ZM16.2636 9V0.767999H17.8236V7.644H21.9516V9H16.2636Z" fill="#1C7D8F"/>
</svg>
