<svg width="12" height="12" viewBox="0 0 12 12" fill="none" xmlns="http://www.w3.org/2000/svg">
<path d="M5.9991 7.01174L6.8766 7.47274C7.0476 7.56274 7.2471 7.41724 7.2146 7.22724L7.0471 6.25024L7.7571 5.55874C7.8956 5.42424 7.8191 5.18924 7.6281 5.16174L6.6471 5.01924L6.2086 4.13024C6.1231 3.95724 5.8761 3.95724 5.7911 4.13024L5.3526 5.01974L4.3716 5.16224C4.1806 5.19024 4.1041 5.42474 4.2426 5.55924L4.9526 6.25074L4.7846 7.22774C4.7521 7.41774 4.9516 7.56274 5.1226 7.47324L6.0001 7.01224" stroke="#EEF3F5" stroke-linecap="round" stroke-linejoin="round"/>
<path fill-rule="evenodd" clip-rule="evenodd" d="M4.47447 8.86673C4.48997 8.86573 4.50547 8.86523 4.52097 8.86523C4.72047 8.86523 4.91247 8.94473 5.05347 9.08723C5.20547 9.24073 5.28397 9.45273 5.26897 9.66823C5.20197 10.6102 4.52397 11.2827 3.58147 11.3412C3.56597 11.3422 3.55047 11.3427 3.53497 11.3427C3.33547 11.3427 3.14347 11.2632 3.00247 11.1207C2.85047 10.9672 2.77197 10.7552 2.78697 10.5397C2.85397 9.59773 3.53197 8.92523 4.47447 8.86673ZM4.52097 9.61523C4.48147 10.1757 4.09647 10.5577 3.53547 10.5927C3.57497 10.0317 3.95997 9.65023 4.52097 9.61523Z" fill="#EEF3F5"/>
<path fill-rule="evenodd" clip-rule="evenodd" d="M0.659758 7.36596C1.00676 7.05946 1.41976 6.89746 1.85326 6.89746C2.28176 6.89746 2.69076 7.05596 3.03576 7.35596C3.19926 7.49796 3.29326 7.70346 3.29426 7.91946C3.29526 8.13596 3.20276 8.34196 3.04076 8.48496C2.69376 8.79146 2.28126 8.95346 1.84776 8.95346C1.41926 8.95346 1.01026 8.79496 0.664758 8.49496C0.501258 8.35296 0.407258 8.14746 0.406258 7.93146C0.405258 7.71496 0.497758 7.50896 0.659758 7.36596ZM2.54475 7.92246C2.33375 7.73896 2.09325 7.64746 1.85325 7.64746C1.61075 7.64746 1.36825 7.74096 1.15625 7.92796C1.36725 8.11146 1.60775 8.20296 1.84775 8.20296C2.09025 8.20296 2.33275 8.10946 2.54475 7.92246Z" fill="#EEF3F5"/>
<path fill-rule="evenodd" clip-rule="evenodd" d="M0.480886 3.70615C0.621386 3.56965 0.809386 3.49365 1.00389 3.49365C1.02389 3.49365 1.04389 3.49415 1.06389 3.49615C2.01289 3.57165 2.68439 4.26165 2.73489 5.21265C2.74589 5.42865 2.66389 5.63865 2.50889 5.78965C2.36839 5.92615 2.18039 6.00215 1.98589 6.00215C1.96589 6.00215 1.94589 6.00115 1.92589 5.99965C0.976886 5.92365 0.305386 5.23415 0.254886 4.28315C0.243886 4.06715 0.325886 3.85715 0.480886 3.70615ZM1.00389 4.24365C1.57189 4.28915 1.95539 4.68315 1.98589 5.25215C1.41789 5.20665 1.03439 4.81265 1.00389 4.24365Z" fill="#EEF3F5"/>
<path fill-rule="evenodd" clip-rule="evenodd" d="M2.58823 0.911703C2.73073 0.750703 2.93573 0.658203 3.15073 0.658203H3.15373C3.36973 0.659203 3.57523 0.753203 3.71723 0.917203C4.35123 1.6472 4.34723 2.6252 3.70723 3.3502C3.56473 3.5112 3.35973 3.6037 3.14473 3.6037H3.14173C2.92523 3.6027 2.72023 3.5087 2.57823 3.3452C1.94423 2.6152 1.94823 1.6372 2.58823 0.911703ZM3.15073 1.4082C3.53423 1.8502 3.53173 2.4147 3.14473 2.8537C2.76123 2.4117 2.76323 1.8472 3.15073 1.4082Z" fill="#EEF3F5"/>
<path fill-rule="evenodd" clip-rule="evenodd" d="M6.94399 9.08675C7.08549 8.94425 7.27699 8.86475 7.47649 8.86475C7.49199 8.86475 7.50749 8.86525 7.52299 8.86625C8.46599 8.92475 9.14399 9.59725 9.21049 10.5392C9.22599 10.7547 9.14749 10.9667 8.99499 11.1202C8.85349 11.2627 8.66199 11.3422 8.46249 11.3422C8.44699 11.3422 8.43149 11.3417 8.41599 11.3407C7.47299 11.2822 6.79499 10.6097 6.72849 9.66775C6.71299 9.45225 6.79149 9.24025 6.94399 9.08675ZM7.47649 9.61475C8.03749 9.64975 8.42249 10.0317 8.46199 10.5922C7.90099 10.5572 7.51599 10.1752 7.47649 9.61475Z" fill="#EEF3F5"/>
<path fill-rule="evenodd" clip-rule="evenodd" d="M8.96163 7.35596C9.30713 7.05596 9.71613 6.89746 10.1446 6.89746C10.5781 6.89746 10.9906 7.05946 11.3376 7.36596C11.4996 7.50896 11.5921 7.71546 11.5911 7.93146C11.5901 8.14796 11.4961 8.35346 11.3326 8.49496C10.9871 8.79496 10.5781 8.95346 10.1496 8.95346C9.71613 8.95346 9.30363 8.79146 8.95663 8.48496C8.79463 8.34196 8.70213 8.13546 8.70313 7.91946C8.70413 7.70296 8.79813 7.49746 8.96163 7.35596ZM10.8416 7.92796C10.6296 7.74096 10.3871 7.64746 10.1446 7.64746C9.90463 7.64746 9.66413 7.73896 9.45313 7.92246C9.66513 8.10946 9.90763 8.20296 10.1501 8.20296C10.3901 8.20296 10.6306 8.11096 10.8416 7.92796Z" fill="#EEF3F5"/>
<path fill-rule="evenodd" clip-rule="evenodd" d="M10.9338 3.49615C10.9538 3.49465 10.9738 3.49365 10.9938 3.49365C11.1883 3.49365 11.3763 3.56915 11.5168 3.70615C11.6718 3.85665 11.7543 4.06715 11.7428 4.28315C11.6923 5.23415 11.0208 5.92365 10.0718 5.99965C10.0518 6.00115 10.0318 6.00215 10.0118 6.00215C9.81728 6.00215 9.62928 5.92665 9.48878 5.78965C9.33378 5.63915 9.25128 5.42865 9.26278 5.21265C9.31328 4.26165 9.98478 3.57215 10.9338 3.49615ZM10.9938 4.24365C10.9638 4.81265 10.5798 5.20665 10.0118 5.25215C10.0418 4.68315 10.4258 4.28915 10.9938 4.24365Z" fill="#EEF3F5"/>
<path fill-rule="evenodd" clip-rule="evenodd" d="M8.84486 0.658203H8.84786C9.06286 0.658203 9.26786 0.750703 9.41036 0.911703C10.0504 1.6367 10.0544 2.6142 9.42036 3.3447C9.27836 3.5082 9.07286 3.6022 8.85686 3.6032H8.85386C8.63836 3.6032 8.43386 3.5112 8.29136 3.3497C7.65136 2.6247 7.64736 1.6472 8.28136 0.916703C8.42336 0.753203 8.62886 0.659203 8.84486 0.658203ZM8.84786 1.4082C9.23486 1.8467 9.23736 2.4117 8.85386 2.8532C8.46686 2.4147 8.46436 1.8502 8.84786 1.4082Z" fill="#EEF3F5"/>
</svg>
