<svg xmlns="http://www.w3.org/2000/svg" width="14" height="12" viewBox="0 0 14 12" fill="none">
    <path fill-rule="evenodd" clip-rule="evenodd" d="M6.99959 7.01149L7.87708 7.47249C8.04808 7.56249 8.24758 7.41699 8.21508 7.22699L8.04759 6.24999L8.75758 5.55849C8.89608 5.42399 8.81958 5.18899 8.62858 5.16149L7.64758 5.01899L7.20908 4.12999C7.12359 3.95699 6.87659 3.95699 6.79158 4.12999L6.35309 5.01949L5.37209 5.16199C5.18109 5.18999 5.10459 5.42449 5.24309 5.55899L5.95309 6.25049L5.78509 7.22749C5.75259 7.41749 5.95209 7.56249 6.12309 7.47299L7.00058 7.01199" fill="#FCFDFB"/>
    <path d="M6.99959 7.01149L7.87709 7.47249C8.04809 7.56249 8.24758 7.41699 8.21508 7.22699L8.04759 6.24999L8.75758 5.55849C8.89608 5.42399 8.81958 5.18899 8.62858 5.16149L7.64759 5.01899L7.20909 4.12999C7.12359 3.95699 6.87658 3.95699 6.79158 4.12999L6.35309 5.01949L5.37209 5.16199C5.18109 5.18999 5.10459 5.42449 5.24309 5.55899L5.95309 6.25049L5.78509 7.22749C5.75259 7.41749 5.95209 7.56249 6.12309 7.47299L7.00058 7.01199" stroke="#FCFDFB" stroke-linecap="round" stroke-linejoin="round"/>
    <path fill-rule="evenodd" clip-rule="evenodd" d="M5.4774 8.86631C5.4929 8.86531 5.5084 8.86481 5.5239 8.86481C5.7234 8.86481 5.9154 8.94431 6.0564 9.08681C6.2084 9.24031 6.2869 9.45231 6.2719 9.66781C6.2049 10.6098 5.5269 11.2823 4.5844 11.3408C4.5689 11.3418 4.5534 11.3423 4.5379 11.3423C4.3384 11.3423 4.1464 11.2628 4.0054 11.1203C3.8534 10.9668 3.7749 10.7548 3.7899 10.5393C3.8569 9.59731 4.5349 8.92481 5.4774 8.86631ZM5.5239 9.61481C5.4844 10.1753 5.0994 10.5573 4.5384 10.5923C4.5779 10.0313 4.9629 9.64981 5.5239 9.61481Z" fill="#FCFDFB"/>
    <path d="M5.4774 8.86631L5.50838 9.36535L5.50959 9.36527L5.4774 8.86631ZM6.0564 9.08681L5.70098 9.43849L5.70112 9.43862L6.0564 9.08681ZM6.2719 9.66781L6.77064 9.70328L6.77069 9.70253L6.2719 9.66781ZM4.5844 11.3408L4.55343 10.8418L4.55221 10.8418L4.5844 11.3408ZM4.0054 11.1203L4.36082 10.7686L4.36069 10.7685L4.0054 11.1203ZM3.7899 10.5393L3.29116 10.5038L3.29111 10.5046L3.7899 10.5393ZM5.5239 9.61481L6.02266 9.64996L6.06282 9.08021L5.49277 9.11578L5.5239 9.61481ZM4.5384 10.5923L4.03964 10.5572L3.99952 11.1269L4.56953 11.0913L4.5384 10.5923ZM5.5239 8.36481C5.49764 8.36481 5.4714 8.36565 5.44521 8.36734L5.50959 9.36527C5.5144 9.36496 5.51916 9.36481 5.5239 9.36481V8.36481ZM6.41182 8.73513C6.1764 8.4972 5.85621 8.36481 5.5239 8.36481V9.36481C5.5906 9.36481 5.6544 9.39141 5.70098 9.43848L6.41182 8.73513ZM6.77069 9.70253C6.79566 9.34388 6.66513 8.99094 6.41169 8.73499L5.70112 9.43862C5.75167 9.48967 5.77814 9.56074 5.77311 9.63309L6.77069 9.70253ZM4.61538 11.8398C5.80814 11.7658 6.68588 10.8949 6.77064 9.70328L5.77316 9.63233C5.72392 10.3247 5.24566 10.7988 4.55343 10.8418L4.61538 11.8398ZM4.5379 11.8423C4.56416 11.8423 4.5904 11.8415 4.61659 11.8398L4.55221 10.8418C4.54741 10.8422 4.54264 10.8423 4.5379 10.8423V11.8423ZM3.64998 11.472C3.8854 11.7099 4.2056 11.8423 4.5379 11.8423V10.8423C4.47121 10.8423 4.4074 10.8157 4.36082 10.7686L3.64998 11.472ZM3.29111 10.5046C3.26614 10.8632 3.39667 11.2162 3.65012 11.4721L4.36069 10.7685C4.31013 10.7174 4.28366 10.6464 4.28869 10.574L3.29111 10.5046ZM5.44643 8.36727C4.25366 8.4413 3.37592 9.31218 3.29116 10.5038L4.28864 10.5748C4.33788 9.88243 4.81614 9.40831 5.50838 9.36535L5.44643 8.36727ZM5.02514 9.57966C5.01302 9.75164 4.95133 9.86951 4.87459 9.94564C4.79784 10.0218 4.67945 10.0825 4.50727 10.0933L4.56953 11.0913C4.95836 11.0671 5.31296 10.9193 5.57884 10.6556C5.84472 10.3919 5.99528 10.0385 6.02266 9.64996L5.02514 9.57966ZM5.03717 10.6274C5.0493 10.4551 5.11102 10.3373 5.18765 10.2613C5.26431 10.1853 5.38268 10.1246 5.55503 10.1138L5.49277 9.11578C5.10412 9.14002 4.7495 9.28753 4.48353 9.55127C4.21754 9.81503 4.06701 10.1685 4.03964 10.5572L5.03717 10.6274Z" fill="#FCFDFB"/>
    <path fill-rule="evenodd" clip-rule="evenodd" d="M1.66269 7.36602C2.00969 7.05952 2.42269 6.89752 2.85619 6.89752C3.28469 6.89752 3.69369 7.05602 4.03869 7.35602C4.20219 7.49802 4.29619 7.70352 4.29719 7.91952C4.29819 8.13602 4.20569 8.34202 4.04369 8.48502C3.69669 8.79152 3.28419 8.95352 2.85069 8.95352C2.42219 8.95352 2.01319 8.79502 1.66769 8.49502C1.50419 8.35302 1.41019 8.14752 1.40919 7.93152C1.40819 7.71502 1.50069 7.50902 1.66269 7.36602ZM3.54768 7.92252C3.33668 7.73902 3.09618 7.64752 2.85618 7.64752C2.61368 7.64752 2.37118 7.74102 2.15918 7.92802C2.37018 8.11152 2.61068 8.20302 2.85068 8.20302C3.09318 8.20302 3.33568 8.10952 3.54768 7.92252Z" fill="#FCFDFB"/>
    <path d="M1.66269 7.36602L1.99358 7.74087L1.99369 7.74077L1.66269 7.36602ZM4.03869 7.35602L3.7106 7.73332L3.71083 7.73352L4.03869 7.35602ZM4.29719 7.91952L4.79718 7.91721V7.91721L4.29719 7.91952ZM4.04369 8.48502L3.7128 8.11017L3.71268 8.11028L4.04369 8.48502ZM1.66769 8.49502L1.33983 8.87252L1.33987 8.87256L1.66769 8.49502ZM1.40919 7.93152L0.909193 7.93383L0.909193 7.93384L1.40919 7.93152ZM3.54768 7.92252L3.87843 8.29749L4.30655 7.91986L3.87579 7.54524L3.54768 7.92252ZM2.15918 7.92802L1.82843 7.55305L1.40031 7.93069L1.83107 8.30531L2.15918 7.92802ZM2.85619 6.39752C2.29218 6.39752 1.76341 6.60994 1.33168 6.99128L1.99369 7.74077C2.25597 7.50911 2.55319 7.39752 2.85619 7.39752V6.39752ZM4.36678 6.97872C3.93732 6.60528 3.41365 6.39752 2.85619 6.39752V7.39752C3.15572 7.39752 3.45006 7.50677 3.7106 7.73332L4.36678 6.97872ZM4.79718 7.91721C4.79552 7.55744 4.63897 7.21512 4.36655 6.97852L3.71083 7.73352C3.76541 7.78093 3.79686 7.84961 3.79719 7.92184L4.79718 7.91721ZM4.37458 8.85987C4.64465 8.62147 4.79885 8.278 4.79718 7.91721L3.79719 7.92183C3.79753 7.99404 3.76672 8.06257 3.7128 8.11017L4.37458 8.85987ZM2.85069 9.45352C3.41484 9.45352 3.94308 9.241 4.3747 8.85977L3.71268 8.11028C3.45029 8.34204 3.15354 8.45352 2.85069 8.45352V9.45352ZM1.33987 8.87256C1.76965 9.24574 2.29317 9.45352 2.85069 9.45352V8.45352C2.5512 8.45352 2.25673 8.34431 1.99551 8.11748L1.33987 8.87256ZM0.909193 7.93384C0.910859 8.29361 1.06741 8.63593 1.33983 8.87252L1.99555 8.11752C1.94097 8.07012 1.90952 8.00144 1.90918 7.92921L0.909193 7.93384ZM1.3318 6.99117C1.06172 7.22957 0.907527 7.57304 0.909193 7.93383L1.90918 7.92921C1.90885 7.857 1.93965 7.78847 1.99358 7.74087L1.3318 6.99117ZM2.85618 8.14752C2.96392 8.14752 3.09036 8.18743 3.21957 8.29981L3.87579 7.54524C3.583 7.29061 3.22843 7.14752 2.85618 7.14752V8.14752ZM2.48993 8.30299C2.62013 8.18815 2.74762 8.14752 2.85618 8.14752V7.14752C2.47974 7.14752 2.12223 7.29389 1.82843 7.55305L2.48993 8.30299ZM2.85068 7.70302C2.74293 7.70302 2.6165 7.66311 2.48729 7.55074L1.83107 8.30531C2.12386 8.55993 2.47842 8.70302 2.85068 8.70302V7.70302ZM3.21693 7.54755C3.08673 7.66239 2.95924 7.70302 2.85068 7.70302V8.70302C3.22712 8.70302 3.58463 8.55665 3.87843 8.29749L3.21693 7.54755Z" fill="#FCFDFB"/>
    <path fill-rule="evenodd" clip-rule="evenodd" d="M1.48211 3.70603C1.62261 3.56953 1.81061 3.49353 2.00511 3.49353C2.02511 3.49353 2.04511 3.49403 2.06511 3.49603C3.01411 3.57153 3.68561 4.26153 3.73611 5.21253C3.74711 5.42853 3.66511 5.63853 3.51011 5.78953C3.36961 5.92603 3.18161 6.00203 2.98711 6.00203C2.96711 6.00203 2.94711 6.00103 2.92711 5.99953C1.97811 5.92353 1.30661 5.23403 1.25611 4.28303C1.24511 4.06703 1.32711 3.85703 1.48211 3.70603ZM2.00511 4.24353C2.57311 4.28903 2.95661 4.68303 2.98711 5.25203C2.41911 5.20653 2.03561 4.81253 2.00511 4.24353Z" fill="#FCFDFB"/>
    <path d="M1.48211 3.70603L1.1337 3.34741L1.13321 3.34789L1.48211 3.70603ZM2.06511 3.49603L2.01535 3.99365L2.02545 3.99446L2.06511 3.49603ZM3.73611 5.21253L4.23546 5.1871L4.2354 5.18602L3.73611 5.21253ZM3.51011 5.78953L3.85852 6.14815L3.85901 6.14767L3.51011 5.78953ZM2.92711 5.99953L2.88719 6.49794L2.88971 6.49813L2.92711 5.99953ZM1.25611 4.28303L0.756753 4.30846L0.75681 4.30954L1.25611 4.28303ZM2.00511 4.24353L2.04503 3.74513L1.47523 3.69948L1.50582 4.27029L2.00511 4.24353ZM2.98711 5.25203L2.94718 5.75043L3.51699 5.79608L3.48639 5.22527L2.98711 5.25203ZM2.00511 2.99353C1.68051 2.99353 1.36752 3.12024 1.1337 3.34741L1.83052 4.06465C1.87769 4.01882 1.94071 3.99353 2.00511 3.99353V2.99353ZM2.11486 2.99851C2.07114 2.99414 2.03246 2.99353 2.00511 2.99353V3.99353C2.01111 3.99353 2.01452 3.99361 2.01637 3.99368C2.01814 3.99375 2.01759 3.99377 2.01536 3.99355L2.11486 2.99851ZM4.2354 5.18602C4.17163 3.98502 3.30386 3.093 2.10476 2.99761L2.02545 3.99446C2.72435 4.05006 3.19959 4.53804 3.23681 5.23904L4.2354 5.18602ZM3.85901 6.14767C4.11735 5.896 4.25374 5.54608 4.23546 5.1871L3.23675 5.23796C3.24047 5.31098 3.21286 5.38106 3.16121 5.43139L3.85901 6.14767ZM2.98711 6.50203C3.31171 6.50203 3.62469 6.37532 3.85852 6.14815L3.1617 5.43091C3.11452 5.47674 3.05151 5.50203 2.98711 5.50203V6.50203ZM2.88971 6.49813C2.91762 6.50022 2.95078 6.50203 2.98711 6.50203V5.50203C2.98343 5.50203 2.9766 5.50184 2.9645 5.50093L2.88971 6.49813ZM0.75681 4.30954C0.820598 5.51077 1.68852 6.40194 2.88719 6.49793L2.96702 5.50113C2.26769 5.44512 1.79262 4.95729 1.7554 4.25652L0.75681 4.30954ZM1.13321 3.34789C0.874859 3.59956 0.738472 3.94948 0.756754 4.30846L1.75546 4.2576C1.75174 4.18458 1.77935 4.1145 1.83101 4.06417L1.13321 3.34789ZM1.96518 4.74193C2.14101 4.75602 2.26161 4.82034 2.33942 4.90026C2.41725 4.9802 2.47838 5.10255 2.48782 5.27879L3.48639 5.22527C3.46534 4.83251 3.31947 4.47336 3.05592 4.20267C2.79235 3.93197 2.4372 3.77654 2.04503 3.74513L1.96518 4.74193ZM3.02703 4.75363C2.8512 4.73954 2.7306 4.67522 2.65279 4.5953C2.57497 4.51536 2.51384 4.39301 2.50439 4.21677L1.50582 4.27029C1.52688 4.66305 1.67275 5.0222 1.9363 5.29289C2.19986 5.56359 2.55501 5.71902 2.94718 5.75043L3.02703 4.75363Z" fill="#FCFDFB"/>
    <path fill-rule="evenodd" clip-rule="evenodd" d="M3.59019 0.91152C3.73269 0.75052 3.93769 0.65802 4.15269 0.65802H4.15569C4.37169 0.65902 4.57719 0.75302 4.71919 0.91702C5.35319 1.64702 5.34919 2.62502 4.70919 3.35002C4.56669 3.51102 4.36169 3.60352 4.14669 3.60352H4.14369C3.92719 3.60252 3.72219 3.50852 3.58019 3.34502C2.94619 2.61502 2.95019 1.63702 3.59019 0.91152ZM4.15269 1.40802C4.53619 1.85002 4.53369 2.41452 4.14669 2.85352C3.76319 2.41152 3.76519 1.84702 4.15269 1.40802Z" fill="#FCFDFB"/>
    <path d="M3.59019 0.91152L3.21578 0.580132L3.21523 0.580752L3.59019 0.91152ZM4.15569 0.65802L4.158 0.15802H4.15569V0.65802ZM4.71919 0.91702L4.34119 1.24431L4.34168 1.24488L4.71919 0.91702ZM4.70919 3.35002L5.0836 3.68141L5.08403 3.68092L4.70919 3.35002ZM4.14369 3.60352L4.14138 4.10352H4.14369V3.60352ZM3.58019 3.34502L3.20268 3.67288L3.20268 3.67288L3.58019 3.34502ZM4.15269 1.40802L4.53035 1.08034L4.15592 0.648799L3.77783 1.07714L4.15269 1.40802ZM4.14669 2.85352L3.76903 3.1812L4.1437 3.61302L4.52175 3.18416L4.14669 2.85352ZM4.15269 0.15802C3.79421 0.15802 3.45299 0.312124 3.21578 0.580133L3.9646 1.24291C4.01238 1.18892 4.08116 1.15802 4.15269 1.15802V0.15802ZM4.15569 0.15802H4.15269V1.15802H4.15569V0.15802ZM5.09718 0.58973C4.86047 0.316347 4.51787 0.159691 4.158 0.158025L4.15337 1.15801C4.2255 1.15835 4.2939 1.18969 4.34119 1.24431L5.09718 0.58973ZM5.08403 3.68092C5.88985 2.76807 5.89506 1.50843 5.09669 0.589161L4.34168 1.24488C4.81131 1.78561 4.80852 2.48197 4.33434 3.01912L5.08403 3.68092ZM4.14669 4.10352C4.50516 4.10352 4.84638 3.94942 5.0836 3.68141L4.33478 3.01863C4.28699 3.07262 4.21821 3.10352 4.14669 3.10352V4.10352ZM4.14369 4.10352H4.14669V3.10352H4.14369V4.10352ZM3.20268 3.67288C3.43916 3.94516 3.78092 4.10185 4.14138 4.10351L4.146 3.10353C4.07345 3.10319 4.00521 3.07188 3.95769 3.01716L3.20268 3.67288ZM3.21523 0.580752C2.40962 1.49399 2.40425 2.75355 3.20268 3.67288L3.95769 3.01716C3.48812 2.47649 3.49075 1.78005 3.96514 1.24229L3.21523 0.580752ZM3.77503 1.7357C3.89566 1.87474 3.93913 2.01169 3.93863 2.12978C3.93813 2.24791 3.89348 2.38465 3.77162 2.52288L4.52175 3.18416C4.7869 2.88339 4.93699 2.51838 4.93862 2.13401C4.94025 1.7496 4.79321 1.3833 4.53035 1.08034L3.77503 1.7357ZM4.52435 2.52584C4.40361 2.38669 4.36009 2.24966 4.36056 2.13164C4.36103 2.01365 4.4056 1.87705 4.52754 1.7389L3.77783 1.07714C3.51227 1.37799 3.3621 1.74314 3.36057 2.12765C3.35903 2.51213 3.50626 2.87835 3.76903 3.1812L4.52435 2.52584Z" fill="#FCFDFB"/>
    <path fill-rule="evenodd" clip-rule="evenodd" d="M7.9435 9.0865C8.085 8.944 8.2765 8.8645 8.476 8.8645C8.4915 8.8645 8.507 8.865 8.5225 8.866C9.4655 8.9245 10.1435 9.597 10.21 10.539C10.2255 10.7545 10.147 10.9665 9.9945 11.12C9.853 11.2625 9.6615 11.342 9.462 11.342C9.4465 11.342 9.431 11.3415 9.4155 11.3405C8.4725 11.282 7.7945 10.6095 7.728 9.6675C7.7125 9.452 7.791 9.24 7.9435 9.0865ZM8.476 9.6145C9.037 9.6495 9.422 10.0315 9.4615 10.592C8.9005 10.557 8.5155 10.175 8.476 9.6145Z" fill="#FCFDFB"/>
    <path d="M7.9435 9.0865L8.29821 9.4389L8.2983 9.43881L7.9435 9.0865ZM8.5225 8.866L8.49031 9.36497L8.49154 9.36504L8.5225 8.866ZM10.21 10.539L9.71124 10.5742L9.71129 10.5749L10.21 10.539ZM9.9945 11.12L9.6398 10.7676L9.63971 10.7677L9.9945 11.12ZM9.4155 11.3405L9.44769 10.8415L9.44646 10.8415L9.4155 11.3405ZM7.728 9.6675L8.22676 9.63229L8.22671 9.63163L7.728 9.6675ZM8.476 9.6145L8.50714 9.11547L7.93709 9.07991L7.97724 9.64965L8.476 9.6145ZM9.4615 10.592L9.43037 11.091L10.0004 11.1266L9.96027 10.5569L9.4615 10.592ZM8.476 8.3645C8.14319 8.3645 7.824 8.49723 7.58871 8.7342L8.2983 9.43881C8.346 9.39077 8.40982 9.3645 8.476 9.3645V8.3645ZM8.55469 8.36704C8.5285 8.36535 8.50226 8.3645 8.476 8.3645V9.3645C8.48074 9.3645 8.48551 9.36465 8.49031 9.36496L8.55469 8.36704ZM10.7088 10.5038C10.6246 9.3118 9.74662 8.44098 8.55346 8.36696L8.49154 9.36504C9.18439 9.40802 9.66239 9.8822 9.71124 10.5742L10.7088 10.5038ZM10.3492 11.4724C10.6036 11.2163 10.7346 10.8627 10.7087 10.5031L9.71129 10.5749C9.71643 10.6463 9.69037 10.7167 9.6398 10.7676L10.3492 11.4724ZM9.462 11.842C9.79482 11.842 10.114 11.7093 10.3493 11.4723L9.63971 10.7677C9.59201 10.8157 9.52819 10.842 9.462 10.842V11.842ZM9.38331 11.8395C9.40951 11.8412 9.43574 11.842 9.462 11.842V10.842C9.45726 10.842 9.4525 10.8418 9.44769 10.8415L9.38331 11.8395ZM7.22924 9.70271C7.31339 10.8947 8.19139 11.7655 9.38454 11.8395L9.44646 10.8415C8.75362 10.7985 8.27561 10.3243 8.22676 9.63229L7.22924 9.70271ZM7.5888 8.73411C7.33437 8.9902 7.20343 9.34382 7.22929 9.70337L8.22671 9.63163C8.22158 9.56019 8.24764 9.4898 8.29821 9.4389L7.5888 8.73411ZM8.44487 10.1135C8.61705 10.1243 8.73544 10.185 8.81219 10.2612C8.88894 10.3373 8.95062 10.4552 8.96274 10.6272L9.96027 10.5569C9.93289 10.1683 9.78232 9.81496 9.51644 9.55122C9.25056 9.28747 8.89596 9.13973 8.50714 9.11547L8.44487 10.1135ZM9.49264 10.093C9.32046 10.0822 9.20206 10.0215 9.12532 9.94534C9.04857 9.86921 8.98689 9.75133 8.97477 9.57935L7.97724 9.64965C8.00462 10.0382 8.15519 10.3915 8.42106 10.6553C8.68694 10.919 9.04155 11.0668 9.43037 11.091L9.49264 10.093Z" fill="#FCFDFB"/>
    <path fill-rule="evenodd" clip-rule="evenodd" d="M9.96114 7.35602C10.3066 7.05602 10.7156 6.89752 11.1441 6.89752C11.5776 6.89752 11.9901 7.05952 12.3371 7.36602C12.4991 7.50902 12.5916 7.71552 12.5906 7.93152C12.5896 8.14802 12.4956 8.35352 12.3321 8.49502C11.9866 8.79502 11.5776 8.95352 11.1491 8.95352C10.7156 8.95352 10.3031 8.79152 9.95614 8.48502C9.79414 8.34202 9.70164 8.13552 9.70264 7.91952C9.70364 7.70302 9.79764 7.49752 9.96114 7.35602ZM11.8411 7.92802C11.6291 7.74102 11.3866 7.64752 11.1441 7.64752C10.9041 7.64752 10.6636 7.73902 10.4526 7.92252C10.6646 8.10952 10.9071 8.20302 11.1496 8.20302C11.3896 8.20302 11.6301 8.11102 11.8411 7.92802Z" fill="#FCFDFB"/>
    <path d="M9.96114 7.35602L10.2883 7.7341L10.289 7.73356L9.96114 7.35602ZM12.3371 7.36602L12.0061 7.74077L12.0063 7.74087L12.3371 7.36602ZM12.5906 7.93152L12.0907 7.92921V7.92921L12.5906 7.93152ZM12.3321 8.49502L12.0049 8.11695L12.0043 8.11748L12.3321 8.49502ZM9.95614 8.48502L10.2872 8.11028L10.287 8.11017L9.95614 8.48502ZM9.70264 7.91952L10.2026 7.92184V7.92183L9.70264 7.91952ZM11.8411 7.92802L12.1687 8.30575L12.6006 7.9312L12.1719 7.55305L11.8411 7.92802ZM10.4526 7.92252L10.1245 7.54524L9.69377 7.91986L10.1219 8.29749L10.4526 7.92252ZM11.1441 6.39752C10.5866 6.39752 10.0631 6.60531 9.63333 6.97848L10.289 7.73356C10.5502 7.50674 10.8447 7.39752 11.1441 7.39752V6.39752ZM12.6682 6.99128C12.2365 6.61004 11.7083 6.39752 11.1441 6.39752V7.39752C11.447 7.39752 11.7437 7.509 12.0061 7.74077L12.6682 6.99128ZM13.0906 7.93384C13.0923 7.57372 12.9382 7.22969 12.668 6.99117L12.0063 7.74087C12.06 7.78835 12.091 7.85733 12.0907 7.92921L13.0906 7.93384ZM12.6593 8.8731C12.9326 8.63657 13.089 8.29377 13.0906 7.93383L12.0907 7.92921C12.0903 8.00227 12.0586 8.07047 12.0049 8.11695L12.6593 8.8731ZM11.1491 9.45352C11.7067 9.45352 12.2302 9.24574 12.66 8.87256L12.0043 8.11748C11.7431 8.34431 11.4486 8.45352 11.1491 8.45352V9.45352ZM9.62514 8.85977C10.0567 9.241 10.585 9.45352 11.1491 9.45352V8.45352C10.8463 8.45352 10.5495 8.34204 10.2872 8.11028L9.62514 8.85977ZM9.20265 7.91721C9.20098 8.27733 9.35505 8.62135 9.62526 8.85987L10.287 8.11017C10.2332 8.06269 10.2023 7.99372 10.2026 7.92184L9.20265 7.91721ZM9.63394 6.97795C9.36065 7.21447 9.20431 7.55727 9.20265 7.91721L10.2026 7.92183C10.203 7.84877 10.2346 7.78057 10.2883 7.7341L9.63394 6.97795ZM11.1441 8.14752C11.2527 8.14752 11.3802 8.18815 11.5104 8.30299L12.1719 7.55305C11.8781 7.29389 11.5206 7.14752 11.1441 7.14752V8.14752ZM10.7807 8.29981C10.91 8.18743 11.0364 8.14752 11.1441 8.14752V7.14752C10.7719 7.14752 10.4173 7.29061 10.1245 7.54524L10.7807 8.29981ZM11.1496 7.70302C11.0411 7.70302 10.9136 7.66239 10.7834 7.54755L10.1219 8.29749C10.4157 8.55665 10.7732 8.70302 11.1496 8.70302V7.70302ZM11.5135 7.5503C11.3836 7.66298 11.2568 7.70302 11.1496 7.70302V8.70302C11.5224 8.70302 11.8767 8.55906 12.1687 8.30575L11.5135 7.5503Z" fill="#FCFDFB"/>
    <path fill-rule="evenodd" clip-rule="evenodd" d="M11.935 3.49603C11.955 3.49453 11.975 3.49353 11.995 3.49353C12.1895 3.49353 12.3775 3.56903 12.518 3.70603C12.673 3.85653 12.7555 4.06703 12.744 4.28303C12.6935 5.23403 12.022 5.92353 11.073 5.99953C11.053 6.00103 11.033 6.00203 11.013 6.00203C10.8185 6.00203 10.6305 5.92653 10.49 5.78953C10.335 5.63903 10.2525 5.42853 10.264 5.21253C10.3145 4.26153 10.986 3.57203 11.935 3.49603ZM11.995 4.24353C11.965 4.81253 11.581 5.20653 11.013 5.25203C11.043 4.68303 11.427 4.28903 11.995 4.24353Z" fill="#FCFDFB"/>
    <path d="M11.935 3.49603L11.8976 2.99742L11.8951 2.99763L11.935 3.49603ZM12.518 3.70603L12.1689 4.06402L12.1697 4.06475L12.518 3.70603ZM12.744 4.28303L12.2447 4.25645L12.2447 4.25652L12.744 4.28303ZM11.073 5.99953L11.1104 6.49814L11.1129 6.49793L11.073 5.99953ZM10.49 5.78953L10.8391 5.43154L10.8383 5.43081L10.49 5.78953ZM10.264 5.21253L10.7633 5.23911L10.7633 5.23904L10.264 5.21253ZM11.995 4.24353L12.4943 4.26986L12.5244 3.69952L11.9551 3.74513L11.995 4.24353ZM11.013 5.25203L10.5137 5.2257L10.4836 5.79604L11.0529 5.75043L11.013 5.25203ZM11.995 2.99353C11.9587 2.99353 11.9255 2.99534 11.8976 2.99743L11.9724 3.99463C11.9845 3.99372 11.9913 3.99353 11.995 3.99353V2.99353ZM12.8671 3.34805C12.6324 3.11923 12.3188 2.99353 11.995 2.99353V3.99353C12.0602 3.99353 12.1226 4.01884 12.1689 4.06401L12.8671 3.34805ZM13.2433 4.30961C13.2625 3.94947 13.125 3.59846 12.8663 3.34731L12.1697 4.06475C12.221 4.1146 12.2485 4.18459 12.2447 4.25645L13.2433 4.30961ZM11.1129 6.49793C12.3116 6.40194 13.1795 5.51077 13.2433 4.30954L12.2447 4.25652C12.2075 4.95729 11.7324 5.44512 11.0331 5.50113L11.1129 6.49793ZM11.013 6.50203C11.0493 6.50203 11.0825 6.50022 11.1104 6.49813L11.0356 5.50093C11.0235 5.50184 11.0167 5.50203 11.013 5.50203V6.50203ZM10.1409 6.14751C10.3756 6.37633 10.6892 6.50203 11.013 6.50203V5.50203C10.9478 5.50203 10.8854 5.47673 10.8391 5.43155L10.1409 6.14751ZM9.76471 5.18595C9.74553 5.54609 9.88303 5.8971 10.1417 6.14825L10.8383 5.43081C10.787 5.38096 10.7595 5.31097 10.7633 5.23911L9.76471 5.18595ZM11.8951 2.99763C10.6964 3.09362 9.82849 3.98479 9.7647 5.18602L10.7633 5.23904C10.8005 4.53827 11.2756 4.05044 11.9749 3.99443L11.8951 2.99763ZM11.4957 4.2172C11.4864 4.39313 11.4254 4.51533 11.3476 4.59523C11.2697 4.67517 11.149 4.73954 10.9731 4.75363L11.0529 5.75043C11.445 5.71902 11.8003 5.56364 12.0639 5.29295C12.3276 5.02223 12.4736 4.66293 12.4943 4.26986L11.4957 4.2172ZM11.5123 5.27836C11.5216 5.10243 11.5826 4.98023 11.6604 4.90033C11.7383 4.82039 11.859 4.75602 12.0349 4.74193L11.9551 3.74513C11.563 3.77654 11.2077 3.93192 10.9441 4.20261C10.6804 4.47333 10.5344 4.83263 10.5137 5.2257L11.5123 5.27836Z" fill="#FCFDFB"/>
    <path fill-rule="evenodd" clip-rule="evenodd" d="M9.84461 0.65802H9.84761C10.0626 0.65802 10.2676 0.75052 10.4101 0.91152C11.0501 1.63652 11.0541 2.61402 10.4201 3.34452C10.2781 3.50802 10.0726 3.60202 9.85661 3.60302H9.85361C9.63811 3.60302 9.43361 3.51102 9.29111 3.34952C8.65111 2.62452 8.64711 1.64702 9.28111 0.91652C9.42311 0.75302 9.62861 0.65902 9.84461 0.65802ZM9.84761 1.40802C10.2346 1.84652 10.2371 2.41152 9.85361 2.85302C9.46661 2.41452 9.46411 1.85002 9.84761 1.40802Z" fill="#FCFDFB"/>
    <path d="M9.84461 0.65802V0.158015L9.8423 0.158025L9.84461 0.65802ZM10.4101 0.91152L10.785 0.580623L10.7845 0.580133L10.4101 0.91152ZM10.4201 3.34452L10.7976 3.67238L10.7977 3.67225L10.4201 3.34452ZM9.85661 3.60302V4.10303L9.85893 4.10301L9.85661 3.60302ZM9.29111 3.34952L9.66603 3.01871L9.66596 3.01862L9.29111 3.34952ZM9.28111 0.91652L8.90361 0.588659L8.9035 0.588789L9.28111 0.91652ZM9.84761 1.40802L10.2225 1.07717L9.84441 0.648766L9.46995 1.08034L9.84761 1.40802ZM9.85361 2.85302L9.47873 3.18387L9.85661 3.61203L10.2311 3.18091L9.85361 2.85302ZM9.84761 0.15802H9.84461V1.15802H9.84761V0.15802ZM10.7845 0.580133C10.5473 0.312124 10.2061 0.15802 9.84761 0.15802V1.15802C9.91914 1.15802 9.98792 1.18892 10.0357 1.24291L10.7845 0.580133ZM10.7977 3.67225C11.5959 2.75259 11.5908 1.49353 10.785 0.580624L10.0353 1.24242C10.5094 1.77951 10.5123 2.47545 10.0425 3.01679L10.7977 3.67225ZM9.85893 4.10301C10.2187 4.10135 10.561 3.9448 10.7976 3.67238L10.0426 3.01666C9.99521 3.07124 9.92653 3.10269 9.8543 3.10303L9.85893 4.10301ZM9.85361 4.10302H9.85661V3.10302H9.85361V4.10302ZM8.9162 3.68033C9.15394 3.94977 9.49515 4.10302 9.85361 4.10302V3.10302C9.78108 3.10302 9.71329 3.07227 9.66603 3.01871L8.9162 3.68033ZM8.9035 0.588789C8.10533 1.50845 8.1104 2.76751 8.91627 3.68042L9.66596 3.01862C9.19183 2.48153 9.1889 1.78559 9.65873 1.24425L8.9035 0.588789ZM9.8423 0.158025C9.48253 0.159691 9.14021 0.316239 8.90361 0.588659L9.65862 1.24438C9.70602 1.1898 9.7747 1.15835 9.84693 1.15801L9.8423 0.158025ZM9.47273 1.73887C9.59438 1.87671 9.63906 2.01335 9.63956 2.13151C9.64006 2.24963 9.59657 2.38648 9.47614 2.52513L10.2311 3.18091C10.4942 2.87806 10.6412 2.51166 10.6395 2.12728C10.6379 1.74294 10.4878 1.37783 10.2225 1.07717L9.47273 1.73887ZM10.2285 2.52217C10.1068 2.38426 10.0622 2.24774 10.0617 2.12972C10.0612 2.0117 10.1046 1.87475 10.2253 1.7357L9.46995 1.08034C9.2071 1.38329 9.06006 1.74959 9.06168 2.13395C9.06331 2.5183 9.21344 2.88328 9.47873 3.18387L10.2285 2.52217Z" fill="#FCFDFB"/>
</svg>