<svg width="24" height="24" viewBox="0 0 24 24" fill="none" xmlns="http://www.w3.org/2000/svg">
<path d="M11.1834 1C11.5943 1.16072 11.9894 1.38335 12.3474 1.63563C12.4624 2.11844 12.6632 2.63222 12.4895 3.12623C12.3415 3.26257 12.1407 3.31856 11.9623 3.40222C11.9834 3.59257 12.0145 3.78162 12.0442 3.97066C12.3811 3.94234 12.7082 3.85407 13.0391 3.79018C13.0847 3.59389 13.096 3.38048 13.2208 3.21383C13.2479 3.34689 13.2697 3.48126 13.2869 3.61629C13.4639 3.71904 13.6357 3.86461 13.8557 3.84156C15.2431 3.84287 16.6311 3.8376 18.0178 3.84222C18.1704 3.83036 18.2431 3.99174 18.3481 4.07473C18.3514 3.78096 18.3501 3.48719 18.3633 3.19341C18.4043 3.19473 18.4862 3.19605 18.5272 3.19671C18.5358 3.45491 18.508 3.7197 18.58 3.97132C18.6573 3.9891 18.7366 3.99437 18.8165 4.00425C18.8205 4.10503 18.8238 4.20581 18.8298 4.30725C19.2559 4.31976 19.6866 4.34808 20.1094 4.27563C20.3935 4.23281 20.6816 4.2618 20.9683 4.26245C20.9729 4.36323 20.9822 4.46335 21 4.56347C20.6459 4.58916 20.2878 4.61287 19.9357 4.55425C19.3715 4.48575 18.808 4.60497 18.2444 4.57335C18.2253 4.64976 18.2074 4.72617 18.1896 4.80257C17.6479 4.8085 17.1061 4.79928 16.565 4.80192C16.3853 4.79731 16.1878 4.83617 16.0742 4.98701C15.915 5.18527 15.7221 5.35455 15.5688 5.55743C15.5192 5.92958 15.6652 6.29054 15.7491 6.64754C15.6216 6.69365 15.4935 6.73713 15.3679 6.78455C15.2391 7.18701 15.29 7.7021 14.9207 7.98401C14.7165 8.13683 14.5362 8.32719 14.303 8.43587C14.1332 8.51228 13.9508 8.43258 13.7804 8.40755C13.1442 8.31138 12.617 7.92144 12.0488 7.65269C12.0118 7.80617 11.9702 7.95766 11.9286 8.10982C12.101 8.22114 12.3237 8.31599 12.3805 8.53467C12.4677 8.85479 12.395 9.19072 12.3825 9.51677C12.3554 9.81581 12.3468 10.1168 12.3184 10.4159C12.2906 10.7063 12.1222 10.956 11.9491 11.1819C11.7872 11.1424 11.6287 11.0956 11.4688 11.0535C11.2963 11.4223 11.4397 11.8808 11.7238 12.1554C12.4624 12.9564 12.8627 13.9872 13.238 14.9917C13.3021 15.2038 13.5208 15.3296 13.5578 15.5529C13.6199 15.7901 13.7077 16.0278 13.6872 16.2768C13.6588 16.7135 13.6271 17.1502 13.5829 17.5856C13.5525 17.9051 13.4336 18.2239 13.5036 18.5466C13.5558 18.8095 13.5881 19.0874 13.4917 19.345C13.3615 19.6684 13.3629 20.0221 13.3609 20.3653C13.3668 20.5912 13.3794 20.8395 13.5366 21.0187C13.7229 21.2472 13.9046 21.4844 14.1272 21.6793C14.4027 21.8592 14.7819 21.8605 15.0085 22.1207C15.0799 22.2629 15.029 22.4289 15.027 22.5811C14.3116 22.6891 13.563 22.697 12.868 22.4744C12.4756 22.3472 12.0429 22.5653 11.6676 22.3505C11.6881 21.9033 11.7965 21.4666 11.955 21.049C12.0204 20.7374 11.9491 20.4147 11.9425 20.0992C11.9378 19.8265 11.7971 19.5854 11.7429 19.3232C11.5877 18.7607 11.5434 18.1751 11.517 17.5942C11.4826 17.309 11.7251 17.0936 11.735 16.815C11.7859 16.568 11.7482 16.3144 11.595 16.1102C11.3287 16.1023 10.97 16.1721 10.8207 15.8869C10.5088 15.4271 10.2056 14.9608 9.89444 14.501C9.78609 14.3028 9.5258 14.3495 9.34742 14.2626C9.1882 14.1163 9.10892 13.9095 9.00983 13.7231C8.95169 13.9365 8.87241 14.1506 8.71385 14.312C8.46413 14.5623 8.37428 14.9101 8.24479 15.2275C8.15362 15.4568 8.0717 15.6919 8.03867 15.9369C8.00365 16.122 7.99573 16.3387 7.82924 16.4599C7.5848 16.6444 7.49759 16.9553 7.27429 17.1581C7.10781 17.3162 7.00607 17.5316 6.95124 17.751C6.9334 17.9492 6.99087 18.1501 6.94066 18.3457C6.85016 18.7041 6.65196 19.0202 6.50662 19.3568C6.40355 19.5933 6.35004 19.8482 6.23707 20.0807C6.16176 20.2434 5.96885 20.2961 5.86314 20.4325C5.5566 20.9581 5.45882 21.5917 5.56849 22.1878C5.65636 22.4243 5.72044 22.672 5.66627 22.9262C5.47798 22.9519 5.29102 22.9829 5.10207 23H4.51805C4.3661 22.9684 4.20953 22.9447 4.07079 22.8735C3.96707 22.5501 3.98425 22.1957 4.0774 21.8717C4.21415 21.3843 4.33836 20.8935 4.4619 20.4035C4.54514 20.1631 4.34761 19.9477 4.36544 19.7072C4.34562 19.3529 4.56562 19.0604 4.72484 18.7647C4.87415 18.5019 4.82129 18.185 4.92502 17.9077C5.15955 17.3057 5.60284 16.8156 5.86711 16.2281C5.94837 15.989 5.8605 15.7347 5.87635 15.4884C5.89617 15.0214 5.98867 14.5603 6.06926 14.1005C6.09635 13.9234 6.15383 13.7363 6.08512 13.5617C6.01179 13.3536 5.96026 13.1323 5.98933 12.9103C6.01972 12.7061 5.8975 12.5032 5.97413 12.3037C6.01443 12.1344 6.17034 12.0389 6.29521 11.9335C6.31767 11.2379 6.06398 10.5542 6.17034 9.8606C6.2919 9.71042 6.48746 9.65641 6.65725 9.58066C6.40818 9.52928 6.15911 9.47725 5.91137 9.42257C5.90146 9.14198 5.93978 8.86401 5.99858 8.59C6.08975 8.16252 6.03954 7.72054 6.10758 7.29042C6.11815 7.18108 6.23773 7.14419 6.3322 7.14024C6.55815 7.12377 6.78607 7.11323 7.00805 7.05988C6.94199 6.51647 6.88715 5.96186 7.01003 5.42108C7.12895 4.78281 7.41567 4.13599 7.95278 3.74078C8.32275 3.4918 8.85722 3.34491 9.2437 3.64198C9.27541 3.62024 9.33883 3.57743 9.37054 3.55635C9.14592 2.95234 9.19547 2.25413 9.55222 1.71006C9.78279 1.33922 10.1871 1.12844 10.5927 1H11.1834ZM13.9984 5.54623C14.2006 5.53305 14.4054 5.53371 14.6049 5.49024C14.6003 5.37431 14.5963 5.25904 14.5917 5.14311C14.4668 5.14575 14.3433 5.1497 14.2204 5.15563C14.2006 5.31371 14.1517 5.47048 13.9984 5.54623ZM13.7322 5.69048C13.7639 5.90455 13.9244 6.07976 14.0314 6.26551C14.1874 6.04683 14.3453 5.82814 14.4939 5.60419C14.2633 5.59365 14.0314 5.5785 13.8015 5.60222C13.7844 5.62461 13.7493 5.66808 13.7322 5.69048Z" fill="#39555A"/>
</svg>
