<svg width="32" height="32" viewBox="0 0 32 32" fill="none" xmlns="http://www.w3.org/2000/svg">
<g clip-path="url(#clip0_801_10984)">
<path d="M24.3175 8.49295C22.7875 7.80295 21.1475 7.29295 19.4325 7.00295C19.4172 7.00002 19.4014 7.00191 19.3872 7.00836C19.3731 7.01481 19.3613 7.0255 19.3535 7.03895C19.1435 7.40795 18.9095 7.88895 18.7455 8.26895C16.9266 7.99719 15.0774 7.99719 13.2585 8.26895C13.0758 7.84781 12.8698 7.43717 12.6415 7.03895C12.6337 7.02533 12.622 7.0144 12.6079 7.00761C12.5938 7.00082 12.578 6.9985 12.5625 7.00095C10.8485 7.29095 9.20848 7.80095 7.67748 8.49195C7.66431 8.49747 7.65314 8.5069 7.64548 8.51895C4.53348 13.094 3.68048 17.556 4.09948 21.962C4.10065 21.9727 4.104 21.9832 4.10933 21.9926C4.11465 22.0021 4.12185 22.0104 4.13048 22.017C5.94687 23.3394 7.97282 24.3468 10.1235 24.997C10.1385 25.0016 10.1545 25.0016 10.1695 24.9969C10.1845 24.9923 10.1977 24.9832 10.2075 24.9709C10.6703 24.352 11.0804 23.6954 11.4335 23.0079C11.4384 22.9986 11.4412 22.9882 11.4418 22.9776C11.4423 22.967 11.4406 22.9565 11.4367 22.9466C11.4328 22.9367 11.4269 22.9278 11.4192 22.9205C11.4116 22.9131 11.4025 22.9075 11.3925 22.9039C10.7465 22.6607 10.1206 22.3671 9.52048 22.0259C9.5097 22.0198 9.50061 22.0111 9.49404 22.0005C9.48746 21.99 9.48361 21.978 9.48281 21.9656C9.48202 21.9532 9.48432 21.9408 9.48949 21.9295C9.49467 21.9183 9.50257 21.9084 9.51248 21.9009C9.63848 21.8079 9.76448 21.711 9.88448 21.614C9.89528 21.6052 9.90829 21.5997 9.92206 21.5979C9.93584 21.5961 9.94983 21.5982 9.96248 21.604C13.8895 23.368 18.1425 23.368 22.0235 21.604C22.0362 21.5979 22.0503 21.5955 22.0643 21.5971C22.0782 21.5987 22.0915 21.6042 22.1025 21.6129C22.2225 21.7109 22.3475 21.8079 22.4745 21.9009C22.4845 21.9083 22.4925 21.918 22.4979 21.9292C22.5032 21.9403 22.5057 21.9527 22.5051 21.9651C22.5045 21.9774 22.5008 21.9895 22.4945 22.0001C22.4881 22.0107 22.4791 22.0196 22.4685 22.0259C21.8705 22.3699 21.2485 22.661 20.5955 22.903C20.5855 22.9066 20.5763 22.9123 20.5687 22.9198C20.561 22.9272 20.5551 22.9362 20.5512 22.9462C20.5473 22.9561 20.5456 22.9668 20.5462 22.9774C20.5467 22.9881 20.5496 22.9985 20.5545 23.0079C20.9145 23.6949 21.3265 24.3489 21.7795 24.9699C21.7889 24.9827 21.802 24.9922 21.8171 24.9972C21.8321 25.0022 21.8483 25.0025 21.8635 24.9979C24.0178 24.3496 26.0471 23.3417 27.8655 22.017C27.8744 22.0107 27.8818 22.0027 27.8873 21.9934C27.8928 21.9841 27.8963 21.9737 27.8975 21.9629C28.3975 16.8689 27.0595 12.443 24.3485 8.52095C24.3418 8.5082 24.3308 8.49827 24.3175 8.49295ZM12.0205 19.2789C10.8385 19.2789 9.86348 18.2099 9.86348 16.8989C9.86348 15.5869 10.8195 14.5189 12.0205 14.5189C13.2305 14.5189 14.1965 15.5959 14.1775 16.8989C14.1775 18.2109 13.2215 19.2789 12.0205 19.2789V19.2789ZM19.9955 19.2789C18.8125 19.2789 17.8385 18.2099 17.8385 16.8989C17.8385 15.5869 18.7935 14.5189 19.9955 14.5189C21.2055 14.5189 22.1715 15.5959 22.1525 16.8989C22.1525 18.2109 21.2065 19.2789 19.9955 19.2789V19.2789Z" fill="#1D3D43"/>
</g>
<defs>
<clipPath id="clip0_801_10984">
<rect width="24" height="24" fill="white" transform="translate(4 4)"/>
</clipPath>
</defs>
</svg>
