<svg width="24" height="24" viewBox="0 0 24 24" fill="none" xmlns="http://www.w3.org/2000/svg">
<path d="M5.22656 13.7368L9.68439 18.5612L5.54498 19.5263L3.31606 17.5967L5.22656 13.7368ZM16.9918 4.47368L18.9474 5.54879L18.2955 9.10526L13.7323 6.12774L16.9918 4.47368ZM4.83578 4.47368C5.05288 4.47368 5.22714 4.48295 5.48708 4.69079C5.84892 4.98026 7.18338 5.92511 7.18338 5.92511L7.42537 6.35526C7.86595 6.37726 7.87695 6.41721 8.43331 6.82595L20.6842 15.1362C20.5899 15.3405 19.1333 19.5263 19.1333 19.5263H16.8847L3.31606 5.19737C3.31606 5.19737 3.53722 5.11458 3.75027 4.98026C4.08432 4.77011 4.50462 4.47368 4.83578 4.47368ZM6.50023 1.57895H1.57924C1.27356 1.73179 1.00015 1.90895 1.00015 2.51974V6.5V7.73026L1.5723 9.32121L1.00015 10.1184V10.7697L1.57924 11.2039V12L1.00015 12.5789V14.75L1.57924 15.1118V17.5C0.974832 17.9302 1.00015 18.4408 1.00015 19.0278V21.7697C2.35444 22.1078 2.12982 22.4211 3.6779 22.4211C5.04593 22.4211 5.92129 22.4211 5.92129 22.4211C6.13087 22.4077 6.29413 22.3637 6.50023 22.3441C7.07569 22.2885 7.44101 21.8421 7.44101 21.8421L8.96072 22.4211L9.53966 21.8421C9.53966 21.8421 10.2987 22.7817 10.4804 23L10.987 22.4211L12.5791 23C12.5791 23 13.1696 22.4332 13.8093 22.4211H16.9211C16.9686 22.3753 17.5001 21.8421 17.5001 21.8421C17.7438 21.988 17.5284 22.4211 19.7435 22.4211C20.3548 22.4211 20.9013 22.2763 20.9013 22.2763C20.8076 21.9637 20.7971 22.0274 20.6119 21.8421C20.6119 21.8421 22.0592 21.8421 23 22.4211V13.4514L21.8421 13.8092C21.8647 13.6257 22.3996 13.3819 22.4211 13.0132C22.4483 12.5483 22.3956 10.9371 22.3279 10.5966C22.2931 10.4229 21.9614 9.91405 21.8421 9.75658C21.984 9.3739 22.4211 9.10526 22.4211 9.10526V8.67105L23 8.33353V5.88921L22.4211 3.46053L23 2.83353V2.14111L22.3886 1.61137L20.4029 1.28311L19.9444 1.61137L19.7151 1.22926C19.7151 1.22926 16.7139 1.00116 16.1697 1.00116C15.4732 1.00116 15.5745 1.05326 15.3389 1.83774L14.3396 1.93963L14.2435 1.57895H13.2304L13.3971 1.39542C13.5743 1.22811 13.5123 1.29526 13.6507 1H10.1667C10.1122 1.09958 9.91308 1.32537 9.75618 1.57895C9.75618 1.57895 9.4505 1.57605 9.22124 1.72889C8.99198 1.88174 8.99314 2.15789 8.68746 2.15789C8.38178 2.15789 7.74784 2.15789 7.3889 2.15789C6.6247 2.15789 6.50023 1.57895 6.50023 1.57895Z" fill="#EEF3F5"/>
</svg>
