<svg width="24" height="25" viewBox="0 0 24 25" fill="none" xmlns="http://www.w3.org/2000/svg">
<path d="M5.22656 14.2368L9.68439 19.0612L5.54498 20.0263L3.31606 18.0967L5.22656 14.2368ZM16.9918 4.97368L18.9474 6.04879L18.2955 9.60526L13.7323 6.62774L16.9918 4.97368ZM4.83578 4.97368C5.05288 4.97368 5.22714 4.98295 5.48708 5.19079C5.84892 5.48026 7.18338 6.42511 7.18338 6.42511L7.42537 6.85526C7.86595 6.87726 7.87695 6.91721 8.43331 7.32595L20.6842 15.6362C20.5899 15.8405 19.1333 20.0263 19.1333 20.0263H16.8847L3.31606 5.69737C3.31606 5.69737 3.53722 5.61458 3.75027 5.48026C4.08432 5.27011 4.50462 4.97368 4.83578 4.97368ZM6.50023 2.07895H1.57924C1.27356 2.23179 1.00015 2.40895 1.00015 3.01974V7V8.23026L1.5723 9.82121L1.00015 10.6184V11.2697L1.57924 11.7039V12.5L1.00015 13.0789V15.25L1.57924 15.6118V18C0.974832 18.4302 1.00015 18.9408 1.00015 19.5278V22.2697C2.35444 22.6078 2.12982 22.9211 3.6779 22.9211C5.04593 22.9211 5.92129 22.9211 5.92129 22.9211C6.13087 22.9077 6.29413 22.8637 6.50023 22.8441C7.07569 22.7885 7.44101 22.3421 7.44101 22.3421L8.96072 22.9211L9.53966 22.3421C9.53966 22.3421 10.2987 23.2817 10.4804 23.5L10.987 22.9211L12.5791 23.5C12.5791 23.5 13.1696 22.9332 13.8093 22.9211H16.9211C16.9686 22.8753 17.5001 22.3421 17.5001 22.3421C17.7438 22.488 17.5284 22.9211 19.7435 22.9211C20.3548 22.9211 20.9013 22.7763 20.9013 22.7763C20.8076 22.4637 20.7971 22.5274 20.6119 22.3421C20.6119 22.3421 22.0592 22.3421 23 22.9211V13.9514L21.8421 14.3092C21.8647 14.1257 22.3996 13.8819 22.4211 13.5132C22.4483 13.0483 22.3956 11.4371 22.3279 11.0966C22.2931 10.9229 21.9614 10.4141 21.8421 10.2566C21.984 9.8739 22.4211 9.60526 22.4211 9.60526V9.17105L23 8.83353V6.38921L22.4211 3.96053L23 3.33353V2.64111L22.3886 2.11137L20.4029 1.78311L19.9444 2.11137L19.7151 1.72926C19.7151 1.72926 16.7139 1.50116 16.1697 1.50116C15.4732 1.50116 15.5745 1.55326 15.3389 2.33774L14.3396 2.43963L14.2435 2.07895H13.2304L13.3971 1.89542C13.5743 1.72811 13.5123 1.79526 13.6507 1.5H10.1667C10.1122 1.59958 9.91308 1.82537 9.75618 2.07895C9.75618 2.07895 9.4505 2.07605 9.22124 2.22889C8.99198 2.38174 8.99314 2.65789 8.68746 2.65789C8.38178 2.65789 7.74784 2.65789 7.3889 2.65789C6.6247 2.65789 6.50023 2.07895 6.50023 2.07895Z" fill="#39555A"/>
</svg>
