<svg width="16" height="16" viewBox="0 0 16 16" fill="none" xmlns="http://www.w3.org/2000/svg">
<g clip-path="url(#clip0_1305_7861)">
<path d="M14.0366 5.20933C11.6753 0.936 4.74531 0 4.74531 0C4.74531 0 7.94397 3.56 3.85597 6.378C1.27264 8.15533 0.249308 10.4647 1.35597 12.9873C2.20264 14.92 3.99597 15.7047 5.92998 16C5.43331 15.044 5.30864 13.6633 5.67597 12.248C5.71264 12.1067 5.75331 11.9587 5.79997 11.8247C6.34197 12.6633 7.23131 13.122 8.09931 12.91C9.28797 12.6273 9.98531 11.1893 9.66064 9.71133C9.58664 9.39067 9.46597 9.08267 9.30331 8.79667C9.34997 8.808 9.39664 8.812 9.44464 8.828C10.928 9.25133 11.6453 11.4693 11.0466 13.7847C10.8693 14.486 10.57 15.1507 10.1626 15.748C12.7093 14.928 14.4033 12.874 14.8693 11.044C15.3606 9.13933 14.988 6.92 14.0366 5.20933Z" fill="#FCFDFB"/>
</g>
<defs>
<clipPath id="clip0_1305_7861">
<rect width="16" height="16" fill="white"/>
</clipPath>
</defs>
</svg>
