<svg xmlns="http://www.w3.org/2000/svg" width="16" height="16" viewBox="0 0 16 16" fill="none">
    <g clip-path="url(#clip0_969_3070)">
        <path d="M14.0368 5.20933C11.6754 0.936 4.74543 0 4.74543 0C4.74543 0 7.9441 3.56 3.8561 6.378C1.27276 8.15533 0.24943 10.4647 1.3561 12.9873C2.20276 14.92 3.9961 15.7047 5.9301 16C5.43343 15.044 5.30876 13.6633 5.6761 12.248C5.71276 12.1067 5.75343 11.9587 5.8001 11.8247C6.3421 12.6633 7.23143 13.122 8.09943 12.91C9.2881 12.6273 9.98543 11.1893 9.66076 9.71133C9.58676 9.39067 9.4661 9.08267 9.30343 8.79667C9.3501 8.808 9.39676 8.812 9.44476 8.828C10.9281 9.25133 11.6454 11.4693 11.0468 13.7847C10.8694 14.486 10.5701 15.1507 10.1628 15.748C12.7094 14.928 14.4034 12.874 14.8694 11.044C15.3608 9.13933 14.9881 6.92 14.0368 5.20933Z" fill="#FCFDFB"/>
    </g>
    <defs>
        <clipPath id="clip0_969_3070">
            <rect width="16" height="16" fill="white"/>
        </clipPath>
    </defs>
</svg>