<svg width="10" height="10" viewBox="0 0 10 10" fill="none" xmlns="http://www.w3.org/2000/svg">
<circle cx="5" cy="5" r="5" fill="#EEF3F5"/>
<path d="M4.56863 6.41834V5.97135C4.56863 5.74212 4.60349 5.55301 4.6732 5.40401C4.74292 5.24928 4.83297 5.11461 4.94336 5C5.05374 4.88539 5.16993 4.78223 5.29194 4.69054C5.41975 4.59885 5.53595 4.5043 5.64052 4.40688C5.75091 4.30946 5.84096 4.20057 5.91068 4.08023C5.9862 3.95415 6.02397 3.80802 6.02397 3.64183C6.02397 3.57307 6.01235 3.49284 5.98911 3.40115C5.97168 3.30372 5.9281 3.20917 5.85839 3.11748C5.79448 3.02579 5.69572 2.95129 5.56209 2.89398C5.42847 2.83095 5.24837 2.79943 5.02179 2.79943C4.78359 2.79943 4.59187 2.83668 4.44662 2.91117C4.30138 2.98567 4.19099 3.07736 4.11547 3.18625C4.04575 3.29513 3.99927 3.40688 3.97603 3.52149C3.9528 3.63037 3.94118 3.72493 3.94118 3.80516C3.94118 3.84527 3.94118 3.88539 3.94118 3.9255C3.94118 3.95989 3.94408 3.99713 3.94989 4.03725H3.02614C3.02033 4.01433 3.01452 3.97994 3.00871 3.9341C3.0029 3.88252 3 3.81948 3 3.74499C3 3.58453 3.02324 3.42407 3.06972 3.26361C3.122 3.09742 3.19753 2.93983 3.2963 2.79083C3.40087 2.6361 3.5345 2.50143 3.69717 2.38682C3.86565 2.26648 4.06318 2.17192 4.28976 2.10315C4.52215 2.03438 4.7894 2 5.0915 2C5.35294 2 5.58824 2.02865 5.79739 2.08596C6.00654 2.13754 6.18373 2.21203 6.32898 2.30946C6.48003 2.40688 6.60494 2.52149 6.7037 2.65329C6.80247 2.77937 6.87509 2.91691 6.92157 3.0659C6.97386 3.2149 7 3.36963 7 3.53009C7 3.79943 6.96224 4.02865 6.88671 4.21777C6.81118 4.40115 6.71242 4.55874 6.59041 4.69054C6.47422 4.81662 6.34931 4.93123 6.21569 5.03438C6.08206 5.13181 5.95425 5.22923 5.83224 5.32665C5.71024 5.41834 5.61147 5.52436 5.53595 5.6447C5.46042 5.75931 5.42266 5.90258 5.42266 6.0745V6.41834H4.56863ZM4.51634 8V7.00287H5.47495V8H4.51634Z" fill="#121F21"/>
</svg>
