<svg width="24" height="24" viewBox="0 0 24 24" fill="none" xmlns="http://www.w3.org/2000/svg">
<path d="M11.2665 4.20264V3.31202C15.0342 2.81393 18.7357 4.61203 20.6732 7.88161C22.6107 11.1512 22.4104 15.2614 20.1641 18.3271H19.047C21.406 15.6074 21.8193 11.7052 20.0821 8.55171C18.345 5.39819 14.826 3.66213 11.2665 4.20264ZM3.86866 12.73C3.8676 11.0605 4.35374 9.42702 5.26746 8.02979V6.563C2.22725 10.1123 2.22725 15.3477 5.26746 18.897V17.43C4.3537 16.0329 3.86756 14.3994 3.86866 12.73ZM18.4165 22.0127L20.6469 19.1773H10.4165V1.77734H4.6116L6.11749 3.73029V19.1779L4.42337 22.0127H18.4165Z" fill="#39555A"/>
</svg>
