<svg width="24" height="24" viewBox="0 0 24 24" fill="none" xmlns="http://www.w3.org/2000/svg">
<path d="M11.2675 4.20264V3.31202C15.0352 2.81393 18.7367 4.61203 20.6742 7.88161C22.6117 11.1512 22.4114 15.2614 20.1651 18.3271H19.0479C21.407 15.6074 21.8202 11.7052 20.0831 8.55171C18.346 5.39819 14.827 3.66213 11.2675 4.20264ZM3.86964 12.73C3.86858 11.0605 4.35472 9.42702 5.26844 8.02979V6.563C2.22823 10.1123 2.22823 15.3477 5.26844 18.897V17.43C4.35468 16.0329 3.86854 14.3994 3.86964 12.73ZM18.4175 22.0127L20.6479 19.1773H10.4175V1.77734H4.61258L6.11847 3.73029V19.1779L4.42435 22.0127H18.4175Z" fill="#1C7D8F"/>
</svg>
