<svg width="114" height="32" viewBox="0 0 114 32" fill="none" xmlns="http://www.w3.org/2000/svg">
<g clip-path="url(#clip0_741_10382)">
<path d="M30.7296 23.4339C28.6787 23.4339 26.9977 21.7528 26.9977 19.702C26.9977 17.6511 28.6787 15.97 30.7296 15.97C31.1668 15.97 31.5701 16.0709 31.94 16.1717V3.3621C31.94 1.51289 30.4271 0 28.5779 0H20.0717C19.5002 1.74835 17.8865 2.99227 15.97 2.99227C14.0535 2.99227 12.4397 1.74835 11.8682 0H3.3621C1.51289 0 0 1.51289 0 3.3621V6.18621C0.20169 6.15267 0.40338 6.1189 0.571527 6.1189C2.72327 6.1189 4.43782 7.86725 4.43782 9.9852C4.43806 12.1036 2.72321 13.8855 0.571527 13.8855C0.369837 13.8855 0.168147 13.852 0 13.8182V28.5779C0 30.4271 1.51289 31.94 3.3621 31.94H28.6115C30.4607 31.94 31.9736 30.4271 31.9736 28.5779V23.2322C31.5702 23.3666 31.1668 23.4339 30.7297 23.4339L30.7296 23.4339ZM7.53111 24.3417C6.08552 24.3417 4.87517 23.1649 4.87517 21.6858C4.87517 20.2402 6.05202 19.0298 7.53111 19.0298C8.97669 19.0298 10.187 20.2067 10.187 21.6858C10.187 23.1649 9.01019 24.3417 7.53111 24.3417ZM10.4225 11.6666C10.4225 9.61571 12.07 7.96816 14.1209 7.96816C16.1719 7.96816 17.8194 9.61565 17.8194 11.6666C17.8194 13.7175 16.1719 15.365 14.1209 15.365C12.0698 15.365 10.4225 13.684 10.4225 11.6666ZM18.7605 27.2331C16.9451 27.2331 15.4993 25.7875 15.4993 23.9719C15.4993 22.1565 16.9449 20.7106 18.7605 20.7106C20.5759 20.7106 22.0218 22.1562 22.0218 23.9719C22.0218 25.7873 20.5759 27.2331 18.7605 27.2331ZM24.7115 9.98554C23.4676 9.98554 22.4254 8.97685 22.4254 7.69943C22.4254 6.42177 23.4341 5.41332 24.7115 5.41332C25.9554 5.41332 26.9976 6.42201 26.9976 7.69943C26.9976 8.97685 25.9889 9.98554 24.7115 9.98554Z" fill="#ACBBC2"/>
</g>
<path d="M45.2 13V2.008H47.744L51.744 7.112C51.8187 7.19733 51.9147 7.32 52.032 7.48C52.16 7.64 52.2827 7.80533 52.4 7.976C52.5173 8.136 52.6027 8.264 52.656 8.36L52.736 8.344C52.736 8.10933 52.736 7.88533 52.736 7.672C52.736 7.448 52.736 7.26133 52.736 7.112V2.008H55.392V13H52.864L48.624 7.624C48.4853 7.45333 48.352 7.27733 48.224 7.096C48.1067 6.91467 48.0107 6.76533 47.936 6.648L47.856 6.664C47.856 6.83467 47.856 7.01067 47.856 7.192C47.856 7.36267 47.856 7.50667 47.856 7.624V13H45.2ZM57.8258 13V2.008H66.8978V4.248H60.6898V6.312H66.1138V8.504H60.6898V10.76H67.0098V13H57.8258ZM74.2613 13.192C73.0559 13.192 72.0213 12.984 71.1573 12.568C70.3039 12.1413 69.6479 11.5067 69.1893 10.664C68.7306 9.82133 68.5013 8.76533 68.5013 7.496C68.5013 6.22667 68.7306 5.176 69.1893 4.344C69.6479 3.50133 70.3039 2.872 71.1573 2.456C72.0213 2.02933 73.0559 1.816 74.2613 1.816C75.4666 1.816 76.4959 2.02933 77.3493 2.456C78.2133 2.872 78.8746 3.50133 79.3333 4.344C79.7919 5.176 80.0213 6.22667 80.0213 7.496C80.0213 8.76533 79.7919 9.82133 79.3333 10.664C78.8746 11.5067 78.2133 12.1413 77.3493 12.568C76.4959 12.984 75.4666 13.192 74.2613 13.192ZM74.2613 10.952C74.7199 10.952 75.1253 10.8827 75.4773 10.744C75.8293 10.6053 76.1226 10.4027 76.3573 10.136C76.6026 9.86933 76.7839 9.544 76.9013 9.16C77.0186 8.776 77.0773 8.344 77.0773 7.864V7.16C77.0773 6.66933 77.0186 6.232 76.9013 5.848C76.7839 5.464 76.6026 5.13867 76.3573 4.872C76.1226 4.60533 75.8293 4.40267 75.4773 4.264C75.1253 4.12533 74.7199 4.056 74.2613 4.056C73.7919 4.056 73.3813 4.12533 73.0293 4.264C72.6773 4.40267 72.3839 4.60533 72.1493 4.872C71.9146 5.13867 71.7386 5.464 71.6213 5.848C71.5039 6.232 71.4453 6.66933 71.4453 7.16V7.864C71.4453 8.344 71.5039 8.776 71.6213 9.16C71.7386 9.544 71.9146 9.86933 72.1493 10.136C72.3839 10.4027 72.6773 10.6053 73.0293 10.744C73.3813 10.8827 73.7919 10.952 74.2613 10.952ZM81.9344 13V2.008H84.4784L88.4784 7.112C88.553 7.19733 88.649 7.32 88.7664 7.48C88.8944 7.64 89.017 7.80533 89.1344 7.976C89.2517 8.136 89.337 8.264 89.3904 8.36L89.4704 8.344C89.4704 8.10933 89.4704 7.88533 89.4704 7.672C89.4704 7.448 89.4704 7.26133 89.4704 7.112V2.008H92.1264V13H89.5984L85.3584 7.624C85.2197 7.45333 85.0864 7.27733 84.9584 7.096C84.841 6.91467 84.745 6.76533 84.6704 6.648L84.5904 6.664C84.5904 6.83467 84.5904 7.01067 84.5904 7.192C84.5904 7.36267 84.5904 7.50667 84.5904 7.624V13H81.9344ZM50.256 29.192C49.072 29.192 48.064 28.9893 47.232 28.584C46.4107 28.168 45.7867 27.5387 45.36 26.696C44.9333 25.8533 44.72 24.7867 44.72 23.496C44.72 21.5973 45.1947 20.1787 46.144 19.24C47.104 18.2907 48.4747 17.816 50.256 17.816C51.248 17.816 52.128 17.9867 52.896 18.328C53.664 18.6587 54.2613 19.16 54.688 19.832C55.1253 20.4933 55.344 21.32 55.344 22.312H52.544C52.544 21.8427 52.448 21.4427 52.256 21.112C52.0747 20.7707 51.8133 20.5093 51.472 20.328C51.1413 20.1467 50.736 20.056 50.256 20.056C49.6587 20.056 49.168 20.1787 48.784 20.424C48.4 20.6693 48.1173 21.0213 47.936 21.48C47.7547 21.9387 47.664 22.4933 47.664 23.144V23.864C47.664 24.5147 47.7547 25.0747 47.936 25.544C48.1173 26.0027 48.3947 26.3547 48.768 26.6C49.152 26.8347 49.6427 26.952 50.24 26.952C50.752 26.952 51.184 26.8667 51.536 26.696C51.8987 26.5253 52.1707 26.2747 52.352 25.944C52.544 25.6027 52.64 25.1973 52.64 24.728H55.344C55.344 25.72 55.1307 26.5467 54.704 27.208C54.288 27.8693 53.696 28.3653 52.928 28.696C52.1707 29.0267 51.28 29.192 50.256 29.192ZM57.2313 29V18.008H60.0953V22.232H64.5593V18.008H67.4233V29H64.5593V24.568H60.0953V29H57.2313ZM69.857 29V18.008H78.929V20.248H72.721V22.312H78.145V24.504H72.721V26.76H79.041V29H69.857ZM81.0445 29V18.008H90.1165V20.248H83.9085V22.312H89.3325V24.504H83.9085V26.76H90.2285V29H81.0445ZM96.76 29.192C96.0667 29.192 95.416 29.128 94.808 29C94.2 28.8827 93.6613 28.6853 93.192 28.408C92.7333 28.1307 92.3707 27.768 92.104 27.32C91.8373 26.8613 91.704 26.3013 91.704 25.64C91.704 25.5973 91.704 25.5493 91.704 25.496C91.704 25.4427 91.7093 25.4 91.72 25.368H94.488C94.488 25.4 94.4827 25.4427 94.472 25.496C94.472 25.5387 94.472 25.576 94.472 25.608C94.472 25.9493 94.5573 26.2267 94.728 26.44C94.9093 26.6427 95.16 26.792 95.48 26.888C95.8 26.9733 96.1733 27.016 96.6 27.016C96.8347 27.016 97.0533 27.0053 97.256 26.984C97.4587 26.9627 97.64 26.9253 97.8 26.872C97.96 26.8187 98.0987 26.7547 98.216 26.68C98.344 26.5947 98.4347 26.4987 98.488 26.392C98.552 26.2747 98.584 26.1413 98.584 25.992C98.584 25.7467 98.488 25.544 98.296 25.384C98.1147 25.224 97.864 25.0907 97.544 24.984C97.2347 24.8773 96.8827 24.776 96.488 24.68C96.0933 24.584 95.6827 24.4827 95.256 24.376C94.8293 24.2693 94.4187 24.136 94.024 23.976C93.6293 23.816 93.272 23.6133 92.952 23.368C92.6427 23.1227 92.392 22.8187 92.2 22.456C92.0187 22.0827 91.928 21.6347 91.928 21.112C91.928 20.536 92.0507 20.04 92.296 19.624C92.5413 19.1973 92.8773 18.8507 93.304 18.584C93.7413 18.3173 94.2427 18.1253 94.808 18.008C95.3733 17.88 95.976 17.816 96.616 17.816C97.2453 17.816 97.832 17.88 98.376 18.008C98.9307 18.136 99.4213 18.3387 99.848 18.616C100.275 18.8827 100.605 19.224 100.84 19.64C101.085 20.0453 101.213 20.536 101.224 21.112V21.304H98.472V21.192C98.472 20.9467 98.4027 20.7333 98.264 20.552C98.136 20.36 97.9387 20.2107 97.672 20.104C97.4053 19.9867 97.0747 19.928 96.68 19.928C96.2853 19.928 95.9493 19.9653 95.672 20.04C95.4053 20.1147 95.1973 20.2213 95.048 20.36C94.9093 20.4987 94.84 20.664 94.84 20.856C94.84 21.0907 94.9307 21.2827 95.112 21.432C95.304 21.5813 95.56 21.7093 95.88 21.816C96.2 21.9227 96.5573 22.024 96.952 22.12C97.3467 22.2053 97.752 22.3013 98.168 22.408C98.5947 22.504 99.0053 22.632 99.4 22.792C99.7947 22.9413 100.152 23.1387 100.472 23.384C100.792 23.6187 101.043 23.912 101.224 24.264C101.416 24.616 101.512 25.0427 101.512 25.544C101.512 26.4187 101.304 27.1227 100.888 27.656C100.483 28.1893 99.9173 28.5787 99.192 28.824C98.4773 29.0693 97.6667 29.192 96.76 29.192ZM103.388 29V18.008H112.46V20.248H106.252V22.312H111.676V24.504H106.252V26.76H112.572V29H103.388Z" fill="#ACBBC2"/>
<defs>
<clipPath id="clip0_741_10382">
<rect width="32" height="31.94" fill="white"/>
</clipPath>
</defs>
</svg>
