<svg width="32" height="32" viewBox="0 0 32 32" fill="none" xmlns="http://www.w3.org/2000/svg">
<g clip-path="url(#clip0_692_1107)">
<mask id="mask0_692_1107" style="mask-type:luminance" maskUnits="userSpaceOnUse" x="0" y="0" width="32" height="32">
<path d="M32 0H0V31.94H32V0Z" fill="white"/>
</mask>
<g mask="url(#mask0_692_1107)">
<path d="M30.7296 23.4339C28.6787 23.4339 26.9977 21.7528 26.9977 19.702C26.9977 17.6511 28.6787 15.97 30.7296 15.97C31.1668 15.97 31.5701 16.0709 31.94 16.1717V3.3621C31.94 1.51289 30.4271 0 28.5779 0H20.0717C19.5002 1.74835 17.8865 2.99227 15.97 2.99227C14.0535 2.99227 12.4397 1.74835 11.8682 0H3.3621C1.51289 0 0 1.51289 0 3.3621V6.18621C0.20169 6.15267 0.40338 6.1189 0.571527 6.1189C2.72327 6.1189 4.43782 7.86725 4.43782 9.98519C4.43806 12.1036 2.72321 13.8855 0.571527 13.8855C0.369837 13.8855 0.168147 13.852 0 13.8182V28.5779C0 30.4271 1.51289 31.94 3.3621 31.94H28.6115C30.4607 31.94 31.9736 30.4271 31.9736 28.5779V23.2322C31.5702 23.3666 31.1667 23.4339 30.7296 23.4339ZM7.53111 24.3417C6.08552 24.3417 4.87517 23.1649 4.87517 21.6858C4.87517 20.2402 6.05202 19.0298 7.53111 19.0298C8.97669 19.0298 10.187 20.2067 10.187 21.6858C10.187 23.1649 9.01019 24.3417 7.53111 24.3417ZM10.4225 11.6666C10.4225 9.61571 12.07 7.96816 14.1209 7.96816C16.1719 7.96816 17.8194 9.61565 17.8194 11.6666C17.8194 13.7175 16.1719 15.365 14.1209 15.365C12.0698 15.365 10.4225 13.684 10.4225 11.6666ZM18.7605 27.2331C16.9451 27.2331 15.4993 25.7875 15.4993 23.9719C15.4993 22.1565 16.9449 20.7106 18.7605 20.7106C20.5759 20.7106 22.0218 22.1562 22.0218 23.9719C22.0218 25.7873 20.5759 27.2331 18.7605 27.2331ZM24.7115 9.98554C23.4676 9.98554 22.4254 8.97685 22.4254 7.69943C22.4254 6.42177 23.4341 5.41332 24.7115 5.41332C25.9554 5.41332 26.9976 6.42201 26.9976 7.69943C26.9976 8.97685 25.9889 9.98554 24.7115 9.98554Z" fill="#ACBBC2" fill-opacity="0.3"/>
</g>
</g>
<defs>
<clipPath id="clip0_692_1107">
<rect width="32" height="32" fill="white"/>
</clipPath>
</defs>
</svg>
