<svg width="24" height="24" viewBox="0 0 24 24" fill="none" xmlns="http://www.w3.org/2000/svg">
<path d="M7.63281 10.726C7.63281 9.91195 8.29281 9.25195 9.10681 9.25195C9.92081 9.25195 10.5808 9.91195 10.5808 10.726C10.5808 12.568 7.63281 12.568 7.63281 14.75H10.5808" stroke="#1C7D8F" stroke-width="1.5" stroke-linecap="round" stroke-linejoin="round"/>
<path d="M15.5302 14.7501C15.5302 14.7501 15.5302 13.8761 15.5302 13.4951H16.3652H15.5302H13.1662C12.7422 13.4951 12.4752 13.0391 12.6882 12.6721C13.2792 11.6551 13.9632 10.5041 14.5902 9.49011C14.8592 9.05411 15.5302 9.25011 15.5302 9.76211V13.4951" stroke="#1C7D8F" stroke-width="1.5" stroke-linecap="round" stroke-linejoin="round"/>
<path d="M20.4243 4.80322V7.69622H17.5312H20.4243" stroke="#1C7D8F" stroke-width="1.5" stroke-linecap="round" stroke-linejoin="round"/>
<path d="M19.905 7.696C18.379 4.899 15.412 3 12 3C7.029 3 3 7.03 3 12C3 16.97 7.029 21 12 21C16.971 21 21 16.97 21 12" stroke="#1C7D8F" stroke-width="1.5" stroke-linecap="round" stroke-linejoin="round"/>
</svg>
