<svg width="16" height="16" viewBox="0 0 16 16" fill="none" xmlns="http://www.w3.org/2000/svg">
<path d="M15.7927 13.8302L12.6654 10.7083C12.509 10.5834 12.3214 10.4898 12.1338 10.4898H11.6334C12.4778 9.39707 13.0094 8.02341 13.0094 6.49366C13.0094 2.93463 10.0698 0 6.5047 0C2.90835 0 0 2.93463 0 6.49366C0 10.0839 2.90835 12.9873 6.5047 12.9873C8.00579 12.9873 9.38178 12.4878 10.5076 11.6137V12.1444C10.5076 12.3317 10.5701 12.519 10.7265 12.6751L13.8225 15.7659C14.1352 16.078 14.6043 16.078 14.8858 15.7659L15.7614 14.8917C16.0741 14.6107 16.0741 14.1424 15.7927 13.8302ZM6.5047 10.4898C4.28435 10.4898 2.50181 8.71024 2.50181 6.49366C2.50181 4.30829 4.28435 2.49756 6.5047 2.49756C8.69378 2.49756 10.5076 4.30829 10.5076 6.49366C10.5076 8.71024 8.69378 10.4898 6.5047 10.4898Z" fill="#39555A"/>
</svg>
