<svg width="60" height="57" viewBox="0 0 60 57" fill="none" xmlns="http://www.w3.org/2000/svg">
<path d="M28.3855 1.20803C29.1845 0.115315 30.8155 0.115317 31.6145 1.20803L41.2821 14.4299C41.5289 14.7675 41.8754 15.0193 42.2727 15.1497L57.8349 20.2583C59.1211 20.6805 59.6251 22.2317 58.8327 23.3292L49.2454 36.6094C49.0006 36.9485 48.8683 37.3558 48.867 37.774L48.8174 54.1533C48.8133 55.5069 47.4938 56.4656 46.2052 56.0512L30.6123 51.0369C30.2141 50.9089 29.7859 50.9089 29.3877 51.0369L13.7948 56.0512C12.5062 56.4656 11.1867 55.5069 11.1826 54.1532L11.133 37.774C11.1317 37.3558 10.9994 36.9485 10.7546 36.6094L1.16725 23.3292C0.374916 22.2317 0.878922 20.6805 2.16505 20.2583L17.7273 15.1497C18.1246 15.0193 18.4711 14.7675 18.7179 14.4299L28.3855 1.20803Z" fill="#2B6B4D"/>
</svg>
