<svg width="32" height="32" viewBox="0 0 32 32" fill="none" xmlns="http://www.w3.org/2000/svg">
<path d="M28.5265 8.36507C27.6246 8.76474 26.6557 9.03478 25.6371 9.15684C26.6881 8.52796 27.4744 7.53816 27.8493 6.37214C26.8618 6.95867 25.7811 7.37152 24.6541 7.59274C23.8962 6.78354 22.8924 6.24719 21.7985 6.06696C20.7045 5.88673 19.5817 6.07271 18.6043 6.59601C17.6269 7.11932 16.8496 7.95067 16.3931 8.96101C15.9366 9.97135 15.8264 11.1041 16.0796 12.1835C14.0788 12.083 12.1215 11.563 10.3346 10.6571C8.54779 9.75122 6.9714 8.47975 5.70776 6.92519C5.27569 7.67052 5.02725 8.53466 5.02725 9.45497C5.02677 10.2835 5.23079 11.0993 5.62122 11.83C6.01164 12.5607 6.5764 13.1838 7.26538 13.6439C6.46635 13.6185 5.68494 13.4026 4.9862 13.0142V13.079C4.98612 14.241 5.38807 15.3672 6.12383 16.2666C6.85959 17.166 7.88386 17.7831 9.02283 18.0132C8.2816 18.2138 7.50447 18.2434 6.75014 18.0996C7.07149 19.0995 7.69745 19.9738 8.54039 20.6002C9.38333 21.2266 10.4011 21.5737 11.4511 21.5929C9.6686 22.9922 7.46725 23.7512 5.20116 23.7479C4.79974 23.748 4.39867 23.7246 4 23.6777C6.30022 25.1566 8.97783 25.9416 11.7125 25.9385C20.9696 25.9385 26.0303 18.2714 26.0303 11.6218C26.0303 11.4058 26.0249 11.1876 26.0151 10.9715C26.9995 10.2597 27.8492 9.37817 28.5244 8.36831L28.5265 8.36507Z" fill="#1D3D43"/>
</svg>
