<svg width="81" height="57" viewBox="0 0 81 57" fill="none" xmlns="http://www.w3.org/2000/svg">
<g opacity="0.1">
<path d="M8.88 55.84L0 0.959997H10.4L16.08 40H16.4L33.04 0.959997H43.28L19.04 55.84H8.88Z" fill="#39555A"/>
<path d="M59.11 56.8C57.0833 56.8 55.0033 56.5333 52.87 56C50.7367 55.4667 48.7633 54.64 46.95 53.52C45.1367 52.3467 43.67 50.8267 42.55 48.96C41.43 47.0933 40.87 44.8 40.87 42.08C40.87 41.1733 40.9233 40.24 41.03 39.28C41.1367 38.2667 41.2167 37.5733 41.27 37.2H51.83C51.7767 37.52 51.6967 38 51.59 38.64C51.4833 39.2267 51.43 40.0267 51.43 41.04C51.43 41.9467 51.6167 42.96 51.99 44.08C52.4167 45.1467 53.2167 46.08 54.39 46.88C55.6167 47.6267 57.4033 48 59.75 48C61.19 48 62.4433 47.8133 63.51 47.44C64.5767 47.0133 65.4833 46.48 66.23 45.84C66.9767 45.1467 67.5367 44.3733 67.91 43.52C68.2833 42.6667 68.47 41.7867 68.47 40.88C68.47 39.0133 67.91 37.4667 66.79 36.24C65.67 35.0133 64.23 33.9733 62.47 33.12C60.71 32.2667 58.8433 31.4133 56.87 30.56C54.8967 29.6533 53.03 28.64 51.27 27.52C49.51 26.4 48.07 24.96 46.95 23.2C45.83 21.44 45.27 19.2267 45.27 16.56C45.27 13.8933 45.8567 11.3067 47.03 8.8C48.2567 6.24 50.23 4.13333 52.95 2.48C55.67 0.826666 59.2967 0 63.83 0C68.47 0 72.0167 0.799999 74.47 2.4C76.9233 3.94666 78.6033 6.02666 79.51 8.64C80.47 11.2 80.95 14.0267 80.95 17.12H70.63C70.63 15.5733 70.3633 14.1867 69.83 12.96C69.35 11.68 68.5767 10.6933 67.51 10C66.4433 9.25333 65.03 8.88 63.27 8.88C62.8433 8.88 62.23 8.93333 61.43 9.04C60.63 9.14667 59.8033 9.38667 58.95 9.76C58.15 10.1333 57.4567 10.72 56.87 11.52C56.2833 12.2667 55.99 13.28 55.99 14.56C55.99 16.2133 56.55 17.5733 57.67 18.64C58.79 19.6533 60.23 20.56 61.99 21.36C63.75 22.1067 65.59 22.9067 67.51 23.76C69.4833 24.56 71.35 25.5733 73.11 26.8C74.87 28.0267 76.31 29.6 77.43 31.52C78.55 33.3867 79.11 35.8133 79.11 38.8C79.11 41.68 78.6033 44.24 77.59 46.48C76.5767 48.72 75.1633 50.6133 73.35 52.16C71.5367 53.6533 69.4033 54.8 66.95 55.6C64.55 56.4 61.9367 56.8 59.11 56.8Z" fill="#39555A"/>
</g>
</svg>
