<svg width="32" height="32" viewBox="0 0 32 32" fill="none" xmlns="http://www.w3.org/2000/svg">
<g clip-path="url(#clip0_801_10992)">
<path d="M27.5006 10.5081C27.3647 10.0233 27.1 9.5844 26.7346 9.23805C26.3589 8.88106 25.8984 8.62569 25.3966 8.49605C23.5186 8.00105 15.9946 8.00105 15.9946 8.00105C12.8579 7.96537 9.72205 8.12233 6.60462 8.47105C6.10281 8.61027 5.64318 8.87134 5.26662 9.23105C4.89662 9.58705 4.62862 10.0261 4.48862 10.5071C4.15231 12.3188 3.98891 14.1584 4.00062 16.0011C3.98862 17.8421 4.15162 19.6811 4.48862 21.4951C4.62562 21.9741 4.89262 22.4111 5.26362 22.7641C5.63462 23.1171 6.09662 23.3721 6.60462 23.5071C8.50762 24.0011 15.9946 24.0011 15.9946 24.0011C19.1353 24.0368 22.2752 23.8798 25.3966 23.5311C25.8984 23.4014 26.3589 23.146 26.7346 22.7891C27.0999 22.4428 27.3643 22.0038 27.4996 21.5191C27.8447 19.708 28.0125 17.8676 28.0006 16.0241C28.0266 14.1727 27.859 12.3236 27.5006 10.5071V10.5081ZM13.6026 19.4251V12.5781L19.8626 16.0021L13.6026 19.4251Z" fill="#1D3D43"/>
</g>
<defs>
<clipPath id="clip0_801_10992">
<rect width="24" height="24" fill="white" transform="translate(4 4)"/>
</clipPath>
</defs>
</svg>
