<svg width="140" height="38" viewBox="0 0 140 38" fill="none" xmlns="http://www.w3.org/2000/svg">
    <mask id="mask0_114_615" style="mask-type:luminance" maskUnits="userSpaceOnUse" x="12" y="7" width="116" height="24">
        <path d="M127.694 7.39111H12.3086V30.6821H127.694V7.39111Z" fill="white"/>
    </mask>
    <g mask="url(#mask0_114_615)">
        <path d="M127.695 13.3156H125.201L126.432 7.39111L120.771 13.3156H122.893L122.034 19.2401L127.695 13.3156Z" fill="#F6871F"/>
        <path d="M34.5027 30.6803C32.9665 29.9422 31.8913 29.2395 31.2769 28.5723C30.6673 27.911 30.3627 26.9625 30.3633 25.7266V13.9261L33.0783 13.3164V25.2305C33.0783 25.9442 33.1609 26.4707 33.3263 26.8098C33.5238 27.1823 33.8284 27.4869 34.2007 27.6846L35.6628 28.5199L34.5027 30.6803Z" fill="white"/>
        <path d="M36.4637 21.5489C36.7855 20.7276 37.2706 19.9801 37.89 19.3518C38.5092 18.7236 39.2498 18.2277 40.0664 17.8942C41.5206 17.2833 43.8496 17.0491 45.862 17.8942C46.6788 18.2275 47.4193 18.7235 48.0387 19.3517C48.6581 19.9799 49.1433 20.7275 49.465 21.5489C50.0918 23.1251 50.0918 24.8812 49.465 26.4572C49.1433 27.2788 48.6582 28.0263 48.0388 28.6545C47.4194 29.2828 46.6789 29.7787 45.862 30.1119C43.8526 30.9558 41.5245 30.7245 40.0664 30.1119C39.2496 29.7786 38.5092 29.2828 37.8898 28.6545C37.2706 28.0262 36.7854 27.2786 36.4638 26.4572C35.837 24.8812 35.8369 23.1251 36.4637 21.5489ZM40.0405 26.914C41.8228 28.717 44.5612 28.2851 45.9013 26.914C46.6516 26.1306 47.0705 25.0878 47.0705 24.003C47.0705 22.9184 46.6516 21.8755 45.9013 21.0921C44.3688 19.5254 41.6462 19.4687 40.0405 21.0921C39.2822 21.8715 38.8579 22.9158 38.8579 24.003C38.8579 25.0904 39.2822 26.1348 40.0405 26.914Z" fill="white"/>
        <path d="M51.7476 17.6851H54.4626V24.7598C54.4626 26.6724 55.8572 27.9449 57.5171 27.9449C59.1767 27.9449 60.5716 26.6719 60.5716 24.7598V17.6851H63.2867V24.9949C63.2867 27.4586 61.9018 28.7977 61.5376 29.1328C60.0064 30.5405 58.2035 30.6601 57.5171 30.6601C57.286 30.6601 55.2111 30.7099 53.4965 29.1328C53.1332 28.7987 51.7476 27.4591 51.7476 24.9949V17.6851Z" fill="white"/>
        <path d="M75.8842 28.7808H75.832C75.8035 28.8185 74.5207 30.6608 71.681 30.6608C71.3863 30.6608 68.8259 30.7416 66.8772 28.585C65.7527 27.3237 65.1303 25.6935 65.1284 24.0036C65.1284 21.8828 66.2352 20.2686 66.9556 19.4738C67.5704 18.7983 68.3205 18.2597 69.1571 17.8932C69.9937 17.5266 70.8981 17.3402 71.8115 17.3461C73.6813 17.3461 75.1284 18.1538 75.832 19.2258H75.8842V13.9261L78.5991 13.3164V30.3211H75.8842V28.7808ZM69.1878 26.9011C69.5554 27.2807 69.9956 27.5827 70.4822 27.7889C70.9687 27.9953 71.4918 28.1018 72.0202 28.1022C72.5427 28.1003 73.0595 27.9929 73.5394 27.7865C74.0195 27.5801 74.453 27.279 74.8139 26.9011C75.5671 26.1246 75.9884 25.0852 75.9884 24.0033C75.9884 22.9214 75.5671 21.882 74.8139 21.1055C74.453 20.7277 74.0195 20.4266 73.5394 20.2202C73.0595 20.0138 72.5427 19.9065 72.0202 19.9047C71.4918 19.9051 70.9689 20.0116 70.4822 20.2179C69.9957 20.4241 69.5556 20.726 69.1878 21.1055C68.4267 21.878 68 22.9188 68 24.0033C68 25.0878 68.4267 26.1286 69.1878 26.9011Z" fill="white"/>
        <path d="M80.8945 13.9266L83.6098 13.3169V19.2263H83.6619C84.4735 17.9009 86.4725 17.3466 87.7868 17.3466C88.7049 17.3477 89.613 17.5371 90.4551 17.903C91.2971 18.2689 92.0552 18.8035 92.6825 19.474C94.1586 21.0747 94.3656 22.9197 94.3656 24.0038C94.3656 26.4159 93.2791 27.9006 92.6583 28.5701C90.6117 30.7766 87.8556 30.661 87.7868 30.661C86.4528 30.661 84.4662 30.0961 83.6619 28.7813H83.6098V30.3216H80.8945V13.9266ZM90.3712 21.0667C89.6215 20.3227 88.608 19.9052 87.5517 19.9052C86.4955 19.9052 85.4819 20.3227 84.7323 21.0667C83.9837 21.8412 83.6095 22.8202 83.6098 24.0038C83.6098 25.17 83.9839 26.1448 84.7323 26.9279C85.1013 27.3002 85.5406 27.5956 86.0245 27.7973C86.5083 27.9989 87.0275 28.1027 87.5517 28.1027C88.0759 28.1027 88.5951 27.9989 89.0789 27.7973C89.5629 27.5956 90.0021 27.3002 90.3712 26.9279C91.1193 26.1445 91.4935 25.1698 91.4939 24.0038C91.4939 22.8205 91.1197 21.8415 90.3712 21.0667Z" fill="white"/>
        <path d="M108.549 27.5796C107.628 28.7305 105.633 30.6134 102.675 30.6601C99.6163 30.6601 97.9865 29.0581 97.5578 28.6107C96.3683 27.3717 95.7041 25.7206 95.7041 24.0029C95.7041 22.2853 96.3683 20.6341 97.5578 19.3951C97.9801 18.9548 99.6118 17.3457 102.675 17.3457C104.368 17.3457 106.172 18.1903 107.376 19.463C109.425 21.6283 109.227 24.3404 109.227 24.9427H98.7326C98.7793 25.6769 99.0769 26.373 99.5752 26.9141C99.9564 27.3374 100.422 27.6758 100.943 27.9074C101.463 28.1389 102.027 28.2585 102.596 28.2582C104.058 28.2582 105.277 27.6055 106.251 26.3002L108.549 27.5796ZM106.042 22.6976C105.764 21.7407 105.289 21.0098 104.62 20.5047C103.955 20.002 103.142 19.7356 102.309 19.7477C101.483 19.7322 100.679 20.0096 100.038 20.5308C99.3937 21.053 98.9586 21.7753 98.7326 22.6976H106.042Z" fill="white"/>
        <path d="M115.865 30.6834C114.391 29.9874 113.229 29.2123 112.64 28.5725C112.031 27.9112 111.726 26.9627 111.726 25.7268V20.2445H110.186V17.6859H111.726V13.927L114.441 13.3169V17.6859H116.608V20.2445H114.441C114.441 25.6397 114.435 25.4312 114.457 25.7626C114.494 26.3139 114.528 27.055 115.564 27.6848L117.03 28.5211L115.865 30.6834Z" fill="white"/>
        <path d="M25.9071 25.47L28.3537 27.2398C27.5102 28.3165 26.4307 29.1849 25.1984 29.778C23.9661 30.3713 22.6138 30.6734 21.2464 30.6611C19.0433 30.6611 14.8839 29.6862 12.9982 25.3701C12.5354 24.3033 12.3006 23.1515 12.3088 21.9886C12.3088 16.8208 16.5722 13.3168 21.2464 13.3168C22.6138 13.3044 23.9661 13.6065 25.1984 14.1997C26.4306 14.7928 27.5102 15.6613 28.3537 16.7378L25.8525 18.6134C25.3495 17.8562 24.6651 17.2368 23.8613 16.8118C23.0577 16.387 22.1603 16.17 21.2514 16.1809C18.0982 16.1809 15.4967 18.8596 15.4967 21.9886C15.4967 25.1158 18.0964 27.7967 21.2514 27.7967C21.5423 27.7967 24.1642 27.8506 25.9071 25.47Z" fill="white"/>
    </g>
</svg>
