<svg width="141" height="51" viewBox="0 0 141 51" fill="none" xmlns="http://www.w3.org/2000/svg">
    <g clip-path="url(#clip0_114_587)">
        <path d="M140.206 0.749023H0.206055V50.939H140.206V0.749023Z" fill="#303E47"/>
        <path fill-rule="evenodd" clip-rule="evenodd" d="M22.0234 12.6738H14.978L19.2052 19.2226H15.3811L17.3938 23.2978H21.8216L23.6336 26.0625H19.2057L21.6209 30.1374H26.4518L32.2897 39.0146L37.7244 30.1374L42.1534 29.9915L44.9711 25.9167H40.5426L42.1528 23.2974H46.3805L48.9969 19.0771H44.7703L48.7957 12.6738H41.5501L32.089 28.0997L22.0234 12.6738Z" fill="#22C99D"/>
        <path d="M69.1705 19.6523H72.8802L66.7495 32.0351H62.8197L56.689 19.6523H60.3987L64.8008 29.0631L69.1705 19.6523ZM86.8659 19.6523H90.2613V32.0351H86.8659V30.2523C85.5874 31.6554 83.7541 32.3572 81.3643 32.3572C79.2054 32.3572 77.3613 31.7296 75.831 30.4749C74.3008 29.2038 73.5361 27.66 73.5361 25.8437C73.5361 24.0111 74.3008 22.4677 75.831 21.2125C77.3613 19.9577 79.2054 19.3306 81.3643 19.3306C83.7541 19.3306 85.5874 20.0238 86.8659 21.4111V19.6523ZM78.3464 28.6916C79.2895 29.4346 80.4736 29.8061 81.8992 29.8061C83.3244 29.8061 84.5085 29.4346 85.4515 28.6916C86.3941 27.9324 86.8659 26.983 86.8659 25.8437C86.8659 24.7048 86.3941 23.7632 85.4515 23.0206C84.5085 22.2613 83.3244 21.8812 81.8992 21.8812C80.4736 21.8812 79.2895 22.2609 78.3464 23.0206C77.4033 23.7636 76.9315 24.7048 76.9315 25.8437C76.9315 26.983 77.4033 27.9324 78.3464 28.6916ZM104.877 19.6523H108.587L102.457 32.0351H98.5264L92.3956 19.6523H96.1059L100.507 29.0631L104.877 19.6523ZM112.796 26.983C113.047 27.9242 113.623 28.6505 114.524 29.1622C115.426 29.6577 116.526 29.9052 117.825 29.9052C119.628 29.9052 120.98 29.3934 121.881 28.3699L124.68 29.6577C123.128 31.4572 120.833 32.3572 117.794 32.3572C115.237 32.3572 113.173 31.7464 111.6 30.5247C110.028 29.2862 109.243 27.726 109.243 25.8437C109.243 23.9948 110.018 22.4509 111.569 21.2125C113.12 19.9577 115.111 19.3306 117.543 19.3306C119.848 19.3306 121.735 19.9663 123.202 21.2374C124.69 22.5088 125.434 24.0523 125.434 25.8686C125.434 26.1491 125.392 26.5206 125.308 26.983H112.796ZM112.764 24.8039H122.007C121.777 23.7966 121.242 23.0369 120.403 22.5251C119.586 22.0134 118.622 21.7573 117.511 21.7573C116.254 21.7573 115.206 22.0301 114.367 22.5749C113.529 23.1197 112.995 23.8627 112.764 24.8039Z" fill="white"/>
    </g>
    <defs>
        <clipPath id="clip0_114_587">
            <rect width="140" height="50.19" fill="white" transform="translate(0.206055 0.749023)"/>
        </clipPath>
    </defs>
</svg>
