<svg width="32" height="32" viewBox="0 0 32 32" fill="none" xmlns="http://www.w3.org/2000/svg">
<g clip-path="url(#clip0_1302_7863)">
<path d="M24.3175 8.49197C22.7875 7.80197 21.1475 7.29197 19.4325 7.00197C19.4172 6.99904 19.4014 7.00093 19.3872 7.00738C19.3731 7.01383 19.3613 7.02452 19.3535 7.03797C19.1435 7.40697 18.9095 7.88797 18.7455 8.26797C16.9266 7.99621 15.0774 7.99621 13.2585 8.26797C13.0758 7.84683 12.8698 7.4362 12.6415 7.03797C12.6337 7.02436 12.622 7.01342 12.6079 7.00663C12.5938 6.99984 12.578 6.99752 12.5625 6.99997C10.8485 7.28997 9.20848 7.79997 7.67748 8.49097C7.66431 8.4965 7.65314 8.50592 7.64548 8.51797C4.53348 13.093 3.68048 17.555 4.09948 21.961C4.10065 21.9718 4.104 21.9822 4.10933 21.9917C4.11465 22.0011 4.12185 22.0094 4.13048 22.016C5.94687 23.3384 7.97282 24.3458 10.1235 24.996C10.1385 25.0006 10.1545 25.0006 10.1695 24.9959C10.1845 24.9913 10.1977 24.9823 10.2075 24.97C10.6703 24.351 11.0804 23.6944 11.4335 23.007C11.4384 22.9976 11.4412 22.9872 11.4418 22.9766C11.4423 22.9661 11.4406 22.9555 11.4367 22.9456C11.4328 22.9358 11.4269 22.9268 11.4192 22.9195C11.4116 22.9121 11.4025 22.9065 11.3925 22.903C10.7465 22.6597 10.1206 22.3661 9.52048 22.025C9.5097 22.0188 9.50061 22.0101 9.49404 21.9995C9.48746 21.989 9.48361 21.977 9.48281 21.9646C9.48202 21.9522 9.48432 21.9398 9.48949 21.9286C9.49467 21.9173 9.50257 21.9075 9.51248 21.9C9.63848 21.807 9.76448 21.71 9.88448 21.613C9.89528 21.6043 9.90829 21.5987 9.92206 21.5969C9.93584 21.5952 9.94983 21.5973 9.96248 21.603C13.8895 23.367 18.1425 23.367 22.0235 21.603C22.0362 21.5969 22.0503 21.5946 22.0643 21.5961C22.0782 21.5977 22.0915 21.6032 22.1025 21.612C22.2225 21.71 22.3475 21.807 22.4745 21.9C22.4845 21.9073 22.4925 21.917 22.4979 21.9282C22.5032 21.9394 22.5057 21.9517 22.5051 21.9641C22.5045 21.9765 22.5008 21.9885 22.4945 21.9991C22.4881 22.0098 22.4791 22.0186 22.4685 22.025C21.8705 22.369 21.2485 22.66 20.5955 22.902C20.5855 22.9056 20.5763 22.9114 20.5687 22.9188C20.561 22.9263 20.5551 22.9353 20.5512 22.9452C20.5473 22.9551 20.5456 22.9658 20.5462 22.9764C20.5467 22.9871 20.5496 22.9975 20.5545 23.007C20.9145 23.694 21.3265 24.348 21.7795 24.969C21.7889 24.9817 21.802 24.9912 21.8171 24.9963C21.8321 25.0013 21.8483 25.0015 21.8635 24.997C24.0178 24.3486 26.0471 23.3407 27.8655 22.016C27.8744 22.0098 27.8818 22.0017 27.8873 21.9924C27.8928 21.9831 27.8963 21.9727 27.8975 21.962C28.3975 16.868 27.0595 12.442 24.3485 8.51997C24.3418 8.50723 24.3308 8.49729 24.3175 8.49197ZM12.0205 19.278C10.8385 19.278 9.86348 18.209 9.86348 16.898C9.86348 15.586 10.8195 14.518 12.0205 14.518C13.2305 14.518 14.1965 15.595 14.1775 16.898C14.1775 18.21 13.2215 19.278 12.0205 19.278V19.278ZM19.9955 19.278C18.8125 19.278 17.8385 18.209 17.8385 16.898C17.8385 15.586 18.7935 14.518 19.9955 14.518C21.2055 14.518 22.1715 15.595 22.1525 16.898C22.1525 18.21 21.2065 19.278 19.9955 19.278V19.278Z" fill="#828282"/>
</g>
<defs>
<clipPath id="clip0_1302_7863">
<rect width="24" height="24" fill="white" transform="translate(4 4)"/>
</clipPath>
</defs>
</svg>
