<svg width="32" height="32" viewBox="0 0 32 32" fill="none" xmlns="http://www.w3.org/2000/svg">
<g clip-path="url(#clip0_1302_7869)">
<path d="M27.5006 10.5071C27.3647 10.0223 27.1 9.58342 26.7346 9.23708C26.3589 8.88008 25.8984 8.62471 25.3966 8.49508C23.5186 8.00008 15.9946 8.00008 15.9946 8.00008C12.8579 7.96439 9.72205 8.12135 6.60462 8.47008C6.10281 8.60929 5.64318 8.87036 5.26662 9.23008C4.89662 9.58608 4.62862 10.0251 4.48862 10.5061C4.15231 12.3178 3.98891 14.1574 4.00062 16.0001C3.98862 17.8411 4.15162 19.6801 4.48862 21.4941C4.62562 21.9731 4.89262 22.4101 5.26362 22.7631C5.63462 23.1161 6.09662 23.3711 6.60462 23.5061C8.50762 24.0001 15.9946 24.0001 15.9946 24.0001C19.1353 24.0358 22.2752 23.8789 25.3966 23.5301C25.8984 23.4004 26.3589 23.1451 26.7346 22.7881C27.0999 22.4418 27.3643 22.0029 27.4996 21.5181C27.8447 19.707 28.0125 17.8667 28.0006 16.0231C28.0266 14.1717 27.859 12.3226 27.5006 10.5061V10.5071ZM13.6026 19.4241V12.5771L19.8626 16.0011L13.6026 19.4241Z" fill="#828282"/>
</g>
<defs>
<clipPath id="clip0_1302_7869">
<rect width="24" height="24" fill="white" transform="translate(4 4)"/>
</clipPath>
</defs>
</svg>
