<svg width="16" height="16" viewBox="0 0 16 16" fill="none" xmlns="http://www.w3.org/2000/svg">
<g clip-path="url(#clip0_1335_7936)">
<path d="M15.3421 9.13158L6.34779 0.137243C6.20217 -0.00838162 5.97842 -0.041819 5.79655 0.0547431C5.61467 0.151305 5.51686 0.355367 5.55592 0.557866C5.88061 2.2363 5.6628 3.88098 4.90905 5.44597C4.57968 6.13034 4.21343 6.64972 3.96249 6.96722L8.51216 11.5169C8.82966 11.2659 9.34903 10.8997 10.0334 10.5703C11.5984 9.81658 13.2431 9.59877 14.9218 9.92345C15.124 9.96252 15.3281 9.86502 15.4246 9.68283C15.5212 9.50096 15.4878 9.27721 15.3421 9.13158ZM3.32468 7.65534L1.25031 9.7297C0.779691 10.2003 0.52063 10.8263 0.52063 11.4919C0.52063 12.1575 0.779691 12.7831 1.25031 13.2538L2.22562 14.2291C2.71125 14.7147 3.34937 14.9578 3.9878 14.9578C4.62593 14.9578 5.26405 14.7147 5.74967 14.2291L7.82404 12.1547L3.32468 7.65534ZM2.70875 11.9606C2.58875 11.9606 2.46906 11.9147 2.3775 11.8231C2.19437 11.64 2.19437 11.3434 2.3775 11.1603L3.65624 9.88158C3.83937 9.69846 4.13624 9.69846 4.31905 9.88158C4.50218 10.0647 4.50218 10.3613 4.31905 10.5444L3.04031 11.8231C2.94875 11.9147 2.82875 11.9606 2.70875 11.9606ZM5.5978 11.8231L4.31905 13.1022C4.22749 13.1934 4.1078 13.2394 3.9878 13.2394C3.8678 13.2394 3.7478 13.1934 3.65624 13.1022C3.47312 12.9191 3.47312 12.6222 3.65624 12.4391L4.93499 11.1603C5.11811 10.9772 5.41499 10.9772 5.5978 11.1603C5.78092 11.3434 5.78092 11.64 5.5978 11.8231Z" fill="#17BEBB"/>
<path d="M12.5484 5.01174L10.4672 2.93049C11.0362 2.76612 11.6762 2.90768 12.1237 3.35518C12.5715 3.80299 12.7131 4.44268 12.5484 5.01174Z" fill="#17BEBB"/>
<path d="M10.9162 14.5837L9.6375 15.8627C9.54968 15.9505 9.43031 15.9999 9.30593 15.9999C9.18156 15.9999 9.0625 15.9505 8.97469 15.8627L7.20813 14.0962L8.81156 12.493C8.83187 12.4737 8.96 12.3537 9.18093 12.1855L10.9162 13.9209C11.0993 14.104 11.0993 14.4009 10.9162 14.5837Z" fill="#17BEBB"/>
<path d="M13.136 2.81173C13.0161 2.81173 12.8961 2.76598 12.8046 2.67442C12.6215 2.49135 12.6215 2.19457 12.8046 2.01151L13.7462 1.06989C13.9292 0.88686 14.2261 0.88686 14.4091 1.06989C14.5922 1.25295 14.5922 1.54973 14.4091 1.73279L13.4675 2.67445C13.376 2.76595 13.256 2.81173 13.136 2.81173Z" fill="#17BEBB"/>
<path d="M10.9857 1.91009C10.7268 1.91009 10.517 1.70021 10.517 1.44134V0.468748C10.517 0.209874 10.7268 0 10.9857 0C11.2446 0 11.4545 0.209874 11.4545 0.468748V1.44134C11.4545 1.70021 11.2446 1.91009 10.9857 1.91009Z" fill="#17BEBB"/>
<path d="M15.0106 4.96289H14.038C13.7791 4.96289 13.5693 4.75301 13.5693 4.49414C13.5693 4.23526 13.7791 4.02539 14.038 4.02539H15.0106C15.2695 4.02539 15.4794 4.23526 15.4794 4.49414C15.4794 4.75301 15.2695 4.96289 15.0106 4.96289Z" fill="#17BEBB"/>
</g>
<defs>
<clipPath id="clip0_1335_7936">
<rect width="16" height="16" fill="white"/>
</clipPath>
</defs>
</svg>
