<svg width="16" height="16" viewBox="0 0 16 16" fill="none" xmlns="http://www.w3.org/2000/svg">
<path d="M15.3775 11.739C14.3512 11.739 13.51 10.8968 13.51 9.86948C13.51 8.84211 14.3512 8.00001 15.3775 8.00001C15.5963 8.00001 15.7981 8.05053 15.9832 8.10104V1.68421C15.9832 0.757864 15.2261 0 14.3007 0H10.0442C9.75816 0.875818 8.95064 1.49895 7.99159 1.49895C7.03254 1.49895 6.225 0.875818 5.93901 0H1.68244C0.757068 0 0 0.757864 0 1.68421V3.09891C0.100928 3.08211 0.201857 3.0652 0.286 3.0652C1.36276 3.0652 2.22074 3.94101 2.22074 5.00198C2.22086 6.06318 1.36273 6.95581 0.286 6.95581C0.185071 6.95581 0.084143 6.93901 0 6.92209V14.3158C0 15.2421 0.757068 16 1.68244 16H14.3176C15.2429 16 16 15.2421 16 14.3158V11.6379C15.7981 11.7052 15.5963 11.7389 15.3775 11.7389L15.3775 11.739ZM3.76866 12.1937C3.04528 12.1937 2.4396 11.6042 2.4396 10.8633C2.4396 10.1391 3.02851 9.53279 3.76866 9.53279C4.49205 9.53279 5.09773 10.1223 5.09773 10.8633C5.09773 11.6042 4.50882 12.1937 3.76866 12.1937ZM5.21556 5.84425C5.21556 4.81688 6.03999 3.99156 7.06631 3.99156C8.09262 3.99156 8.91705 4.81685 8.91705 5.84425C8.91705 6.87162 8.09262 7.69694 7.06631 7.69694C6.0399 7.69694 5.21556 6.85484 5.21556 5.84425V5.84425ZM9.38801 13.6421C8.47956 13.6421 7.75605 12.918 7.75605 12.0085C7.75605 11.099 8.47944 10.3748 9.38801 10.3748C10.2965 10.3748 11.02 11.0989 11.02 12.0085C11.02 12.9179 10.2965 13.6421 9.38801 13.6421ZM12.366 5.00215C11.7435 5.00215 11.222 4.49685 11.222 3.85695C11.222 3.21692 11.7267 2.71174 12.366 2.71174C12.9884 2.71174 13.51 3.21704 13.51 3.85695C13.51 4.49685 13.0052 5.00215 12.366 5.00215Z" fill="#17BEBB"/>
</svg>
