<svg width="16" height="16" viewBox="0 0 16 16" fill="none" xmlns="http://www.w3.org/2000/svg">
<g clip-path="url(#clip0_1335_7927)">
<path d="M0.479356 7.0293C0.217949 7.0293 0.00604248 7.24123 0.00604248 7.50261V14.4544C0.00604248 14.7158 0.21798 14.9278 0.479356 14.9278H3.33102V7.0293H0.479356Z" fill="#17BEBB"/>
<path d="M15.994 9.64337C15.994 9.04252 15.6711 8.51564 15.1898 8.22708C15.3742 7.9608 15.4824 7.63777 15.4824 7.29005C15.4824 6.38027 14.7422 5.64008 13.8324 5.64008H10.3493C10.4561 5.15633 10.6021 4.43042 10.7037 3.67051C10.9683 1.69297 10.7875 0.596253 10.1348 0.219096C9.72781 -0.0159978 9.28906 -0.0636854 8.89931 0.0846899C8.59822 0.199378 8.19159 0.481347 7.95987 1.17338L7.04443 3.57029C6.58034 4.71645 5.15912 5.91973 4.27771 6.58508V15.1375C5.91128 15.7099 7.6159 16 9.35497 16H13.1502C14.0599 16 14.8001 15.2598 14.8001 14.3501C14.8001 14.0315 14.7094 13.7337 14.5523 13.4812C15.1024 13.2133 15.4823 12.6485 15.4823 11.9967C15.4823 11.649 15.3741 11.326 15.1897 11.0597C15.6711 10.7711 15.994 10.2442 15.994 9.64337Z" fill="#17BEBB"/>
</g>
<defs>
<clipPath id="clip0_1335_7927">
<rect width="16" height="16" fill="white"/>
</clipPath>
</defs>
</svg>
