<svg width="16" height="16" viewBox="0 0 16 16" fill="none" xmlns="http://www.w3.org/2000/svg">
<g clip-path="url(#clip0_1335_7918)">
<path d="M15.532 1.36402C15.212 1.02402 14.758 0.828008 14.29 0.828008H12.8C12.806 0.56 12.81 0.284023 12.81 0H3.2C3.2 0.283984 3.20399 0.56 3.21 0.828008H1.71C1.24199 0.828008 0.788009 1.02402 0.468009 1.36402C0.143985 1.70605 -0.0239833 2.17402 0.00398549 2.64805C0.271993 7.11605 2.57801 9.92004 6.23399 10.3361L5.52598 12.8C4.68399 12.8 4.00199 13.482 4.00199 14.324V16H12.01V14.324C12.01 13.482 11.328 12.8 10.486 12.8L9.77801 10.3361C13.426 9.91605 15.73 7.11406 15.996 2.64805C16.024 2.17605 15.856 1.70805 15.532 1.36402ZM1.60199 2.55203C1.6 2.50805 1.61801 2.47805 1.63399 2.46203C1.66399 2.43004 1.7 2.43004 1.71 2.43004H3.28602C3.52402 5.57605 4.21801 7.36004 4.89203 8.36805C2.32602 7.29203 1.71399 4.41805 1.60199 2.55203ZM11.118 8.36203C11.792 7.35203 12.484 5.57004 12.722 2.42805H14.292C14.304 2.42805 14.338 2.42805 14.368 2.46004C14.384 2.47605 14.402 2.50605 14.4 2.55004C14.286 4.41605 13.676 7.28203 11.118 8.36203Z" fill="#17BEBB"/>
</g>
<defs>
<clipPath id="clip0_1335_7918">
<rect width="16" height="16" fill="white"/>
</clipPath>
</defs>
</svg>
