<svg width="208" height="71" viewBox="0 0 208 71" fill="none" xmlns="http://www.w3.org/2000/svg">
<rect width="208" height="71" fill="#000616"/>
<g clip-path="url(#clip0_1332_7870)">
<path d="M94.1343 31.0311C93.4063 29.6885 92.4067 28.6391 91.1515 27.9075C89.8977 27.1758 88.4677 26.8063 86.9135 26.8063C85.5889 26.8063 84.3785 27.0723 83.3082 27.6056C82.2393 28.1403 81.3784 28.8275 80.7645 29.654L80.3687 30.196V22.8403C80.3687 22.6505 80.2113 22.4953 80.0192 22.4953H77.4047C77.3123 22.4949 77.2234 22.531 77.1576 22.5956C77.0918 22.6603 77.0545 22.7483 77.0537 22.8403V44.1239C77.0537 44.3122 77.2112 44.4674 77.4033 44.4674H80.0177C80.1102 44.4678 80.199 44.4317 80.2648 44.3671C80.3306 44.3024 80.3679 44.2145 80.3687 44.1224V41.4501L80.7645 41.9648C81.3784 42.7827 82.2205 43.454 83.2735 43.9701C84.3265 44.4948 85.5557 44.7607 86.9135 44.7607C88.4489 44.7607 89.8703 44.374 91.1342 43.6078C92.398 42.8517 93.4063 41.7678 94.1343 40.3993C94.8623 39.0236 95.232 37.4395 95.232 35.7016C95.232 33.955 94.8623 32.3896 94.1343 31.0297V31.0311ZM91.046 39.0323C90.5116 39.9954 89.7923 40.7343 88.9227 41.2345C88.0617 41.73 87.0847 41.9908 86.0902 41.9906C85.1152 41.9906 84.169 41.7419 83.2995 41.2518C82.4227 40.7616 81.7034 40.0299 81.1675 39.0826C80.6417 38.1453 80.3687 37.027 80.3687 35.762C80.3687 34.5056 80.6417 33.3958 81.1675 32.4586C81.7019 31.53 82.4227 30.8055 83.2995 30.3081C84.1564 29.8295 85.1219 29.5767 86.1045 29.5737C87.0871 29.5706 88.0542 29.8175 88.914 30.2908C89.809 30.7885 90.5472 31.5241 91.046 32.4154C91.5733 33.3354 91.8448 34.4452 91.8448 35.7016C91.8448 36.958 91.5733 38.0763 91.046 39.0323ZM114.806 35.279C114.806 33.5798 114.442 32.0719 113.722 30.7709C113.028 29.4994 111.985 28.4504 110.715 27.7464C109.432 27.0349 107.942 26.6712 106.295 26.6712C104.589 26.6712 103.055 27.0449 101.729 27.7809C100.421 28.5153 99.3556 29.6113 98.6612 30.9363C97.9332 32.2976 97.5605 33.9004 97.5605 35.6944C97.5605 37.4985 97.9418 39.1013 98.6958 40.4626C99.4103 41.789 100.486 42.8884 101.798 43.6351C103.116 44.3812 104.632 44.7621 106.296 44.7621C108.342 44.7621 110.084 44.2418 111.462 43.2197C112.58 42.4034 113.464 41.3095 114.026 40.0471C114.13 39.8214 113.948 39.5613 113.705 39.5613H110.862C110.803 39.5625 110.744 39.579 110.693 39.6092C110.642 39.6394 110.599 39.6823 110.569 39.7338C109.685 41.2863 108.255 42.0668 106.296 42.0668C104.858 42.0668 103.627 41.6068 102.639 40.7055C101.642 39.8042 101.088 38.5996 100.975 37.1161L100.958 36.8832H114.391C114.476 36.8838 114.559 36.8532 114.623 36.7973C114.687 36.7414 114.728 36.664 114.738 36.5799C114.788 36.1481 114.811 35.7136 114.806 35.279ZM111.365 34.3158H100.977L101.011 34.0743C101.185 32.644 101.757 31.4825 102.701 30.633C103.655 29.792 104.807 29.3579 106.133 29.3579C107.598 29.3579 108.836 29.792 109.825 30.6502C110.822 31.517 111.342 32.6785 111.368 34.1002V34.3158H111.365ZM122.097 29.6483V39.9293C122.097 40.6768 122.279 41.2201 122.635 41.5637C122.999 41.8972 123.571 42.0639 124.394 42.0639H126.111C126.302 42.0639 126.458 42.2221 126.458 42.4147V44.4099C126.458 44.5021 126.422 44.5907 126.357 44.6564C126.292 44.7221 126.204 44.7596 126.111 44.7607H123.744C122.132 44.7607 120.891 44.3841 120.042 43.628C119.21 42.8805 118.785 41.6428 118.785 39.9293V29.6483H117.016C116.923 29.6471 116.834 29.6094 116.769 29.5434C116.704 29.4774 116.668 29.3885 116.669 29.2961V27.3727C116.669 27.1786 116.825 27.0205 117.016 27.0205H118.785V22.8489C118.785 22.6548 118.941 22.4967 119.132 22.4967H121.751C121.941 22.4967 122.097 22.6548 122.097 22.8489V27.022H126.111C126.302 27.022 126.458 27.1801 126.458 27.3741V29.2975C126.459 29.3899 126.423 29.4788 126.358 29.5449C126.293 29.6109 126.204 29.6486 126.111 29.6497H122.096L122.097 29.6483ZM142.773 39.6734C142.773 40.6365 142.484 41.5206 141.934 42.2825C141.373 43.0458 140.562 43.6524 139.532 44.0937C138.493 44.5364 137.248 44.7621 135.84 44.7621C134.414 44.7621 133.114 44.5106 131.984 44.0175C130.865 43.523 129.962 42.846 129.312 41.9978C128.803 41.3579 128.465 40.6004 128.329 39.7956C128.292 39.5871 128.473 39.396 128.69 39.396H131.551C131.633 39.3958 131.712 39.4231 131.776 39.4735C131.84 39.5238 131.885 39.5943 131.904 39.6734C132.065 40.2886 132.445 40.8263 133.04 41.2604C133.773 41.798 134.693 42.0654 135.776 42.0654C136.906 42.0654 137.798 41.8498 138.431 41.4257C139.09 40.9829 139.423 40.4022 139.423 39.7007C139.423 38.946 139.045 38.3739 138.304 38.0102C137.628 37.6796 136.545 37.3159 135.09 36.9177C133.7 36.5526 132.562 36.1989 131.687 35.8597C130.844 35.5189 130.091 34.9913 129.484 34.3173C128.879 33.6488 128.573 32.7389 128.573 31.6291C128.573 30.7278 128.862 29.8869 129.421 29.1336C129.981 28.3789 130.793 27.7723 131.849 27.3382C132.906 26.8969 134.151 26.6712 135.542 26.6712C137.6 26.6712 139.279 27.1743 140.534 28.1619C141.617 29.0287 142.267 30.1816 142.475 31.6033C142.481 31.6532 142.475 31.7038 142.46 31.7515C142.444 31.7992 142.418 31.843 142.384 31.88C142.35 31.917 142.308 31.9463 142.261 31.966C142.215 31.9857 142.165 31.9954 142.114 31.9943H139.396C139.313 31.9936 139.233 31.9647 139.169 31.9124C139.105 31.86 139.061 31.7875 139.045 31.7068C138.899 31.0789 138.538 30.5213 138.024 30.1298C137.374 29.6181 136.49 29.3579 135.406 29.3579C134.342 29.3579 133.51 29.5591 132.933 29.9573C132.327 30.3641 132.021 30.919 132.021 31.586C132.021 32.1064 132.237 32.5923 132.634 32.956C133.014 33.3024 133.492 33.5712 134.034 33.771C134.803 34.0303 135.58 34.2643 136.364 34.4725C137.7 34.8204 138.809 35.1668 139.667 35.5219C140.498 35.8618 141.242 36.383 141.843 37.0471C142.439 37.6983 142.746 38.5823 142.773 39.6734ZM145.782 44.1613C145.566 43.9784 145.394 43.7503 145.277 43.4934C145.16 43.2364 145.101 42.9569 145.106 42.6749C145.106 42.0884 145.328 41.5867 145.782 41.19C146.234 40.7875 146.79 40.5876 147.449 40.5876C148.09 40.5876 148.637 40.786 149.091 41.19C149.545 41.5925 149.767 42.0884 149.767 42.6749C149.767 43.2628 149.545 43.7645 149.091 44.1613C148.637 44.5638 148.09 44.7621 147.449 44.7621C146.781 44.7621 146.225 44.5652 145.782 44.1613ZM156.292 22.2653C156.292 22.869 156.097 23.3549 155.689 23.7574C155.497 23.9512 155.268 24.104 155.014 24.2063C154.761 24.3086 154.489 24.3584 154.216 24.3525C153.605 24.3525 153.114 24.1599 152.706 23.7574C152.507 23.5642 152.349 23.3318 152.244 23.075C152.14 22.8181 152.089 22.5424 152.097 22.2653C152.097 21.6701 152.299 21.1828 152.706 20.7803C152.903 20.582 153.138 20.4261 153.397 20.3222C153.657 20.2184 153.935 20.1688 154.214 20.1766C154.799 20.1766 155.275 20.3778 155.689 20.7803C156.097 21.1828 156.292 21.6701 156.292 22.2653ZM155.822 27.0291V44.4042C155.822 44.6011 155.668 44.7636 155.478 44.7636H152.904C152.811 44.7613 152.722 44.7222 152.657 44.6549C152.592 44.5875 152.557 44.4974 152.559 44.4042V27.0291C152.559 26.8322 152.715 26.6712 152.904 26.6712H155.475C155.666 26.6712 155.822 26.8322 155.822 27.0306V27.0291ZM175.134 30.9535C174.372 29.6111 173.243 28.5111 171.879 27.7809C170.503 27.0435 168.942 26.6712 167.249 26.6712C165.546 26.6712 163.985 27.0449 162.618 27.7809C161.251 28.5104 160.119 29.6104 159.354 30.9535C158.559 32.3234 158.155 33.9176 158.155 35.6944C158.155 37.4985 158.552 39.1013 159.319 40.4626C160.073 41.7929 161.181 42.8906 162.521 43.6351C163.871 44.3812 165.405 44.7621 167.08 44.7621C168.783 44.7621 170.353 44.3812 171.764 43.6265C173.153 42.8908 174.31 41.7868 175.107 40.4367C175.919 39.0668 176.333 37.4726 176.333 35.6944C176.333 33.9176 175.927 32.3234 175.134 30.9535ZM172.072 39.1286C171.526 40.073 170.802 40.7831 169.92 41.2604C169.039 41.7276 168.085 41.9705 167.08 41.9705C165.501 41.9705 164.171 41.4156 163.13 40.3246C162.09 39.2321 161.559 37.6796 161.559 35.6958C161.559 34.369 161.815 33.2233 162.318 32.289C162.82 31.3618 163.509 30.6416 164.373 30.173C165.231 29.6985 166.197 29.4538 167.178 29.4628C168.184 29.4628 169.136 29.6971 170.001 30.173C170.873 30.6416 171.58 31.3517 172.11 32.289C172.63 33.2161 172.903 34.369 172.903 35.6958C172.903 37.0298 172.62 38.1827 172.074 39.1286H172.072Z" fill="white"/>
<path d="M62.0846 36.5914L59.1451 34.9153L55.066 32.5952L55.0573 32.6038L42.8662 25.6779V25.6607L38.7871 23.3521V49.8308C38.7871 51.4825 39.6538 52.9674 41.1271 53.8112C41.8421 54.2109 42.6452 54.4279 43.457 54.4279C44.2601 54.4279 45.0647 54.2109 45.797 53.8098L62.0932 44.5408C62.8036 44.1451 63.3944 43.5672 63.8042 42.8671C64.2139 42.1671 64.4277 41.3705 64.4231 40.5604C64.4226 39.7514 64.2055 38.9571 63.7943 38.2593C63.383 37.5615 62.7924 36.9853 62.0831 36.59L62.0846 36.5914ZM60.045 41.0577L43.7401 50.3196C43.6538 50.3722 43.5546 50.4 43.4534 50.4C43.3522 50.4 43.253 50.3722 43.1667 50.3196C43.0796 50.271 43.0068 50.2006 42.9556 50.1154C42.9044 50.0301 42.8766 49.933 42.8749 49.8337V30.3268L50.9696 34.9225L55.066 37.234L60.045 40.0659C60.1334 40.1154 60.2069 40.1875 60.2581 40.2746C60.3092 40.3617 60.3362 40.4609 60.3362 40.5618C60.3362 40.6627 60.3092 40.7619 60.2581 40.849C60.2069 40.9361 60.1334 41.0082 60.045 41.0577Z" fill="#35C31E"/>
<path d="M54.9624 37.1619L38.9046 46.1362L37.5164 46.9168L35.9781 47.7822C35.2677 48.1827 34.4661 48.3955 33.6497 48.4003C32.8581 48.4003 32.0492 48.1847 31.3284 47.7822C29.8696 46.9599 29 45.4923 29 43.8549V25.5757C29 23.9369 29.8609 22.4707 31.3284 21.6484C32.0342 21.2438 32.8344 21.0308 33.6489 21.0308C34.4635 21.0308 35.2637 21.2438 35.9694 21.6484L38.9089 23.3044V27.8944L33.94 25.1042C33.8541 25.0477 33.7534 25.0177 33.6504 25.0177C33.5474 25.0177 33.4467 25.0477 33.3608 25.1042C33.2727 25.1473 33.0719 25.2853 33.0719 25.5843V43.8621C33.0719 44.1626 33.2727 44.2991 33.3608 44.3423C33.4477 44.396 33.548 44.4245 33.6504 44.4245C33.7527 44.4245 33.8531 44.396 33.94 44.3423L37.5078 42.3355L38.8973 41.5549L50.8487 34.8519L54.9653 37.1619H54.9624Z" fill="#35C31E"/>
<path d="M64.4231 28.8718C64.4231 30.5321 63.5579 32.0185 62.0918 32.8537L58.8302 34.7138L54.6356 32.3951L60.0436 29.3763C60.1318 29.3266 60.2053 29.2546 60.2566 29.1675C60.3078 29.0804 60.335 28.9813 60.3353 28.8804C60.3332 28.78 60.3052 28.6819 60.2541 28.5954C60.2031 28.5088 60.1306 28.4367 60.0436 28.3859L43.7329 19.1284C43.6469 19.0803 43.5502 19.0543 43.4516 19.0528C43.353 19.0513 43.2555 19.0743 43.1681 19.1198C43.0773 19.1673 43.0013 19.2386 42.9484 19.326C42.8954 19.4135 42.8675 19.5136 42.8677 19.6157V39.3138L38.7871 41.608V19.6071C38.7871 17.954 39.6538 16.459 41.1271 15.6252C41.8351 15.2154 42.6394 14.9995 43.4584 14.9995C44.2774 14.9995 45.0818 15.2154 45.7898 15.6252L62.0918 24.8913C62.8004 25.2895 63.3898 25.8682 63.7995 26.5679C64.2092 27.2677 64.4245 28.0633 64.4231 28.8732V28.8718Z" fill="#35C31E"/>
</g>
<defs>
<clipPath id="clip0_1332_7870">
<rect width="169" height="46" fill="white" transform="translate(29 15)"/>
</clipPath>
</defs>
</svg>
