<svg width="981" height="258" viewBox="0 0 981 258" fill="none" xmlns="http://www.w3.org/2000/svg">
<g clip-path="url(#clip0_678_915)">
<path d="M894.755 88.9129H877.282L885.902 47.3999L846.238 88.9129H861.11L855.09 130.426L894.755 88.9129Z" fill="#F6871F"/>
<path d="M241.761 210.581C230.997 205.409 223.463 200.485 219.158 195.81C214.886 191.176 212.752 184.53 212.756 175.87V93.1842L231.78 88.9121V172.394C231.78 177.395 232.359 181.084 233.518 183.46C234.902 186.07 237.036 188.205 239.645 189.59L249.89 195.443L241.761 210.581Z" fill="white"/>
<path d="M255.499 146.6C257.754 140.845 261.153 135.607 265.493 131.205C269.832 126.803 275.021 123.328 280.743 120.991C290.933 116.711 307.252 115.07 321.353 120.991C327.076 123.327 332.265 126.802 336.605 131.204C340.945 135.606 344.345 140.844 346.599 146.6C350.991 157.644 350.991 169.949 346.599 180.992C344.345 186.749 340.946 191.987 336.606 196.389C332.266 200.791 327.077 204.266 321.353 206.601C307.273 212.514 290.96 210.893 280.743 206.601C275.02 204.265 269.832 200.791 265.492 196.389C261.153 191.986 257.753 186.748 255.5 180.992C251.108 169.949 251.107 157.644 255.499 146.6ZM280.562 184.193C293.05 196.827 312.238 193.8 321.628 184.193C326.886 178.704 329.821 171.397 329.821 163.796C329.821 156.196 326.886 148.888 321.628 143.399C310.89 132.421 291.813 132.024 280.562 143.399C275.248 148.86 272.275 156.178 272.275 163.796C272.275 171.415 275.248 178.733 280.562 184.193Z" fill="white"/>
<path d="M362.592 119.527H381.616V169.1C381.616 182.501 391.388 191.418 403.019 191.418C414.648 191.418 424.422 182.498 424.422 169.1V119.527H443.447V170.747C443.447 188.01 433.743 197.393 431.191 199.741C420.462 209.605 407.829 210.443 403.019 210.443C401.4 210.443 386.861 210.792 374.847 199.741C372.301 197.4 362.592 188.014 362.592 170.747V119.527Z" fill="white"/>
<path d="M531.716 197.271H531.35C531.15 197.535 522.162 210.444 502.264 210.444C500.199 210.444 482.258 211.01 468.604 195.899C460.724 187.061 456.363 175.638 456.35 163.797C456.35 148.937 464.105 137.626 469.153 132.057C473.461 127.324 478.717 123.55 484.579 120.982C490.441 118.413 496.778 117.107 503.178 117.148C516.28 117.148 526.42 122.808 531.35 130.319H531.716V93.1842L550.739 88.9121V208.064H531.716V197.271ZM484.794 184.1C487.37 186.76 490.454 188.876 493.864 190.321C497.273 191.767 500.938 192.513 504.641 192.516C508.302 192.503 511.923 191.75 515.286 190.304C518.65 188.858 521.687 186.748 524.216 184.1C529.494 178.659 532.446 171.376 532.446 163.795C532.446 156.214 529.494 148.931 524.216 143.49C521.687 140.843 518.65 138.733 515.286 137.287C511.923 135.841 508.302 135.089 504.641 135.076C500.938 135.079 497.274 135.825 493.864 137.271C490.455 138.716 487.371 140.831 484.794 143.49C479.461 148.903 476.471 156.196 476.471 163.795C476.471 171.394 479.461 178.687 484.794 184.1Z" fill="white"/>
<path d="M566.827 93.1851L585.853 88.9131V130.32H586.218C591.905 121.033 605.912 117.149 615.121 117.149C621.554 117.157 627.917 118.484 633.818 121.048C639.718 123.612 645.03 127.358 649.425 132.056C659.768 143.272 661.219 156.2 661.219 163.796C661.219 180.698 653.606 191.101 649.256 195.792C634.915 211.253 615.603 210.443 615.121 210.443C605.774 210.443 591.854 206.485 586.218 197.272H585.853V208.065H566.827V93.1851ZM633.23 143.216C627.977 138.003 620.875 135.077 613.474 135.077C606.073 135.077 598.971 138.003 593.718 143.216C588.473 148.643 585.851 155.503 585.853 163.796C585.853 171.968 588.474 178.798 593.718 184.285C596.304 186.894 599.382 188.964 602.773 190.377C606.163 191.79 609.801 192.517 613.474 192.517C617.147 192.517 620.785 191.79 624.175 190.377C627.566 188.964 630.644 186.894 633.23 184.285C638.472 178.796 641.094 171.966 641.097 163.796C641.097 155.505 638.475 148.645 633.23 143.216Z" fill="white"/>
<path d="M760.599 188.858C754.147 196.922 740.171 210.116 719.44 210.443C698.011 210.443 686.591 199.218 683.587 196.083C675.252 187.401 670.598 175.832 670.598 163.796C670.598 151.761 675.252 140.191 683.587 131.509C686.546 128.424 697.979 117.149 719.44 117.149C731.306 117.149 743.944 123.067 752.383 131.985C766.741 147.157 765.356 166.161 765.356 170.381H691.819C692.146 175.526 694.231 180.403 697.723 184.195C700.394 187.161 703.659 189.532 707.306 191.155C710.953 192.777 714.9 193.615 718.891 193.613C729.136 193.613 737.673 189.039 744.502 179.893L760.599 188.858ZM743.039 154.65C741.086 147.945 737.762 142.823 733.069 139.284C728.414 135.762 722.716 133.895 716.879 133.98C711.093 133.871 705.455 135.815 700.965 139.467C696.451 143.126 693.402 148.187 691.819 154.65L743.039 154.65Z" fill="white"/>
<path d="M811.864 210.6C801.535 205.723 793.394 200.292 789.267 195.809C784.997 191.175 782.863 184.529 782.866 175.869V137.455H772.072V119.527H782.865V93.1881L801.889 88.9131V119.527H817.072V137.455H801.889C801.889 175.259 801.846 173.798 802.001 176.12C802.259 179.983 802.493 185.176 809.756 189.589L820.028 195.449L811.864 210.6Z" fill="white"/>
<path d="M181.529 174.07L198.672 186.471C192.762 194.015 185.198 200.1 176.563 204.256C167.928 208.413 158.453 210.53 148.871 210.444C133.434 210.444 104.289 203.613 91.076 173.37C87.8334 165.895 86.1881 157.824 86.2456 149.676C86.2456 113.465 116.119 88.9122 148.871 88.9122C158.453 88.8258 167.928 90.9423 176.563 95.0986C185.197 99.2548 192.762 105.34 198.672 112.883L181.146 126.026C177.622 120.72 172.826 116.38 167.194 113.402C161.563 110.425 155.275 108.905 148.906 108.981C126.812 108.981 108.583 127.751 108.583 149.676C108.583 171.588 126.799 190.373 148.906 190.373C150.945 190.373 169.316 190.751 181.529 174.07Z" fill="white"/>
</g>
<defs>
<clipPath id="clip0_678_915">
<rect width="808.508" height="163.2" fill="white" transform="translate(86.2456 47.3999)"/>
</clipPath>
</defs>
</svg>
