<svg width="208" height="71" viewBox="0 0 208 71" fill="none" xmlns="http://www.w3.org/2000/svg">
<rect width="208" height="71" fill="#212121"/>
<g clip-path="url(#clip0_1309_8612)">
<mask id="mask0_1309_8612" style="mask-type:luminance" maskUnits="userSpaceOnUse" x="14" y="19" width="180" height="32">
<path d="M194 19H14V51H194V19Z" fill="white"/>
</mask>
<g mask="url(#mask0_1309_8612)">
<path d="M129.414 41.1809C128.892 43.905 127.493 46.2215 125.216 48.1307C122.941 50.0398 120.457 50.9989 117.767 51.008H98.0391L104.209 19H123.936C126.638 19 128.751 19.9602 130.275 21.8807C131.799 23.8012 132.305 26.1178 131.791 28.8305C131.418 30.7851 130.145 32.8429 127.972 35.004C129.309 37.1719 129.79 39.2309 129.414 41.1809ZM122.157 41.1809C122.232 40.8738 122.236 40.5535 122.17 40.2444C122.104 39.9352 121.969 39.6453 121.775 39.3966C121.58 39.1547 121.331 38.9625 121.048 38.8353C120.765 38.7082 120.457 38.6497 120.148 38.6645H111.651L113.167 31.3503H121.556C122.26 31.3471 122.938 31.087 123.467 30.6182C124.022 30.1697 124.401 29.5376 124.538 28.8339C124.613 28.5268 124.617 28.2066 124.551 27.8974C124.485 27.5883 124.35 27.2984 124.156 27.0497C123.96 26.8084 123.711 26.6168 123.428 26.4902C123.146 26.3637 122.837 26.3057 122.529 26.321H110.054L106.707 43.687H119.178C119.881 43.6829 120.559 43.4229 121.086 42.9549C121.639 42.509 122.018 41.8808 122.157 41.1809Z" fill="#FFBC00"/>
<path d="M156.54 51.008H129.328L135.501 19H162.709L161.301 26.321H141.347L140.374 31.3503H155.793L154.385 38.6645H138.966L137.997 43.6972H157.951L156.54 51.008Z" fill="#FFBC00"/>
<path d="M192.592 26.321H181.496L176.721 51.008H169.464L174.225 26.3176H163.115L164.523 19H193.99L192.592 26.321Z" fill="#FFBC00"/>
<path d="M48.2222 51.008H40.9653L43.7614 36.5091L33.4821 51.008H28.9469L24.2597 36.5159L21.467 51.008H14.21L20.3796 19H27.6434L33.5867 38.6645L47.1283 19H54.3918L48.2222 51.008Z" fill="#F9F9F9"/>
<path d="M77.2466 51.008H50.0352L56.2116 19H83.423L82.0113 26.3176H62.0502L61.081 31.3469H76.5002L75.0886 38.6645H59.6697L58.7005 43.6938H78.6545L77.2466 51.008Z" fill="#F9F9F9"/>
<path d="M102.236 51.008H79.0596L85.2292 19H92.4863L87.7249 43.6938H103.647L102.236 51.008Z" fill="#F9F9F9"/>
</g>
</g>
<defs>
<clipPath id="clip0_1309_8612">
<rect width="180" height="32" fill="white" transform="translate(14 19)"/>
</clipPath>
</defs>
</svg>
