<svg width="730" height="338" viewBox="0 0 730 338" fill="none" xmlns="http://www.w3.org/2000/svg">
    <path d="M730 0H0V338H730V0Z" fill="black"/>
    <path d="M185.3 163.4L191.4 142.1H219.7C234.6 142.1 243.6 135.3 247.8 121L250.1 113.1C255.4 94.9 246.8 83.6 228 83.6H105L82.1001 163.4H185.3ZM227.8 105L223 122.4H197.1L202 105.1H227.8V105ZM260.6 163.4L268.2 150H303.2V163.4H326.2V83.5H281L233.9 163.4H260.6ZM293.7 105.2H303.2V130.6H279.2L293.7 105.2ZM420.1 120.2L422.2 113C427.5 94.6 418.9 83.5 400.1 83.5H356.4L333.5 163.4H357.4L363.7 141.4H378.6L385.4 163.4H410L402.8 139.9C411.4 137.3 417.1 130.7 420.1 120.2ZM374 105H399.8L395 122.3H369.1L374 105ZM442.5 163.4L465.4 83.5H441.4L418.6 163.4H442.5ZM295.8 174.7L268.8 206.6L257.7 174.7H154.1L131.3 254.7H234.6L247.2 210.5L255.6 235.2H271L293.3 208.9L280.1 254.7H304L326.8 174.7H295.8ZM358.9 174.7L311.7 254.6H338.4L346 241.2H381V254.6H404V174.8L358.9 174.7ZM357.1 222L371.5 196.6H381V222H357.1ZM485 197.6L491.5 174.7H418.8L412.3 197.6H438.6L422.2 254.7H446.1L462.5 197.6H485ZM516.9 197.6H553.2L559.8 174.8H521.1C506.2 174.8 497.2 181.6 493 195.9L484.5 225.1C479.1 243.8 487.8 254.6 506.6 254.6H536.7L543.2 231.8H506.9L516.9 197.6ZM621.7 174.7L613.5 203.3H586.1L594.2 174.7H570.3L547.5 254.7H571.4L579.5 226.1H606.9L598.8 254.7H622.8L645.6 174.7H621.7Z" fill="#F6FF00"/>
</svg>
