<svg width="208" height="71" viewBox="0 0 208 71" fill="none" xmlns="http://www.w3.org/2000/svg">
<rect width="208" height="71" fill="#222A33"/>
<g clip-path="url(#clip0_1304_7871)">
<path d="M140.72 37.75L145.27 37.72L154.78 26.04H138.74L134.68 42.47H139.58L140.72 37.75ZM143.1 28.13H148.2L140.86 37.16L143.1 28.13Z" fill="white"/>
<path d="M130.13 34.81L137.3 26.04H121.2L117.22 42.47H122.12L125.65 28.13H130.69L125.27 34.78L128.17 42.48H133.07L130.13 34.81Z" fill="white"/>
<path d="M194.33 26.04H189.43L182.75 33.55L184.65 26.04H179.75L175.69 42.47H180.59L182.37 35.3L186.57 42.47H191.47L186.79 34.43L194.33 26.04Z" fill="white"/>
<path d="M102.33 26L87.8198 26.04L83.5898 42.47H90.0898L103.69 28.27L102.33 26ZM89.6698 37.71L92.1599 28.13H98.7999V28.2L89.6698 37.71Z" fill="white"/>
<path d="M75.4405 38.52L73.4805 26.04H67.3305L63.2305 42.47H68.1305L70.9705 31.14L72.4705 42.47H79.3205L83.3805 26.04H78.4805L75.4405 38.52Z" fill="white"/>
<path d="M37.7402 33.38H33.0602L34.9002 26.04H30.0002L25.9102 42.47H30.8102L32.3502 36.17H37.0402L35.4602 42.47H40.3602L44.5002 26.04H39.6002L37.7402 33.38Z" fill="white"/>
<path d="M28.27 26.04H14.52L14 27.79H18.79L15.19 42.47H20.09L23.68 27.8H27.73L28.27 26.04Z" fill="white"/>
<path d="M169.85 28.4798H175.87L176.46 26.0298H165.56L161.53 42.4698H172.44L172.97 40.3698H166.95L169.85 28.4798Z" fill="white"/>
<path d="M54.5997 39.67H50.3997L53.7897 26.04H48.8897L45.4297 39.92L46.9297 42.4L47.0697 42.47H58.7997V42.4L62.9197 26.04H58.0197L54.5997 39.67Z" fill="white"/>
<path d="M161.15 26.04H156.19V26C154.79 31.46 152.17 42.47 152.17 42.47H157.07L161.15 26.04Z" fill="white"/>
<path d="M115.9 35.51L116.28 34.01H107.68L118.28 26.04H111.92L99.3997 36.6L99.6097 37.02L107.55 36.99L98.2097 42.02L98.3797 42.37L106.32 42.4L92.9297 50.41L93.1797 50.83L114.3 41.95L114.96 39.33H108.88L115.9 35.51Z" fill="#16BDF9"/>
</g>
<defs>
<clipPath id="clip0_1304_7871">
<rect width="180.33" height="24.83" fill="white" transform="translate(14 26)"/>
</clipPath>
</defs>
</svg>
