<svg width="261" height="93" viewBox="0 0 261 93" fill="none" xmlns="http://www.w3.org/2000/svg">
<g clip-path="url(#clip0_692_1126)">
<path opacity="0.95" d="M158.576 59.6533C153.568 59.6533 149.509 63.7611 149.509 68.8285C149.509 73.8964 153.568 78.0037 158.576 78.0037C163.582 78.0037 167.641 73.8964 167.641 68.8285C167.641 63.7611 163.582 59.6533 158.576 59.6533Z" fill="#3AAA35"/>
<path d="M177.309 59.6533C172.302 59.6533 168.243 63.7611 168.243 68.8285C168.243 73.8964 172.302 78.0039 177.309 78.0039C182.316 78.0039 186.376 73.8964 186.376 68.8285C186.376 63.7611 182.316 59.6533 177.309 59.6533Z" fill="#3AAA35"/>
<path opacity="0.55" d="M83.638 59.6533C78.6318 59.6533 74.5728 63.7611 74.5728 68.8285C74.5728 73.8964 78.6318 78.0037 83.638 78.0037C88.6454 78.0037 92.7046 73.8964 92.7046 68.8285C92.7046 63.7611 88.6454 59.6533 83.638 59.6533Z" fill="#3AAA35"/>
<path opacity="0.65" d="M102.373 59.6533C97.3651 59.6533 93.3062 63.7606 93.3062 68.8277C93.3062 73.8959 97.3651 78.0037 102.373 78.0037C107.38 78.0037 111.44 73.8959 111.44 68.8277C111.44 63.7606 107.38 59.6533 102.373 59.6533Z" fill="#3AAA35"/>
<path opacity="0.85" d="M139.841 59.6533C134.834 59.6533 130.774 63.7611 130.774 68.828C130.774 73.8959 134.834 78.0037 139.841 78.0037C144.848 78.0037 148.908 73.8959 148.908 68.828C148.908 63.7611 144.848 59.6533 139.841 59.6533Z" fill="#3AAA35"/>
<path opacity="0.75" d="M121.08 59.6543C116.072 59.6543 112.013 63.7616 112.013 68.829C112.013 73.8974 116.072 78.0041 121.08 78.0041C126.086 78.0041 130.146 73.8974 130.146 68.829C130.146 63.7616 126.086 59.6543 121.08 59.6543Z" fill="#3AAA35"/>
<path d="M186.137 42.267L170.388 42.252L170.39 36.1428L178.814 36.1523H178.815C179 36.1523 179.178 36.0788 179.309 35.9475C179.44 35.8165 179.514 35.6383 179.514 35.4522L179.518 28.8679C179.518 28.4814 179.206 28.1678 178.82 28.1671L170.401 28.1569L170.404 23.0111L185.208 23.0221H185.208C185.594 23.0221 185.907 22.7091 185.908 22.3226L185.917 15.7397C185.917 15.5536 185.843 15.3754 185.712 15.2441C185.581 15.1124 185.403 15.0385 185.218 15.0382L161.675 15.0156H161.674C161.489 15.0156 161.312 15.0892 161.18 15.2205C161.049 15.3515 160.975 15.5297 160.975 15.7154L160.947 49.534C160.947 49.9208 161.26 50.2348 161.646 50.2351L186.132 50.2574H186.132C186.318 50.2574 186.495 50.1838 186.626 50.0525C186.757 49.9212 186.831 49.7433 186.831 49.5573L186.836 42.9678C186.836 42.5814 186.523 42.2674 186.137 42.267Z" fill="white"/>
<path d="M104.174 15.0155L96.2496 15.0117C96.0642 15.0117 95.886 15.0856 95.7549 15.2166C95.6238 15.3479 95.5501 15.5261 95.5501 15.7118L95.5457 33.3568L87.8468 15.4389C87.7366 15.1821 87.484 15.0155 87.2047 15.0155H77.0285C76.6424 15.0155 76.3293 15.3291 76.3293 15.7159L76.3276 49.553C76.3276 49.9398 76.6403 50.2535 77.0264 50.2535L85.0612 50.2562C85.2465 50.2562 85.4247 50.1823 85.5558 50.051C85.6869 49.9197 85.7607 49.7415 85.7607 49.5558L85.7627 29.5529L94.6301 49.8321C94.7414 50.0866 94.9926 50.2511 95.2702 50.2514L104.173 50.2572C104.358 50.2572 104.537 50.1834 104.668 50.0524C104.799 49.921 104.873 49.7425 104.873 49.5568L104.873 15.716C104.873 15.3291 104.56 15.0158 104.174 15.0155Z" fill="white"/>
<path d="M69.4643 15.0146L60.5361 15.0117C60.4475 15.0117 60.3607 15.0477 60.2981 15.1102C60.2346 15.1738 60.1997 15.2581 60.1997 15.3475V37.0726C60.1997 39.455 58.2652 41.3932 55.8873 41.3932C53.5093 41.3932 51.5746 39.455 51.5746 37.0726V19.2494L51.5741 17.9781L51.5746 15.3502C51.5746 15.1651 51.4239 15.0146 51.2388 15.0146L42.3106 15.0117C42.2206 15.0117 42.136 15.0466 42.0726 15.1102C42.0091 15.1738 41.9741 15.2581 41.9741 15.3475V37.0726C41.9741 44.7586 48.2155 51.0117 55.8873 51.0117C63.5589 51.0117 69.8002 44.7586 69.8002 37.0726V17.9775L69.7997 17.9781L69.8002 15.3502C69.8002 15.1651 69.6495 15.0146 69.4643 15.0146Z" fill="white"/>
<path d="M120.849 15.7276C120.849 15.3407 120.536 15.0271 120.15 15.0268L112.105 15.0117C112.104 15.0117 112.104 15.0117 112.104 15.0117C111.718 15.0117 111.405 15.325 111.405 15.7115L111.4 49.5185C111.4 49.7045 111.473 49.8827 111.604 50.0141C111.735 50.1457 111.913 50.2196 112.099 50.2196L120.146 50.2319C120.331 50.2319 120.509 50.1584 120.64 50.0271C120.771 49.8957 120.845 49.7175 120.845 49.5318L120.849 15.7276Z" fill="white"/>
<path d="M151.91 31.1751C153.731 29.4699 154.875 27.0494 154.875 24.3555C154.875 19.1951 150.7 15.0117 145.549 15.0117C145.48 15.0117 145.414 15.0205 145.346 15.022L140.974 15.0117V15.0204L128.092 15.0155H128.091C127.705 15.0155 127.392 15.3288 127.392 15.7156L127.376 49.528C127.376 49.7138 127.449 49.8919 127.58 50.0236C127.711 50.1549 127.889 50.2289 128.075 50.2289L140.974 50.2315L143.279 50.2319C143.283 50.2319 143.286 50.2319 143.289 50.2319H145.38C151.255 50.2319 156.017 45.4607 156.017 39.5751C156.017 36.1586 154.406 33.1253 151.91 31.1751ZM136.614 22.0621H143.657C145.042 22.0621 146.166 23.1875 146.166 24.5757C146.166 25.964 145.042 27.0894 143.657 27.0894H136.614V22.0621ZM143.555 41.8342C143.55 41.8342 143.545 41.8335 143.54 41.8335H136.614V34.4838H143.555C145.581 34.4838 147.223 36.1293 147.223 38.159C147.223 40.1887 145.581 41.8342 143.555 41.8342Z" fill="white"/>
<path d="M218.771 15.2708C218.64 15.1394 218.462 15.0652 218.276 15.0649L191.879 15.0156H191.878C191.492 15.0156 191.179 15.3286 191.179 15.7147L191.167 22.2375C191.167 22.6246 191.479 22.9386 191.865 22.9393L200.151 22.9564L200.108 49.5347C200.107 49.7204 200.181 49.8986 200.312 50.0303C200.442 50.162 200.62 50.2358 200.806 50.2362L209.155 50.2471H209.156C209.542 50.2471 209.855 49.9342 209.855 49.5477L209.897 22.9701L218.263 22.9865H218.264C218.649 22.9865 218.962 22.6735 218.963 22.2874L218.975 15.7667C218.975 15.5806 218.901 15.4024 218.771 15.2708Z" fill="white"/>
</g>
<defs>
<clipPath id="clip0_692_1126">
<rect width="177" height="63" fill="white" transform="translate(42 15)"/>
</clipPath>
</defs>
</svg>
