<svg width="273" height="117" viewBox="0 0 273 117" fill="none" xmlns="http://www.w3.org/2000/svg">
<rect width="273" height="117" fill="#303E47"/>
<path fill-rule="evenodd" clip-rule="evenodd" d="M42.5437 27.7979H28.8052L37.0481 43.0639H29.5912L33.5159 52.5639H42.1502L45.6835 59.0089H37.0492L41.7588 68.5079H51.1791L62.5629 89.2019L73.1606 68.5079L81.7971 68.1679L87.2916 58.6688H78.6562L81.796 52.5629H90.04L95.1421 42.7249H86.9002L94.7496 27.7979H80.6207L62.1715 63.7579L42.5437 27.7979Z" fill="#22C99D"/>
<path d="M134.481 44.0664H141.715L129.76 72.9324H122.097L110.142 44.0664H117.376L125.96 66.0044L134.481 44.0664ZM168.987 44.0664H175.608V72.9324H168.987V68.7764C166.494 72.0474 162.919 73.6834 158.259 73.6834C154.049 73.6834 150.453 72.2204 147.469 69.2954C144.485 66.3324 142.994 62.7334 142.994 58.4994C142.994 54.2274 144.485 50.6294 147.469 47.7034C150.453 44.7784 154.049 43.3164 158.259 43.3164C162.919 43.3164 166.494 44.9324 168.987 48.1664V44.0664ZM152.374 65.1384C154.213 66.8704 156.522 67.7364 159.302 67.7364C162.081 67.7364 164.39 66.8704 166.229 65.1384C168.067 63.3684 168.987 61.1554 168.987 58.4994C168.987 55.8444 168.067 53.6494 166.229 51.9184C164.39 50.1484 162.081 49.2624 159.302 49.2624C156.522 49.2624 154.213 50.1474 152.374 51.9184C150.535 53.6504 149.615 55.8444 149.615 58.4994C149.615 61.1554 150.535 63.3684 152.374 65.1384ZM204.109 44.0664H211.343L199.389 72.9324H191.725L179.77 44.0664H187.005L195.587 66.0044L204.109 44.0664ZM219.55 61.1554C220.04 63.3494 221.164 65.0424 222.921 66.2354C224.679 67.3904 226.824 67.9674 229.358 67.9674C232.874 67.9674 235.51 66.7744 237.267 64.3884L242.724 67.3904C239.698 71.5854 235.223 73.6834 229.297 73.6834C224.31 73.6834 220.285 72.2594 217.219 69.4114C214.154 66.5244 212.622 62.8874 212.622 58.4994C212.622 54.1894 214.134 50.5904 217.158 47.7034C220.183 44.7784 224.065 43.3164 228.807 43.3164C233.302 43.3164 236.981 44.7984 239.842 47.7614C242.744 50.7254 244.195 54.3234 244.195 58.5574C244.195 59.2114 244.113 60.0774 243.949 61.1554H219.55ZM219.488 56.0754H237.512C237.063 53.7274 236.02 51.9564 234.385 50.7634C232.792 49.5704 230.911 48.9734 228.745 48.9734C226.293 48.9734 224.25 49.6094 222.614 50.8794C220.98 52.1494 219.938 53.8814 219.488 56.0754Z" fill="white"/>
</svg>
