<svg width="240" height="102" viewBox="0 0 240 102" fill="none" xmlns="http://www.w3.org/2000/svg">
<rect width="240" height="102" fill="#000C24"/>
<path d="M68.7088 16.6C68.4088 13.8 66.4088 12 63.4088 12C63.1088 12 62.7088 12 62.4088 12.1C59.9088 12.4 58.0088 14.1 57.0088 17C56.5088 18.4 56.2088 19.8 56.1088 21.2V22.5C55.7088 23.1 55.5088 23.7 55.3088 24.4C54.5088 27.1 54.0088 30 54.0088 32.8V33.8C53.5088 34.6 53.0088 35.4 52.6088 36.2C52.1088 37.4 51.7088 38.6 51.3088 39.9L51.0088 34.6C51.0088 32.5 49.4088 19.6 48.2088 15.2C47.6088 13.3 45.7088 12.1 43.8088 12.3C42.7088 12.3 41.6088 12.5 40.6088 12.9C35.6088 15.1 36.0088 21.4 37.1088 24.8L37.5088 26C37.5088 26.3 37.5088 26.7 37.5088 27C37.5088 29.1 38.0088 31.3 39.1088 35.5L39.4088 36.7C39.2088 37.4 39.0088 38.1 39.0088 38.8C38.9088 40.6 39.0088 42.4 39.1088 44.1L38.5088 44C38.4088 44 38.3088 44 38.3088 44C38.0088 44 37.8088 43.9 37.5088 43.9H37.3088L37.0088 44C36.9088 44 36.7088 44 36.5088 44L36.1088 44.1C35.9088 44.1 35.6088 44.2 35.4088 44.3C35.0088 44.4 34.6088 44.6 34.3088 44.8C33.1088 45.6 32.1088 46.7 31.5088 48C31.1088 49.1 31.0088 50.2 31.3088 51.3H30.8088C29.8088 51.3 28.9088 51.6 28.0088 52C27.2088 52.4 26.6088 53 26.1088 53.8L26.0088 54.1C24.2088 56.4 25.2088 59.6 26.0088 61.8V61.9C26.1088 62.1 26.1088 62.2 26.2088 62.4L26.1088 64.2C26.0088 65.7 26.6088 67.6 27.5088 69.8C27.6088 70.4 27.9088 71 28.0088 71.3C28.7088 74.8 30.5088 78 32.9088 80.6L33.0088 90H62.0088L60.6088 79.9V79.5C62.8088 76.2 64.2088 72.4 64.7088 68.5C65.9088 61.4 65.4088 54.1 63.2088 47.1C63.6088 45.1 64.1088 42.3 64.7088 39.3V39.2C65.0088 37.6 65.4088 36 65.7088 34.5C65.8088 33.8 66.0088 33.2 66.1088 32.5C66.2088 31.8 66.4088 31.2 66.5088 30.5L66.9088 28.6C67.1088 27.5 67.3088 26.2 67.6088 24.9C67.8088 23.7 68.0088 22.6 68.2088 21.5V21.3C68.4088 20.4 68.5088 19.5 68.6088 18.7C68.6088 18.4 68.7088 18.2 68.7088 17.9C68.7088 17.6 68.7088 17.3 68.7088 17C68.7088 16.9 68.7088 16.7 68.7088 16.6ZM67.5088 17.9C67.5088 18.1 67.5088 18.3 67.4088 18.6C67.2088 19.4 67.1088 20.3 66.9088 21.4C66.7088 22.5 66.5088 23.6 66.3088 24.8C66.1088 26 65.9088 27.2 65.6088 28.5L65.2088 30.4C65.1088 31 65.0088 31.7 64.8088 32.4C64.6088 33.1 64.5088 33.7 64.4088 34.4C64.1088 35.9 63.7088 37.6 63.4088 39.2C62.7088 42.3 62.1088 45.3 61.8088 47.3C64.0088 54.1 64.5088 61.3 63.3088 68.4C62.5088 73.1 61.1088 76.8 59.1088 79.3L59.2088 80.1L60.4088 88.9H59.0088L57.7088 80.3C56.7088 80.9 55.7088 81.4 54.6088 81.7L54.2088 81.8L54.5088 81.7C58.3088 80.1 61.0088 73.8 61.9088 66.5C62.0088 65.9 62.0088 65.3 62.1088 64.7C62.1088 64.4 62.1088 64.2 62.2088 63.9C62.2088 63.3 62.3088 62.6 62.3088 62C62.5088 57.1 61.8088 52.2 60.3088 47.5C60.6088 45.8 61.1088 43.2 61.7088 40.5C61.7088 40.4 61.8088 40.2 61.8088 40C61.9088 39.4 62.0088 38.8 62.2088 38.2C62.4088 37.6 62.4088 37.3 62.5088 36.8C62.7088 35.9 62.9088 35 63.0088 34.1C63.1088 33.4 63.3088 32.8 63.4088 32.1V31.9C63.5088 31.3 63.6088 30.7 63.7088 30.1L64.0088 28.2C64.1088 27.9 64.1088 27.6 64.2088 27.3C64.3088 27 64.3088 26.7 64.4088 26.4C64.5088 26.1 64.5088 25.7 64.6088 25.4L64.8088 24.6C64.9088 24.1 65.0088 23.5 65.1088 23C65.2088 22.5 65.3088 21.7 65.4088 21.1C65.6088 20.1 65.7088 19.2 65.9088 18.4V18.3C65.9088 18.2 65.9088 18 66.0088 17.9C66.0088 17.8 66.0088 17.7 66.0088 17.6C66.0088 17.5 66.0088 17.4 66.0088 17.3C66.0088 17.2 66.0088 17.2 66.0088 17.2C66.0088 17.1 66.0088 17.1 66.0088 17C66.0088 16 65.2088 15.1 64.2088 15H64.1088C63.9088 15 63.7088 15 63.5088 15C63.3088 15 63.1088 15 62.9088 15C61.5088 15.3 60.4088 16.3 59.9088 17.6C59.8088 17.7 59.8088 17.9 59.7088 18C59.6088 18.1 59.6088 18.4 59.5088 18.6C59.4088 18.8 59.3088 18.8 59.3088 19C59.3088 19.2 59.2088 19.5 59.1088 19.8C59.1088 19.9 59.1088 20 59.1088 20.1C59.1088 20.2 59.1088 20.3 59.1088 20.5C59.1088 20.7 59.1088 20.8 59.1088 20.9C59.1088 21 59.1088 21 59.1088 21.1V21.2L59.3088 21.1L59.6088 21H60.2088H60.4088H60.5088C60.8088 21 61.1088 20.9 61.4088 20.9H61.9088C62.0088 20.9 62.1088 20.9 62.2088 20.9V21.5C60.2088 21.7 58.5088 23.1 58.0088 25.1C57.9088 25.5 57.8088 26 57.6088 26.5L57.5088 26.9C57.2088 28.3 57.0088 29.6 56.9088 31C56.9088 31.6 56.8088 32.2 56.8088 32.9C57.2088 32.7 57.6088 32.6 58.0088 32.5C58.2088 32.5 58.3088 32.4 58.5088 32.4L59.2088 32.3L60.0088 32.2H60.2088H60.5088V32.9H60.4088C60.3088 32.9 60.2088 32.9 60.0088 33C59.8088 33 59.6088 33.1 59.4088 33.1C58.9088 33.2 58.5088 33.5 58.1088 33.7C57.7088 33.9 57.4088 34.2 57.0088 34.5C56.5088 35 56.0088 35.6 55.7088 36.3L55.5088 36.6C55.5088 36.7 55.5088 36.7 55.4088 36.8C55.3088 36.9 55.3088 37.1 55.2088 37.3C55.1088 37.5 55.0088 37.8 54.9088 38.1C54.8088 38.4 54.8088 38.5 54.7088 38.6C54.6088 38.7 54.6088 38.8 54.6088 38.9C54.6088 39 54.6088 39.1 54.5088 39.1L54.4088 39.6L54.3088 40C54.3088 40.2 54.2088 40.4 54.2088 40.5C54.2088 40.6 54.1088 40.9 54.1088 41V41.1C54.0088 41.4 54.0088 41.6 53.9088 41.9C53.8088 42.2 53.8088 42.2 53.8088 42.4C53.8088 42.6 53.7088 42.8 53.7088 43C53.7088 43.2 53.7088 43.2 53.6088 43.4C53.5088 44 53.3088 44.8 53.2088 45.5C52.7088 45.9 52.2088 46.3 51.7088 46.7L51.0088 47.6C50.0088 48.6 49.2088 49.6 48.6088 50.2C48.3088 50.7 48.0088 51 48.0088 51H47.9088L47.4088 50.8C47.6088 50.4 47.9088 50 48.1088 49.7L49.1088 48L48.4088 34.8C48.4088 34.7 48.4088 34.6 48.4088 34.4C48.4088 34.2 48.4088 34.2 48.4088 34.1C48.4088 34 48.4088 33.8 48.4088 33.6C48.2088 31.7 47.8088 28.1 47.3088 24.6L47.0088 23.9C47.0088 23.7 47.0088 23.6 46.9088 23.4C46.8088 23.2 46.8088 23 46.8088 22.8C46.8088 22.6 46.8088 22.5 46.7088 22.3C46.6088 22.1 46.6088 21.9 46.6088 21.7V21.6C46.6088 21.4 46.5088 21.2 46.5088 20.9C46.4088 20.4 46.4088 20 46.3088 19.5C46.3088 19.3 46.2088 19.1 46.2088 18.9C46.2088 18.7 46.1088 18.5 46.1088 18.2L46.0088 18C46.0088 17.9 46.0088 17.8 45.9088 17.7C45.8088 17.6 45.8088 17.4 45.8088 17.2L45.7088 16.7C45.7088 16.5 45.6088 16.4 45.6088 16.3C45.6088 16.2 45.6088 16.1 45.6088 16.1C45.6088 16 45.5088 16 45.5088 15.9C45.3088 15.6 45.1088 15.4 44.7088 15.4C44.4088 15.3 44.2088 15.3 43.9088 15.3C43.4088 15.3 43.0088 15.4 42.6088 15.5C42.4088 15.6 42.1088 15.6 41.9088 15.7C40.1088 16.5 39.5088 18.2 39.4088 19.9C39.4088 20.1 39.4088 20.4 39.4088 20.6C39.4088 21.1 39.4088 21.5 39.5088 22C39.5088 22.2 39.5088 22.4 39.6088 22.6V22.7C39.6088 23.1 39.7088 23.3 39.8088 23.6C39.9088 23.9 39.9088 23.9 39.9088 24C39.9088 24.1 39.9088 24.1 40.0088 24.2V24.3C40.2088 24.2 40.4088 24 40.6088 23.9C41.5088 23.4 42.6088 23.1 43.6088 23.1H43.7088V23.4V23.7C43.2088 23.7 42.7088 23.8 42.2088 24L42.0088 24.1C41.8088 24.2 41.7088 24.3 41.6088 24.4C41.2088 24.7 40.9088 25.2 40.7088 25.7C40.5088 26.1 40.5088 26.6 40.5088 27C40.5088 28 40.7088 29.1 40.9088 30.1C41.0088 30.7 41.2088 31.4 41.4088 32.2C41.5088 32.4 41.5088 32.7 41.6088 32.9L42.1088 34.9C43.0088 34.6 43.9088 34.3 44.8088 34.2C45.3088 34.1 45.6088 34.1 45.7088 34.1L45.9088 34.9H45.8088L45.5088 35H45.4088C44.7088 35.2 44.0088 35.5 43.5088 36H43.1088L43.0088 36.2C42.3088 37 41.9088 38 41.8088 39C41.8088 39.1 41.8088 39.3 41.8088 39.4C41.8088 39.5 41.8088 39.6 41.8088 39.7C41.8088 39.8 41.8088 40 41.8088 40.1V40.9C41.8088 41 41.8088 41.1 41.8088 41.3C41.8088 41.5 41.8088 41.6 41.8088 41.7C41.8088 41.8 41.8088 41.9 41.8088 42.1C41.8088 42.3 41.8088 42.3 41.8088 42.5C41.8088 42.7 41.8088 42.7 41.8088 42.9C41.8088 43.1 41.8088 43.1 41.8088 43.3C41.8088 43.5 41.8088 43.5 41.8088 43.6V44V44.3C41.8088 44.4 41.8088 44.5 41.8088 44.7V45C41.8088 45.1 41.8088 45.2 41.8088 45.3V45.6C41.8088 45.7 41.8088 45.8 41.8088 45.9C41.8088 46 41.8088 46.1 41.8088 46.2C41.8088 46.3 41.8088 46.4 41.8088 46.5C41.8088 46.6 41.8088 46.7 41.8088 46.8C41.8088 46.9 41.8088 47 41.8088 47.1C41.8088 47.2 41.8088 47.3 41.8088 47.4L41.9088 47.8V48C42.0088 48.5 42.1088 49 42.2088 49.4L42.0088 49.3L41.7088 49.1L41.0088 48.3L40.8088 48.1H40.7088L40.5088 48L40.0088 47.8V47.5L39.9088 47.4C39.6088 47.3 39.3088 47.1 39.0088 47.1H38.9088C38.6088 47 38.4088 47 38.1088 46.9H38.0088C37.8088 46.9 37.7088 46.9 37.5088 46.9H37.2088C37.1088 46.9 37.0088 46.9 36.9088 46.9C36.8088 46.9 36.8088 46.9 36.7088 46.9C36.6088 46.9 36.5088 46.9 36.3088 47L36.0088 47.1C35.9088 47.1 35.8088 47.2 35.8088 47.2L35.3088 47.6L34.9088 48C34.5088 48.3 34.2088 48.7 34.0088 49.1C33.8088 49.7 33.8088 50.4 33.9088 51.1C33.9088 51.2 34.0088 51.4 34.0088 51.5C34.0088 51.6 34.1088 52.1 34.2088 52.4L34.3088 52.9C34.4088 53.2 34.5088 53.5 34.7088 53.9C34.9088 54.4 35.1088 54.9 35.4088 55.5C35.5088 55.7 35.6088 55.9 35.7088 56L36.0088 55.9L36.8088 55.7H37.0088H37.3088L38.0088 55.6H38.1088C38.4088 55.6 38.8088 55.5 39.1088 55.5H39.6088H40.2088H40.5088C40.8088 55.5 41.2088 55.6 41.6088 55.6H41.8088C42.2088 55.7 42.7088 55.7 43.1088 55.8C42.9088 54.4 42.4088 53.1 41.7088 52L41.6088 51.8H41.7088L42.3088 51.7L42.6088 52C42.8088 52.2 43.0088 52.4 43.1088 52.6L43.4088 52.9L43.6088 53.2L43.7088 53.4C44.3088 54.3 44.8088 55.3 45.2088 56.3C45.6088 56.3 46.0088 56.4 46.3088 56.4C47.1088 56.5 47.8088 56.7 48.6088 56.9L49.6088 57.2L58.6088 60.9V61.4V62L52.4088 59.8L49.0088 58.7C48.6088 58.5 48.2088 58.4 47.8088 58.3L47.2088 58.1L46.5088 58H46.3088H46.0088H45.6088H45.3088H45.0088L44.5088 57.9L43.9088 57.8L43.3088 57.7C42.6088 57.6 41.8088 57.4 41.1088 57.3C40.5088 57.2 40.0088 57.1 39.4088 57.1H38.4088C37.6088 57.1 36.7088 57.3 36.0088 57.6C35.8088 57.7 35.6088 57.8 35.5088 57.9C35.4088 58 35.2088 58.1 35.1088 58.2C34.3088 58.8 33.8088 59.8 33.8088 60.8C33.8088 61.2 34.0088 61.7 34.1088 62.1L38.0088 62.3C38.0088 62.2 38.0088 62.1 38.0088 62C38.0088 61.9 38.0088 61.8 38.0088 61.7C38.1088 61.2 38.2088 60.7 38.4088 60.3C38.5088 60.1 38.6088 59.9 38.7088 59.6C38.7088 59.5 38.8088 59.5 38.8088 59.4H39.8088C39.5088 60 39.3088 60.7 39.2088 61.4C39.2088 61.6 39.2088 61.9 39.2088 62.1C39.2088 62.7 39.3088 63.3 39.4088 63.8H39.0088H38.7088L35.1088 63.6C35.2088 63.7 35.3088 63.8 35.4088 63.9C35.9088 64.3 36.4088 64.6 37.0088 64.8C37.2088 64.9 37.3088 64.9 37.5088 65C38.5088 65.2 39.7088 65.5 40.5088 65.6C40.8088 65.6 41.0088 65.6 41.3088 65.6C41.6088 65.6 41.9088 65.6 42.2088 65.5H42.5088L42.4088 65.3C42.3088 65.1 42.2088 65 42.2088 64.8C42.1088 64.6 42.1088 64.5 42.1088 64.3C42.1088 64.1 42.1088 64 42.1088 63.8C42.1088 63.7 42.1088 63.6 42.1088 63.6C42.1088 63.3 42.1088 62.9 42.2088 62.6C42.4088 63.2 42.7088 63.7 43.1088 64.2C43.7088 64.9 44.3088 65.5 45.1088 66L51.6088 70.1L51.3088 70.4L50.1088 69.9L48.9088 69C47.9088 68.6 46.8088 68.7 45.9088 69.3L45.7088 69.4L45.6088 69.5C45.4088 69.7 45.2088 70 45.1088 70.2C45.1088 70.3 45.0088 70.3 45.0088 70.4L44.9088 70.6V70.7C44.7088 71.4 44.6088 72.2 44.5088 72.9C44.5088 73.1 44.5088 73.2 44.5088 73.4C44.5088 73.6 44.5088 73.8 44.5088 73.9C44.5088 74.2 44.5088 74.6 44.6088 74.9C44.7088 75.7 45.0088 76.6 45.4088 77.3C45.5088 77.5 45.6088 77.6 45.7088 77.7C45.9088 78 46.1088 78.3 46.3088 78.5C47.3088 79.5 48.5088 80.2 49.8088 80.6L50.5088 80.8L49.2088 84.6L48.9088 82C47.7088 81.6 46.5088 80.9 45.6088 80L45.2088 79.6C44.4088 78.7 43.8088 77.6 43.4088 76.5C43.3088 76 43.1088 75.6 43.1088 75.1C42.9088 73.5 43.0088 71.8 43.4088 70.2C43.4088 70 43.5088 69.9 43.5088 69.8C43.5088 69.7 43.7088 69.2 43.8088 69C43.9088 68.8 44.0088 68.5 44.1088 68.3L44.2088 68C44.3088 67.8 44.4088 67.6 44.5088 67.4L44.6088 67.3C44.6088 67.2 44.7088 67.1 44.8088 67H44.7088L44.0088 66.4C43.7088 66.5 43.4088 66.6 43.2088 66.6H43.0088H42.6088H42.0088H41.7088L41.0088 66.7L40.3088 66.6H40.1088C40.1088 66.8 40.1088 67 40.1088 67.2C40.1088 67.3 40.1088 67.4 40.1088 67.5C40.1088 68.5 39.5088 69.5 38.7088 70L38.6088 70.1L38.1088 70.3C37.8088 70.4 37.6088 70.5 37.3088 70.5C37.1088 70.5 36.8088 70.5 36.6088 70.5C36.1088 70.5 35.6088 70.4 35.1088 70.3C31.0088 69.1 29.0088 64.3 29.0088 64.3C29.0088 64.6 29.0088 65 29.1088 65.3C29.1088 65.5 29.2088 65.6 29.2088 65.8C29.2088 66 29.3088 66.1 29.3088 66.2C29.5088 67 29.9088 67.9 30.1088 68.7C30.3088 69.5 30.6088 70.1 30.7088 70.6C31.3088 73.8 32.8088 76.7 35.0088 79C35.4088 79.3 35.7088 79.6 36.1088 79.9C38.0088 81.2 40.1088 81.9 42.4088 82.1H36.2088L35.8088 88.7H34.1088V80C31.6088 77.6 29.9088 74.4 29.2088 71C29.1088 70.7 28.9088 70 28.7088 69.4C28.0088 67.8 27.5088 66 27.4088 64.3L27.5088 62.2C27.4088 62 27.3088 61.7 27.2088 61.5C27.2088 61.4 27.2088 61.4 27.1088 61.3C26.3088 59.4 25.5088 56.6 27.0088 54.8L27.2088 54.6C27.6088 54 28.1088 53.5 28.7088 53.1C29.4088 52.7 30.1088 52.5 30.9088 52.5C31.6088 52.5 32.2088 52.7 32.8088 53C32.2088 51.6 32.1088 49.9 32.5088 48.4C33.0088 47.3 33.9088 46.4 34.9088 45.7H35.0088C35.3088 45.5 35.6088 45.4 35.9088 45.3C36.1088 45.2 36.3088 45.2 36.5088 45.1H36.8088H37.0088H37.1088H37.4088H37.5088C37.7088 45.1 37.9088 45.1 38.2088 45.2H38.4088C38.8088 45.3 39.2088 45.4 39.5088 45.5C39.8088 45.6 40.1088 45.7 40.5088 45.9C40.2088 43.6 40.1088 41.2 40.2088 38.9C40.2088 38.2 40.4088 37.5 40.7088 36.9L40.3088 35.3C39.3088 31.2 38.8088 29.1 38.7088 27.1C38.7088 26.8 38.7088 26.4 38.8088 26.1L38.4088 24.7C37.5088 21.7 37.1088 16 41.3088 14.2C42.2088 13.8 43.1088 13.7 44.0088 13.7C45.4088 13.5 46.8088 14.3 47.3088 15.6C48.5088 20 50.1088 32.9 50.1088 34.7L50.6088 45.7C51.0088 45.4 51.4088 45 51.7088 44.7C52.1088 41.9 52.8088 39.2 53.8088 36.6C54.2088 35.7 54.6088 34.9 55.2088 34.1V32.7C55.3088 29.9 55.7088 27.1 56.4088 24.4C56.6088 23.7 56.9088 23.1 57.3088 22.6L57.4088 21C57.4088 20.7 57.7088 13.7 62.7088 13C63.0088 13 63.2088 12.9 63.5088 13C65.9088 13 67.4088 14.3 67.6088 16.5C67.6088 16.6 67.6088 16.8 67.6088 16.9C67.5088 17.3 67.5088 17.6 67.5088 17.9Z" fill="#D71082"/>
<path d="M32.2087 54.7002C32.1087 54.6002 31.9087 54.5002 31.8087 54.4002C31.7087 54.3002 31.6087 54.3002 31.5087 54.3002C31.4087 54.3002 31.2087 54.2002 31.1087 54.2002H30.8087H30.5087H30.3087H30.1087C29.9087 54.3002 29.6087 54.4002 29.4087 54.5002C29.3087 54.5002 29.3087 54.6002 29.2087 54.6002C28.9087 54.9002 28.6087 55.2002 28.3087 55.6002L28.2087 55.8002C28.0087 56.2002 27.9087 56.6002 27.9087 57.0002C27.9087 57.4002 27.9087 57.8002 28.0087 58.2002C28.2087 59.2002 28.5087 60.1002 28.8087 61.0002C29.2087 62.2002 29.9087 63.4002 30.6087 64.5002L31.1087 65.2002L31.5087 65.7002L31.8087 66.1002L32.5087 67.0002L32.6087 67.2002L32.7087 67.3002C32.8087 67.5002 32.9087 67.6002 33.0087 67.7002L33.3087 68.0002C33.9087 68.7002 34.7087 69.3002 35.6087 69.5002C35.8087 69.5002 35.9087 69.5002 36.1087 69.5002C36.8087 69.5002 37.4087 69.3002 37.9087 68.8002C38.0087 68.7002 38.1087 68.5002 38.2087 68.4002C38.2087 68.3002 38.3087 68.2002 38.3087 68.2002C38.3087 68.1002 38.4087 68.0002 38.4087 68.0002C38.6087 67.2002 38.2087 66.2002 36.8087 65.9002H36.6087H36.4087C36.3087 65.9002 36.2087 65.9002 36.1087 65.9002C35.8087 66.0002 35.5087 66.1002 35.3087 66.3002L35.2087 66.4002C34.9087 66.6002 34.6087 66.9002 34.4087 67.2002L34.3087 67.3002L33.9087 67.1002L33.6087 67.0002C33.7087 66.9002 33.8087 66.7002 34.0087 66.4002C34.1087 66.2002 34.3087 66.0002 34.4087 65.8002C34.6087 65.6002 34.8087 65.4002 35.0087 65.2002C33.8087 64.6002 32.9087 63.5002 32.4087 62.3002C32.3087 61.9002 32.2087 61.5002 32.2087 61.1002C32.2087 60.9002 32.2087 60.8002 32.2087 60.6002C32.2087 60.4002 32.2087 60.3002 32.2087 60.1002L32.3087 59.7002C32.3087 59.6002 32.4087 59.4002 32.4087 59.3002L32.6087 58.9002C32.6087 58.8002 32.7087 58.8002 32.7087 58.7002C32.8087 58.5002 32.9087 58.4002 32.9087 58.2002L33.0087 57.8002C33.2087 57.6002 33.3087 57.4002 33.5087 57.2002C33.8087 57.0002 34.0087 56.8002 34.3087 56.6002L34.2087 56.5002C33.6087 55.8002 33.0087 55.2002 32.2087 54.7002Z" fill="#D71082"/>
<path d="M101.109 67.2L92.6088 48H83.3088L97.7088 78.4H104.509L118.909 48H109.609L101.109 67.2Z" fill="#D71082"/>
<path d="M176.909 47.0996C167.409 47.0996 159.809 54.2996 159.809 63.1996C159.809 72.0996 167.509 79.2996 176.909 79.2996C183.809 79.3996 190.209 75.2996 192.909 68.8996H183.509C181.809 70.6996 179.409 71.5996 176.909 71.5996C173.009 71.6996 169.509 69.1996 168.309 65.4996H193.909C194.009 64.6996 194.109 63.8996 194.109 63.1996C194.109 62.0996 194.009 60.8996 193.709 59.8996C192.009 52.5996 185.109 47.0996 176.909 47.0996ZM168.609 59.8996C170.909 55.2996 176.409 53.4996 181.009 55.7996C182.809 56.6996 184.209 58.0996 185.109 59.8996H168.609Z" fill="#D71082"/>
<path d="M140.309 47.1004C137.009 47.1004 133.809 48.1004 131.109 49.9004V38.4004L122.709 41.0004V78.4004H130.709V76.2004C133.509 78.2004 136.809 79.3004 140.309 79.3004C149.209 79.3004 156.409 72.1004 156.409 63.2004C156.409 54.3004 149.209 47.1004 140.309 47.1004ZM139.509 71.6004C134.909 71.5004 131.209 67.7004 131.209 63.1004C131.309 58.5004 135.109 54.8004 139.709 54.8004C144.309 54.9004 148.009 58.6004 148.009 63.2004C148.009 67.9004 144.209 71.6004 139.509 71.6004Z" fill="#D71082"/>
<path d="M214.709 55.1998V47.9998H206.109V38.2998L197.509 40.9998V63.1998C197.509 72.0998 204.009 79.2998 213.509 79.2998H214.609V71.5998C209.909 71.5998 206.109 67.8998 206.009 63.1998V55.1998H214.709Z" fill="#D71082"/>
</svg>
