<svg width="208" height="71" viewBox="0 0 208 71" fill="none" xmlns="http://www.w3.org/2000/svg">
<rect width="208" height="71" fill="#1A5684"/>
<g clip-path="url(#clip0_1304_7871)">
<path d="M118.883 27.8C120.348 21.8903 116.774 17 108.019 17H89.0424L81.9326 45.9032L86.0596 53.0129H99.5591C108.405 53.0129 115.257 48.871 117.019 41.671C117.906 37.9806 116.877 35.4 114.563 34.1097V34.0194C116.757 32.5926 118.308 30.3601 118.883 27.8ZM107.312 41.4387C106.952 42.9484 105.936 44.4968 101.732 44.4968H93.1179L94.6222 38.3032H103.198C107.35 38.2903 107.659 39.8774 107.26 41.4387H107.312ZM109.035 27.9935C108.726 29.1548 107.839 30.5742 104.213 30.5742H96.4993L97.7849 25.5419H105.499C109.163 25.5161 109.343 26.7032 109.035 27.9935Z" fill="#14A0FF"/>
<path d="M130.827 39.0645H148.106L150.073 30.5484H132.91L134.247 25.5161H151.243L153.21 17H125.311L116.466 53H148.068L150.138 44.4839H129.554L130.827 39.0645Z" fill="#14A0FF"/>
<path d="M155.626 17L153.646 25.5161H163.97L157.195 53H168.033L174.821 25.5161H185.878L188 17H155.626Z" fill="#14A0FF"/>
<path d="M35.3396 53H24.4114L29.1427 33.7742L30.2355 30.871L27.3427 33.7742L24.1286 37.0387L24 27.4387L35.3396 17H44.1722L35.3396 53Z" fill="white"/>
<path d="M74.7972 38.0839L71.313 32.1613L88.2196 17H72.4701L66.0418 23.1935L44.2368 43.2581L33.7715 53H48.6724L59.8706 42.9742L63.6376 49.4258C64.9233 51.0516 66.7361 53.0258 74.4244 53.0258H83.424L74.8101 38.071L74.7972 38.0839Z" fill="white"/>
<path d="M64.8333 21.2065V21.1291C63.8687 19.7785 62.5815 18.6926 61.0899 17.9712C59.5983 17.2497 57.9501 16.9158 56.2964 17.0001H44.6611L53.3394 31.813L64.8333 21.2065Z" fill="white"/>
</g>
<defs>
<clipPath id="clip0_1304_7871">
<rect width="164" height="36" fill="white" transform="translate(24 17)"/>
</clipPath>
</defs>
</svg>
